<?xml version="1.0" encoding="utf-8"?>
<!-- Generator: Adobe Illustrator 26.3.1, SVG Export Plug-In . SVG Version: 6.00 Build 0)  -->

<svg version="1.1"  xmlns="http://www.w3.org/2000/svg" xmlns:xlink="http://www.w3.org/1999/xlink"
	 viewBox="0 0 6000 6000"  >
<style type="text/css">
	
</style>
<g>
	<path class="st0" d="M104.232,604.041c0.282-0.743,0.653-1.466,0.83-2.233c0.86-3.73,2.726-6.899,5.399-9.576
		c3.962-3.969,9.057-4.758,13.423-1.257c3.76,3.014,7.106,6.689,10.083,10.502c5.42,6.945,10.298,14.311,15.677,21.29
		c2.175,2.822,5.071,5.087,7.639,7.606c0.234-0.167,0.469-0.334,0.703-0.502c-0.1-0.496-0.153-1.007-0.308-1.486
		c-1.505-4.637-3.027-9.268-4.547-13.9c-0.091-0.276-0.212-0.543-0.298-0.821c-2.096-6.791-0.196-9.932,6.889-10.911
		c13.128-1.815,26.279-3.455,39.411-5.241c15.516-2.109,31.02-4.309,46.533-6.444c15.439-2.125,30.884-4.201,46.322-6.332
		c12.671-1.749,24.975-5.012,37.025-9.244c3.602-1.265,4.863-3.294,4.886-7.133c0.012-2.041-0.027-4.082-0.036-6.122
		c-0.013-3.026-0.75-3.85-3.719-4.27c-18.749-2.654-37.412-5.743-55.595-11.2c-9.647-2.895-18.976-6.59-27.869-11.341
		c-6.421-3.43-12.916-6.735-19.207-10.39c-5.556-3.227-9.933-7.758-13.409-13.228c-9.776-15.382-19.227-30.93-26.108-47.887
		c-2.589-6.38-4.837-12.815-4.308-19.878c0.693-9.25,4.569-17.15,10.615-23.931c3.171-3.557,6.971-6.567,10.597-9.698
		c1.445-1.247,2.371-2.423,1.889-4.468c-1.718-7.298-1.692-14.729-1.655-22.173c0.039-7.721-0.004-15.447-0.291-23.161
		c-0.113-3.025-0.888-6.042-1.542-9.024c-0.61-2.776-2.146-4.99-4.94-5.961c-10.171-3.537-20.27-7.327-30.579-10.411
		c-7.993-2.391-16.316-3.066-24.673-1.762c-1.574,0.246-2.94,0.004-3.8-1.45c-0.885-1.497-0.697-3.083,0.454-4.253
		c2.701-2.747,5.378-5.568,8.387-7.952c7.579-6.002,16.461-9.513,25.475-12.699c3.419-1.208,6.849-2.383,10.306-3.584
		c-0.105-0.34-0.109-0.591-0.236-0.729c-12.649-13.705-20.094-30.143-24.125-48.054c-2.919-12.969-4.724-26.194-6.824-39.337
		c-0.355-2.221,0.097-4.652,0.575-6.901c0.491-2.307,2.193-3.738,4.567-4.16c2.326-0.414,3.972,0.769,5.126,2.596
		c1.084,1.716,1.985,3.553,2.902,5.369c5.256,10.403,11.779,19.921,19.788,28.403c6.138,6.5,13.44,11.345,21.509,15.104
		c2.276,1.06,4.51,2.21,7.208,3.538c-0.087-1.462-0.2-2.441-0.194-3.419c0.101-15.957-0.08-31.924,0.422-47.869
		c0.407-12.915,3.258-25.517,6.391-38.042c5.587-22.335,12.008-44.386,21.464-65.443c7.316-16.289,16.407-31.507,27.64-45.418
		c1.228-1.52,2.563-2.659,4.662-1.671c2.014,0.949,1.988,2.734,1.681,4.507c-2.217,12.816-1.959,25.689-0.887,38.573
		c0.689,8.273,1.251,16.572,2.408,24.783c0.725,5.148,2.435,10.16,3.741,15.223c0.172,0.665,0.564,1.274,1.095,2.436
		c1.806-1.53,3.527-2.638,4.807-4.126c25.308-29.418,52.794-56.572,83.378-80.527c16.319-12.782,33.315-24.559,51.676-34.23
		c13.989-7.368,29.034-11.992,44.215-16.158c8.21-2.253,16.457-4.37,24.69-6.537c0.703-0.185,1.424-0.347,2.146-0.404
		c2.141-0.168,3.545,1.223,3.203,3.348c-0.24,1.496-0.684,2.987-1.238,4.401c-6.807,17.361-10.949,35.456-14.805,53.63
		c-0.725,3.418-1.396,6.849-2.059,10.28c-0.148,0.764-0.154,1.556-0.295,3.094c2.339-0.952,4.276-1.594,6.08-2.501
		c8.185-4.112,16.138-8.751,24.534-12.366c18.242-7.854,36.703-15.198,55.074-22.75c1.212-0.498,2.406-1.045,3.64-1.482
		c1.516-0.538,3.081-1.139,4.401,0.443c1.387,1.663,0.834,3.247-0.21,4.801c-4.468,6.652-8.945,13.298-13.407,19.954
		c-3.195,4.767-6.37,9.546-9.81,14.702c3.218-0.345,6.061-0.581,8.884-0.964c25.24-3.426,50.612-4.717,76.065-5.119
		c14.128-0.223,28.248-1.082,42.361-1.836c2.567-0.137,5.093-1.13,7.628-1.767c2.257-0.567,4.489-0.956,6.312,0.991
		c1.902,2.031,2.067,4.473,1.186,6.941c-0.557,1.558-1.407,3.032-2.269,4.457c-9.759,16.134-22.832,29.074-38.572,39.293
		c-8.295,5.386-16.915,10.271-25.385,15.388c-0.485,0.293-0.94,0.637-1.729,1.176c2.483,0.796,4.654,1.483,6.819,2.186
		c20.23,6.566,40.195,13.868,59.678,22.392c18.907,8.272,34.056,21.158,45.328,38.507c0.75,1.155,1.455,2.367,1.979,3.636
		c1.483,3.598,0.613,5.974-3.096,7.275c-3.626,1.272-7.41,2.116-11.155,3.022c-9.27,2.242-18.558,4.41-27.837,6.618
		c-0.473,0.113-0.92,0.332-1.739,0.635c1.611,0.974,2.978,1.744,4.289,2.601c23.974,15.676,43.096,35.73,55.653,61.706
		c1.711,3.539,3.477,7.051,5.143,10.61c0.518,1.108,0.889,2.309,1.153,3.506c0.679,3.076,0.014,4.904-3.041,5.808
		c-4.434,1.313-9.028,2.693-13.594,2.847c-15.435,0.521-30.888,0.506-46.333,0.72c-2.105,0.029-4.24,0.008-6.304,0.354
		c-2.593,0.434-4.064,2.145-3.828,4.774c0.356,3.975,1.079,7.919,1.72,11.865c2.6,16.026,5.224,32.048,7.853,48.069
		c0.247,1.508,0.623,2.994,0.881,4.5c0.358,2.088-0.057,3.907-1.924,5.197c-1.861,1.285-3.422,0.283-5.075-0.538
		c-6.124-3.038-12.273-6.025-18.418-9.02c-0.239-0.116-0.539-0.106-1.433-0.267c1.51,4.45,2.593,8.681,4.363,12.602
		c2.389,5.29,5.266,10.364,8.024,15.482c0.883,1.638,1.603,3.12,0.179,4.799c-1.449,1.709-3.131,1.459-4.967,0.778
		c-10.236-3.797-20.475-7.586-30.733-11.325c-3.146-1.147-4.528-0.737-5.377,1.309c-1.296,3.125-0.368,6.406,2.312,7.492
		c2.219,0.9,4.665,1.281,6.814,2.305c6.031,2.872,12.268,5.477,17.863,9.062c10.362,6.639,14.879,16.759,14.648,28.861
		c-0.308,16.101-5.587,30.416-16.565,42.38c-10.717,11.681-24.217,18.077-39.726,20.63c-8.888,1.463-17.721,0.753-26.576-0.205
		c-2.388-0.258-4.798-0.32-7.2-0.435c-8.267-0.394-15.451,2.347-21.117,8.258c-12.518,13.057-28.421,20.611-44.503,27.885
		c-11.087,5.015-22.589,8.917-34.389,11.903c-1.54,0.39-3.15,0.512-4.734,0.709c-2.935,0.366-4.056,1.643-4.03,4.568
		c0.051,5.725,2.338,9.842,7.906,12.079c5.95,2.391,12.084,3.771,18.44,4.236c22.361,1.636,44.727,1.417,67.072-0.176
		c14.679-1.046,29.335-2.426,43.996-3.713c8.416-0.739,16.822-1.598,25.235-2.382c1.159-0.108,2.329-0.107,3.494-0.132
		c3.741-0.082,6.409,1.631,8.083,4.926c1.115,2.194,2.171,4.417,3.35,6.824c0.325-0.365,0.644-0.617,0.826-0.944
		c4.689-8.473,9.301-16.989,14.064-25.42c3.115-5.514,6.973-10.444,12.584-13.668c1.688-0.97,3.509-1.869,5.385-2.322
		c8.959-2.165,15.638,3.01,17.017,13.019c1.087,7.896,0.278,15.705-1.107,23.48c-0.766,4.299-1.577,8.591-2.469,12.864
		c-0.348,1.667-0.036,3.006,1.19,4.167c5.953,5.639,6.629,12.168,3.139,19.317c-1.564,3.204-3.11,6.444-5.004,9.453
		c-4.872,7.743-12.273,10.554-21.03,9.592c-6.79-0.746-13.505-2.173-20.249-3.324c-3.768-0.643-5.278,0.383-5.966,4.124
		c-0.198,1.073-0.36,2.159-0.658,3.205c-1.156,4.059-3.614,6.106-7.841,6.408c-1.884,0.134-3.787,0.027-5.681,0.004
		c-16.027-0.195-32.054-0.5-48.082-0.57c-24.127-0.105-48.255-0.058-72.382-0.034c-1.729,0.002-3.482,0.223-5.18,0.562
		c-1.91,0.382-2.979,1.777-3.327,3.639c-0.226,1.208-0.339,2.455-0.342,3.684c-0.029,12.891,0.067,25.783-0.057,38.673
		c-0.116,12.046,4.661,21.778,13.131,30.116c7.054,6.944,13.932,14.087,20.555,21.441c6.16,6.84,13.878,10.442,22.641,12.202
		c9.916,1.992,19.873,3.776,29.783,5.796c2.765,0.564,5.49,1.48,8.119,2.523c4.014,1.593,5.584,4.002,5.404,8.266
		c-0.65,15.36-1.131,30.734-2.165,46.07c-0.915,13.572-4.837,26.467-10.432,38.842c-1.731,3.828-3.811,7.44-7.818,9.359
		c-4.829,2.312-9.4,1.136-13.751-1.345c-4.284-2.444-7.566-6.006-9.881-10.285c-2.745-5.072-6.763-7.098-12.475-7.057
		c-24.345,0.178-48.694,0.028-73.038,0.248c-9.25,0.083-17.214-2.801-24.528-8.283c-14.061-10.539-27.817-21.434-40.959-33.114
		c-6.154-5.47-13.181-9.599-21.27-11.646c-9.093-2.3-17.444-0.642-25.13,4.704c-21.651,15.059-43.144,30.356-65.057,45.024
		c-11.54,7.724-23.825,14.334-35.786,21.427c-0.673,0.399-1.457,0.61-2.217,1.26c0.839,0.098,1.678,0.195,2.517,0.293
		c0.001,0.124,0.002,0.249,0.003,0.373c-3.69,0-7.38,0-11.069,0c-3.689,0-7.377,0-11.066,0c-0.001-0.179-0.001-0.358-0.002-0.537
		c2.796,0,5.591,0,8.387,0c-0.008-0.082-0.016-0.165-0.024-0.247c-4.547-1.334-9.12-2.587-13.637-4.017
		c-24.777-7.844-47.469-19.604-67.587-36.158c-1.402-1.154-2.743-2.413-3.947-3.77c-2.766-3.118-2.804-6.028-0.149-9.209
		c4.388-5.258,10.144-7.913,16.865-8.606c2.969-0.306,5.948-0.51,8.925-0.725c3.711-0.269,6.145-2.338,7.901-5.446
		c7.589-13.434,15.313-26.794,22.759-40.307c9.048-16.419,22.357-27.914,39.468-35.281c14.842-6.39,29.616-12.939,44.436-19.382
		c3.822-1.662,6.278-4.29,6.949-8.539c1.659-10.499,3.363-20.992,5.144-31.472c0.792-4.661,1.879-9.271,2.716-13.925
		c0.832-4.626-0.579-5.911-5.23-4.884c-7.179,1.586-14.354,3.194-21.525,4.816c-18.746,4.24-37.495,8.469-56.233,12.746
		c-21.635,4.938-43.258,9.922-64.888,14.884c-0.496,0.114-0.999,0.201-1.498,0.301c-6.509,1.299-9.425-0.536-11.012-6.929
		c-0.053-0.212-0.106-0.424-0.157-0.636c-1.123-4.713-3.038-5.697-7.367-3.43c-5.196,2.721-10.543,4.951-16.356,5.885
		c-8.969,1.442-17.172,0.007-23.732-6.836c-4.764-4.969-6.733-11.062-6.095-17.83c0.325-3.451-0.275-6.216-2.285-9.153
		c-4.331-6.33-7.727-13.183-9.096-20.866c-0.095-0.534-0.48-1.017-0.73-1.523C104.232,609.289,104.232,606.665,104.232,604.041z
		 M153.075,325.299c5.24,1.028,10.213,1.54,14.881,3.016c10.052,3.179,19.971,6.787,29.893,10.363
		c3.527,1.271,6.881,1.58,10.378,0.028c14.664-6.506,29.876-11.512,45.15-16.329c19.559-6.169,39.11-12.322,58.195-19.916
		c14.639-5.824,30.008-6.862,45.577-5.124c9.987,1.115,19.942,2.527,29.937,3.554c10.505,1.08,21.078,1.549,31.553,2.842
		c16.971,2.094,33.875,4.734,50.83,6.97c12.699,1.675,25.406,3.409,38.161,4.523c19.931,1.742,39.905,1.002,59.858,0.025
		c1.903-0.093,3.8-0.307,5.931-0.484c-2.318-2.591-4.407-4.908-6.474-7.244c-0.931-1.052-1.155-2.162-0.141-3.324
		c1.025-1.175,2.247-1.687,3.674-0.871c0.871,0.498,1.644,1.192,2.398,1.867c9.776,8.746,19.509,17.54,29.317,26.25
		c9.654,8.575,19.145,17.305,27.266,27.399c1.367,1.698,2.514,3.578,3.939,5.222c0.548,0.633,1.605,1.172,2.395,1.127
		c0.523-0.03,1.207-1.102,1.437-1.828c2.054-6.49,3.137-13.14,3.263-19.961c0.215-11.622-0.807-23.13-2.944-34.547
		c-0.587-3.134,1.008-4.863,4.092-4.442c2.14,0.293,2.553,1.981,2.746,3.673c0.806,7.088,1.671,14.173,2.274,21.28
		c1.22,14.382-0.063,28.484-4.774,42.238c-0.991,2.894-1.218,6.114-1.393,9.207c-0.174,3.091,1.407,5.118,4.27,6.146
		c5.683,2.041,11.365,4.093,17.097,5.989c3.128,1.035,6.359,1.759,9.674,2.66c-0.029-0.643,0.029-0.893-0.058-1.072
		c-4.603-9.477-7.311-19.808-12.998-28.8c-1.595-2.522-1.301-4.618,0.66-6.25c1.726-1.437,3.035-0.943,5.683,0.644
		c6.531,3.913,13.229,7.55,19.909,11.207c1.08,0.591,2.415,0.715,4.018,1.163c0-2.325,0.26-4.232-0.043-6.046
		c-1.655-9.912-3.537-19.786-5.167-29.702c-1.464-8.91-2.785-17.846-4.013-26.792c-0.884-6.435,1.421-8.914,7.883-9.018
		c19.021-0.306,38.043-0.637,57.063-0.973c0.943-0.017,1.891-0.129,2.824-0.274c4.209-0.653,5.493-2.906,3.695-6.809
		c-1.431-3.105-3.061-6.121-4.674-9.138c-4.78-8.94-9.692-17.82-16.439-25.466c-14.058-15.93-29.917-29.612-49.274-38.844
		c-2.349-1.12-3.144-2.571-2.638-4.416c0.62-2.262,2.333-2.737,4.402-2.718c3.275,0.029,6.636,0.463,9.812-0.106
		c11.242-2.012,22.447-4.252,33.609-6.673c3.895-0.845,4.501-3.027,2.453-6.53c-0.404-0.691-0.845-1.364-1.315-2.012
		c-10.153-14.012-23.095-24.606-39.026-31.384c-10.317-4.39-20.687-8.678-31.177-12.63c-14.029-5.285-28.108-10.484-42.887-13.41
		c-2.007-0.397-3.219-1.657-3.478-3.698c-0.269-2.118,0.791-3.497,2.693-4.235c2.168-0.842,4.412-1.495,6.549-2.405
		c22.202-9.451,40.619-24.073,56.761-41.757c2.923-3.203,5.042-6.95,6.283-11.142c0.152-0.512,0.161-1.067,0.26-1.774
		c-1.027,0.079-1.81,0.166-2.596,0.195c-24.035,0.9-48.082,1.549-72.1,2.776c-15.631,0.798-31.235,2.273-46.82,3.771
		c-6.433,0.618-12.785,2.084-19.171,3.178c-1.868,0.32-3.455,0.097-4.482-1.779c-1.015-1.853-0.117-3.175,1.022-4.511
		c6.965-8.165,13.313-16.773,18.643-26.106c0.876-1.534,1.715-3.088,2.875-5.182c-1.359,0.45-2.109,0.656-2.827,0.942
		c-13.38,5.33-26.794,10.577-40.123,16.032c-14.174,5.801-27.852,12.585-40.444,21.398c-1.623,1.136-3.299,1.537-5.072,0.352
		c-1.845-1.232-1.812-3.043-1.37-4.891c0.795-3.321,1.814-6.594,2.489-9.938c3.442-17.059,7.134-34.055,12.33-50.686
		c1.118-3.577,2.322-7.127,3.592-11.014c-3.206,0.668-6.095,1.325-9.005,1.866c-23.3,4.334-44.958,12.99-65.461,24.735
		c-23.208,13.295-43.896,29.986-63.868,47.595c-18.608,16.407-36.041,34.015-52.453,52.627c-4.242,4.81-8.387,9.711-12.753,14.406
		c-3.562,3.83-5.806,3.447-7.438-1.521c-2.039-6.205-4.028-12.5-5.174-18.91c-3.16-17.68-3.848-35.612-4.623-53.52
		c-0.03-0.687-0.004-1.377-0.004-2.44c-0.623,0.467-0.892,0.593-1.056,0.801c-7.164,9.062-13.839,18.481-17.899,29.371
		c-5.516,14.794-10.572,29.76-15.914,44.62c-7.444,20.706-11.654,42.024-12.722,64.007c-0.759,15.623-0.179,31.168,1.746,46.677
		c0.215,1.733,0.424,3.474,0.49,5.216c0.127,3.307-0.987,4.13-4.085,3.133c-0.623-0.201-1.267-0.372-1.849-0.662
		c-6.705-3.344-13.595-6.373-20.054-10.141c-12.19-7.109-21.917-16.783-28.72-29.289c-1.77-3.254-3.929-6.302-6.006-9.379
		c-0.348-0.516-1.194-0.696-1.809-1.032c-0.391,0.754-1.228,1.588-1.108,2.251c2.059,11.448,3.855,22.963,6.488,34.282
		c2.95,12.68,8.015,24.622,15.08,35.618c3.874,6.03,8.929,10.715,15.993,12.845c1.747,0.527,3.362,1.231,3.085,3.544
		c-0.244,2.041-1.497,3.123-3.948,3.289c-1.742,0.118-3.515-0.037-5.234,0.209c-12.444,1.781-23.969,5.947-34.179,13.431
		C155.28,323.519,154.238,324.386,153.075,325.299z M612.831,501.565c4.054-0.353,9.214-0.672,14.336-1.302
		c2.799-0.344,5.584-1.048,8.289-1.875c22.767-6.966,35.537-23.19,41.097-45.526c2.776-11.155,0.152-21.415-8.102-29.846
		c-7.189-7.343-16.308-11.015-26.003-13.586c-3.955-1.049-7.284-0.009-10.262,2.706c-2.421,2.208-4.895,4.37-7.469,6.395
		c-8.975,7.058-19.305,11.528-29.829,15.695c-37.684,14.921-75.818,28.296-116.094,34.477c-14.356,2.203-28.73,3.778-43.304,2.468
		c-13.319-1.197-25.88-4.71-37.589-11.234c-11.513-6.415-23.759-10.319-37.055-10.313c-11.194,0.005-21.725,2.883-31.843,7.542
		c-8.233,3.791-16.905,5.723-25.979,6.106c-12.594,0.532-24.645-2.212-36.46-6.035c-13.086-4.235-26.036-8.894-39.029-13.414
		c-3.555-1.237-4.892-1.122-6.376,1.506c-3.147,5.573-6.425,11.105-9.085,16.913c-4.138,9.033-5.416,18.501-3.043,28.342
		c2.749,11.402,9.835,19.626,18.973,26.382c20.429,15.103,43.651,23.644,68.249,28.898c18.951,4.048,38.1,6.889,57.375,8.78
		c12.967,1.272,25.966,2.499,38.978,2.95c12.506,0.433,25.071,0.269,37.566-0.427c11.462-0.638,22.93-1.919,34.28-3.664
		c17.575-2.703,34.73-7.283,51.486-13.285c16.63-5.957,32.343-13.689,46.092-24.897c5.571-4.541,10.604-9.754,15.764-14.783
		c2.718-2.649,3.66-2.93,7.091-1.469c1.455,0.619,3.029,1.209,4.581,1.308C596.871,500.848,604.289,501.148,612.831,501.565z
		 M699.416,608.72c0.077-1.421,0.031-2.426,0.199-3.394c1.032-5.947,1.944-11.922,3.216-17.819
		c2.152-9.982,4.38-19.948,3.629-30.248c-0.22-3.018-0.758-6.082-1.667-8.962c-1.023-3.238-3.292-4.328-6.673-3.903
		c-6.448,0.81-11.443,4.1-14.604,9.635c-6.641,11.629-13.093,23.371-19.358,35.207c-1.349,2.55-2.169,5.685-2.205,8.563
		c-0.086,6.831,0.362,13.675,0.822,20.498c0.063,0.937,1.292,2.371,2.212,2.584c7.004,1.624,14.009,3.486,21.125,4.315
		c6.648,0.774,12.681-1.354,16.953-7.068c2.358-3.153,3.93-6.649,4.67-10.482c0.578-2.995,0.756-6.031-0.42-9.156
		C703.13,600.644,703.919,606.346,699.416,608.72z M121.136,646.747c-0.206,0.191-0.413,0.382-0.619,0.573
		c0.97,2.043,1.808,4.162,2.934,6.115c3.724,6.457,9.273,9.886,16.839,9.744c7.832-0.147,14.836-3.35,21.882-6.224
		c1.246-0.508,2.595-2.471,2.676-3.835c0.364-6.131-1.393-11.6-6.795-15.165c-5.307-3.503-9.667-7.926-13.487-12.938
		c-6.531-8.571-13.024-17.171-19.572-25.728c-1.056-1.38-2.203-2.734-3.509-3.867c-1.778-1.543-3.788-1.506-5.552,0.018
		c-3.26,2.816-5.339,6.294-5.643,10.7c-0.522,7.553,1.573,14.513,5.581,20.725c3.846,5.962,8.321,11.523,12.608,17.195
		c1.179,1.56,1.5,2.916,0.166,4.482c-1.349,1.584-2.606,0.972-4.008,0.033C123.548,647.847,122.308,647.348,121.136,646.747z
		 M208.15,417.759c-0.361,0.073-0.592,0.07-0.772,0.165c-0.384,0.204-0.747,0.451-1.109,0.693
		c-6.884,4.592-11.459,10.945-13.779,18.811c-2.929,9.93-2.669,19.599,3.612,28.369c1.391,1.942,3.287,3.522,5.258,5.591
		c0.55-1.641,0.898-2.659,1.233-3.68c2.62-7.976,6-15.604,10.433-22.749c2.529-4.076,2.281-4.823-2.18-6.555
		c-3.17-1.231-3.969-3.024-2.723-6.169c0.267-0.675,0.63-1.311,0.927-1.974C210.995,425.924,210.299,421.807,208.15,417.759z"/>
	<path class="st0" d="M345.56,471.369c7.666,0.553,15.134,1.102,22.605,1.622c2.251,0.157,4.508,0.219,6.76,0.35
		c4.833,0.282,7.051,2.509,7.019,7.332c-0.082,12.179-2.897,23.816-7.498,35.01c-2.235,5.44-4.922,10.7-7.553,15.968
		c-0.867,1.735-2.045,3.379-3.352,4.819c-3.763,4.148-9.195,4.999-13.53,1.475c-3.153-2.564-5.835-5.882-8.168-9.251
		c-10.283-14.845-16.602-31.298-19.247-49.16c-0.511-3.448,0.652-5.265,4.263-5.806C333.106,472.793,339.395,472.132,345.56,471.369
		z M350.097,478.878c-0.007,0.147-0.014,0.293-0.021,0.44c-4.299,0-8.603-0.136-12.894,0.038c-4.35,0.176-6.31,2.595-5.745,6.916
		c0.357,2.735,0.829,5.477,1.534,8.142c3.427,12.965,10.586,24.068,17.983,34.978c3.15,4.646,6.745,4.198,9.656-0.806
		c7.49-12.876,11.972-26.817,14.212-41.495c0.639-4.186-0.917-6.337-5.129-6.769C363.18,479.655,356.631,479.342,350.097,478.878z"
		/>
	<path class="st0" d="M658.034,440.346c0.057,14.276-8.729,26.729-23.102,32.829c-7.711,3.273-15.831,4.858-24.029,6.178
		c-1.429,0.23-2.776,0.107-3.64-1.319c-0.953-1.571,0.023-2.767,0.987-3.668c2.76-2.576,5.602-5.076,8.541-7.446
		c4.027-3.248,6.684-7.11,6.178-12.528c-0.142-1.513-0.391-3.054-0.871-4.489c-1.421-4.249-0.552-8.136,1.972-11.59
		c5.153-7.053,12.101-11.277,20.851-12.166c6.924-0.704,11.687,3.201,12.638,10.079
		C657.747,437.596,657.877,438.973,658.034,440.346z M617.789,473.081c0.226,0.226,0.452,0.452,0.678,0.678
		c7.493-2.894,15.578-4.509,22.285-9.117c9.754-6.701,12.608-16.798,12.395-28.049c-0.038-2.009-1.112-3.799-3.115-4.333
		c-1.998-0.532-4.175-0.861-6.217-0.67c-6.099,0.571-10.986,3.753-14.971,8.167c-1.545,1.712-2.453,4.08-3.351,6.272
		c-0.825,2.015-0.255,4.016,1.048,5.756c0.611,0.815,1.3,1.571,1.921,2.38c3.36,4.377,2.934,7.425-1.511,10.71
		c-2.108,1.557-4.339,2.963-6.332,4.653C619.486,470.488,618.72,471.882,617.789,473.081z"/>
</g>
</svg>

