<?xml version="1.0" encoding="utf-8"?>
<!-- Generator: Adobe Illustrator 26.0.0, SVG Export Plug-In . SVG Version: 6.00 Build 0)  -->
<svg version="1.1" id="Layer_1" xmlns="http://www.w3.org/2000/svg" xmlns:xlink="http://www.w3.org/1999/xlink" x="0px" y="0px"
	 viewBox="0 0 6000 6000" style="enable-background:new 0 0 864 864;" xml:space="preserve">
<style type="text/css">
	
	
</style>
<g>
	<path class="st0" d="M784.884,708.055c-0.376-10.651-2.368-21.077-5.352-31.305c-0.201-0.691-0.553-1.338-1.046-2.515
		c-0.49,1.251-0.755,1.948-1.03,2.643c-1.871,4.658-3.578,9.387-5.657,13.947c-2.334,5.121-5.48,9.739-9.853,13.397
		c-3.887,3.256-8.323,4.621-13.394,3.907c-3.846-0.54-7.264-2.13-10.534-4.108c-7.727-4.671-14.169-10.875-20.403-17.294
		c-7.703-7.938-15.238-16.04-22.975-23.948c-4.839-4.946-9.883-9.635-15.731-13.495c-9.692-6.399-19.326-12.918-28.606-19.89
		c-18.807-14.125-36.007-30.085-52.231-47.097c-4.474-4.688-8.81-9.507-13.23-14.249c-0.708-0.758-1.569-1.533-0.929-2.602
		c1.64-2.733,3.411-5.389,5.379-8.464c2.15,5.054,4.172,9.799,6.342,14.9c3.474-4.309,6.093-8.558,8.085-13.193
		c2.056-4.785,2.404-9.839,1.771-15.423c15.088,1.563,29.525,1.231,43.888-4.973c-1.549-0.728-2.539-1.157-3.498-1.65
		c-4.557-2.354-9.195-4.581-13.635-7.14c-3.501-2.019-6.549-4.692-8.793-8.129c-1.14-1.74-2.404-3.488-1.928-6.13
		c17.804-0.983,33.693,5.443,49.978,12.599c-0.54-4.688-1.814-11.288-5.017-18.609c-3.357-7.669-7.582-13.277-10.782-16.902
		c0.634,0.034,1.556,0.097,2.659,0.215c1.382,0.148,7.82,0.734,14.212,3.632c8.421,3.816,15.225,9.675,21.412,16.382
		c0.547,0.587,1.167,1.107,1.975,1.865c0.211-0.858,0.369-1.278,0.409-1.707c0.919-9.37,0.04-18.491-3.458-27.321
		c-2.911-7.344-6.663-17.945-16.888-25.987c-1.432-1.127-2.696-1.975-3.602-2.552c2.911-0.255,6.848-0.909,11.486-2.599
		c0.345-0.127,0.594-0.221,0.741-0.278c1.952-0.758,6.533-2.733,11.375-6.7c6.251-5.117,11.1-11.332,14.906-18.844
		c-1.459,0-2.347-0.02-3.233,0.003c-7.183,0.191-14.289-0.329-21.248-2.244c-10.389-2.861-18.911-8.401-24.997-17.442
		c-1.965-2.921-3.655-6.472-9.719-27.911c-0.245-0.869-0.443-1.576-0.563-2.005c4.853,0.828,11.65,1.462,19.668,0.553
		c7.599-0.858,13.796-2.82,18.23-4.598c-3.749-3.226-7.368-6.03-10.617-9.212c-5.567-5.449-9.212-12.009-10.443-19.816
		c-0.285-1.794,0.057-2.965,1.838-3.749c1.774-0.781,3.424-1.844,5.52-3.005c-7.639-4.229-12.452-9.926-13.998-18.367
		c0.869-0.107,1.294-0.208,1.717-0.205c5.359,0.07,10.735,0.463,16.073,0.178c10.134-0.543,19.484-3.676,27.777-9.651
		c1.305-0.939,2.458-2.093,3.806-3.256c-3.719-3.491-7.167-6.663-10.544-9.906c-3.31-3.182-6.952-6.053-10.255-9.977
		c9.373-2.73,14.652-8.619,16.915-17.7c-1.482-0.218-2.68-0.439-3.883-0.557c-3.112-0.305-6.274-0.315-9.33-0.899
		c-4.477-0.855-9.008-1.741-13.277-3.283c-6.791-2.455-10.144-7.656-9.987-14.306c0.077-3.203,0.298-3.3,3.461-3.508
		c5.671-0.376,11.362-0.704,16.992-1.435c6.238-0.808,12.17-2.82,17.73-5.812c0.734-0.392,1.378-0.956,2.347-1.643
		c-14.762-9.856-27.586-20.986-33.934-38.267c14.155-4.832,26.218-12.016,34.873-24.541c-7.512-6.02-14.782-11.841-22.459-17.992
		c13.864-9.286,22.811-21.593,27.573-37.64c-3.253,1.932-8.863,4.708-16.375,5.835c-7.123,1.066-13.012,0.211-16.63-0.604
		c6.224-6.606,15.527-18.136,22.056-34.847c5.902-15.111,7.217-28.525,7.388-37.238c-4.108,4.091-10.647,9.678-19.87,14.269
		c-9.055,4.511-17.304,6.372-22.992,7.203v-8.873c-9.859-0.181-19.306,0.064-29.152-0.178c1.519-13.582-0.644-26.191-5.185-39.002
		c-5.906,5.506-12.338,12.311-18.632,20.591c-3.679,4.836-6.831,9.541-9.534,13.988c-9.849-7.623-20.755-12.183-32.841-14.46
		c1.992-3.33,4.165-6.191,5.493-9.4c1.345-3.253,2.2-6.808,2.643-10.309c0.436-3.468,0.094-7.032,0.094-11.023
		c-1.673,1.11-2.924,1.989-4.219,2.793c-7.317,4.551-15.46,6.395-23.907,6.821c-6.244,0.315-12.519,0.215-18.773,0.05
		c-11.506-0.305-35.494-0.208-36.517-0.423c2.867-3.927,4.125-8.072,4.638-12.405c0.503-4.229,1.16-8.495,0.329-13.035
		c-7.971,4.35-16.04,7.592-24.568,9.541c-6.529,1.489-13.119,2.716-19.692,4.007c-11.271,2.21-20.748,7.408-27.891,16.563
		c-0.436,0.56-1.087,0.949-1.64,1.422c-0.459-0.389-0.765-0.56-0.949-0.815c-5.929-8.146-14.092-12.931-23.656-15.436
		c-5.282-1.385-10.674-2.354-16.013-3.525c-9.226-2.026-18.129-4.853-25.893-10.49c-0.506-0.369-1.117-0.59-1.912-1.003
		c-1.794,8.816-2.156,17.217,2.669,25.45c-1.251,0-1.895,0.05-2.529-0.01c-4.329-0.389-8.659-1.103-12.992-1.15
		c-11.623-0.131-23.247,0.107-34.87,0.037c-11.905-0.07-22.881-3.498-33.049-9.628c-0.721-0.436-1.492-0.785-2.602-1.362
		c0.902,12.237,2.019,23.927,9.514,34.344c-12.747,2.347-23.626,7.452-33.176,15.799c-8.126-11.902-16.027-23.475-24.122-35.333
		c-7.374,11.181-8.176,23.565-9.065,36.195h-29.072c0.121,3.994,1.546,7.884,1.569,12.549c-15.416-8.508-30.212-16.677-45.33-25.021
		c-0.05,1.137-0.121,1.781-0.101,2.418c0.044,1.341,0.074,2.686,0.221,4.014c1.351,12.291,5.631,23.622,11.365,34.461
		c5.496,10.386,11.885,20.218,18.612,29.84c0.449,0.647,0.755,1.395,1.482,2.763c-12.495-2.002-24.219-3.877-36.339-5.818
		c6.221,16.261,16.563,28.82,29.991,39.33c-7.374,6.305-14.39,12.301-21.59,18.458c3.109,3.058,5.839,6.02,8.853,8.652
		c6.342,5.543,13.404,10.027,20.946,13.776c3.243,1.61,3.229,1.717,1.747,5.087c-2.549,5.785-6.033,10.933-10.403,15.507
		c-5.597,5.859-11.999,10.694-18.78,15.071c-0.899,0.58-1.767,1.207-2.954,2.015c1.12,0.59,1.861,1.026,2.639,1.385
		c11.181,5.138,22.921,8.035,35.202,8.786c1.284,0.077,2.559,0.319,4.219,0.533c-0.537,1.704-0.808,3.005-1.345,4.185
		c-1.533,3.36-4.085,5.815-7.207,7.727c-5.832,3.572-12.341,5.134-18.958,6.321c-3.669,0.661-7.371,1.13-11.365,1.734
		c5.701,6.788,11.144,13.267,16.791,19.994c-6.61,6.995-13.096,13.86-19.538,20.681c0.225,0.379,0.298,0.607,0.456,0.751
		c0.241,0.225,0.537,0.396,0.812,0.583c17.1,11.677,24.434,9.672,24.434,9.672s9.863,1.875,20.916,1.523
		c0.154-0.007,1.254-0.047,2.747-0.02c0.724,0.01,1.318,0.037,1.694,0.054c-2.877,3.427-5.761,6.902-8.655,10.423
		c-2.726,3.32-5.413,6.623-8.059,9.913c4.242,0.949,7.918,1.774,11.945,2.673c-0.225,1.224-0.248,2.347-0.641,3.32
		c-1.04,2.579-2.059,5.195-3.411,7.613c-2.857,5.101-6.64,9.521-10.728,13.676c-2.391,2.435-4.812,4.832-7.539,7.569
		c9.665,1.013,18.837,1.999,28.012,2.928c2.881,0.292,3.28,0.48,3.4,3.39c0.164,3.897,0.412,7.827,0.084,11.694
		c-1.15,13.612-8.159,23.062-20.778,28.347c-8.038,3.367-16.483,4.765-25.121,5.252c-2.954,0.168-5.906,0.372-9.41,0.594
		c4.832,7.059,10.326,12.663,16.526,17.636c6.274,5.034,13.414,8.568,21.248,11.875c-9.132,7.515-15.473,16.278-18.632,27.103
		c-3.095,10.614-3.24,21.379-1.502,32.291c4.447-4.497,8.528-8.934,12.941-13.008c4.802-4.43,10.255-7.941,16.744-9.457
		c1.529-0.355,3.115-1.06,5.114-0.208c-8.015,10.738-10.953,23.015-12.948,36.295c1.147-0.704,1.683-1.076,2.257-1.375
		c6.238-3.243,12.375-6.71,18.76-9.638c6.734-3.085,13.8-5.265,21.379-4.678c1.821,0.141,3.612,0.667,5.621,1.056
		c-0.594,3.008-2.143,4.923-3.863,6.61c-6.217,6.083-14.269,7.831-22.908,9.115c11.15,13.28,25.051,15.225,40.836,11.177
		c1.754,11.57,5.322,21.724,16.238,27.774c1.67-4.537,3.219-8.756,4.94-13.431c1.667,1.506,2.874,2.592,4.353,3.927
		c-2.072,3.273-3.92,6.442-6.01,9.45c-7.25,10.443-16.047,19.528-25.738,27.66c-12.066,10.124-24.394,19.943-36.761,29.699
		c-15.53,12.257-31.007,24.578-45.511,38.046c-8.679,8.059-16.986,16.52-25.618,24.632c-6.365,5.976-13.112,11.476-21.235,15.037
		c-8.196,3.595-15.091,1.995-20.52-5.047c-1.288-1.67-2.431-3.488-3.394-5.366c-2.924-5.704-4.692-11.811-6.016-18.062
		c-0.278-1.311-0.63-2.612-0.946-3.917c-0.245,0.007-0.49,0.013-0.734,0.02c-1.472,3.112-3.095,6.164-4.39,9.35
		c-4.363,10.708-5.778,21.788-3.32,33.153c3.109,14.37,11.261,25.453,23.361,33.488c17.884,11.875,37.469,14.145,58.087,9.259
		c3.669-0.869,7.247-2.13,11.234-3.323c0.241,1.268,0.496,2.421,0.677,3.585c0.617,3.967,1.066,7.965,1.834,11.898
		c3.105,15.916,8.867,30.879,16.707,45.028c7.019,12.666,15.282,24.431,25.976,34.344c4.614,4.279,9.521,8.129,15.352,10.631
		c3.115,1.335,6.415,2.451,9.755,1.425c6.231-1.915,11.181-5.45,13.619-11.878c0.476-1.258,1.459-2.565,2.572-3.303
		c9.886-6.543,20.131-12.462,31-17.24c0.969-0.426,2.163-0.681,3.199-0.563c6.871,0.768,13.723,1.724,20.597,2.502
		c13.444,1.523,26.909,2.492,40.45,1.234c12.086-1.12,23.233-4.631,32.442-12.831c4.997-4.45,9.772-9.172,14.43-13.984
		c9.34-9.645,18.984-18.941,29.659-27.117c0.852-0.651,1.777-1.207,2.928-1.979c6.845,5.781,13.615,11.261,20.111,17.056
		c7.67,6.841,15.061,13.994,22.64,20.94c12.136,11.114,26.583,16.536,42.922,17.143c9.514,0.352,18.988-0.292,28.394-1.67
		c8.498-1.247,16.966-2.73,25.433-4.199c2.002-0.349,3.783,0.114,5.513,0.905c6.194,2.83,12.395,5.651,18.522,8.622
		c2.401,1.167,4.604,2.737,6.902,4.115c1.549,0.932,2.2,2.223,2.418,4.091c0.292,2.518,0.865,5.084,1.801,7.438
		c4.132,10.393,13.84,14.279,24.098,9.853c3.971-1.71,7.321-4.272,10.329-7.314c5.718-5.785,10.044-12.532,13.605-19.803
		c1.271-2.599,2.388-5.258,4.527-7.368c2.384-2.351,4.648-4.829,6.841-7.364c7.113-8.22,13.635-16.841,18.012-26.909
		c3.722-8.558,5.62-17.398,4.42-26.754c-0.305-2.381-0.644-4.759-0.983-7.24c1.311,0,2.301-0.067,3.28,0.01
		c5.111,0.416,10.211,1.11,15.332,1.258c10.939,0.322,21.895,0.604,32.747-1.388c8.746-1.606,17.116-4.182,24.662-9.075
		c6.965-4.521,12.083-10.611,15.252-18.226C784.116,724.376,785.169,716.264,784.884,708.055z M607.854,602.11
		c10.966,11.077,21.738,21.077,32.08,30.074c-1.898,0.01-4.648-0.003-7.955-0.148c-6.952-0.298-28.954-2.223-56.406-12.495
		c-20.416-7.639-39.015-18.28-54.669-33.643c-16.657-16.348-27.871-35.886-33.77-58.452c-1.325-5.07-2.388-10.215-3.504-15.339
		c-0.496-2.287-0.278-2.609,1.962-3.474c4.37-1.694,8.733-3.414,13.153-4.98c1.211-0.433,2.629-0.62,3.907-0.476
		c11.097,1.244,21.738,3.947,31.272,10.081c4.568,2.938,8.337,6.68,11.556,11.05c1.261,1.707,1.445,3.219,0.728,5.245
		c-4.004,11.301-10.456,20.926-19.336,28.948c-0.654,0.587-1.291,1.194-2.448,2.267c7.965,0.412,15.114-0.688,22.117-2.871
		c7.23-2.257,13.203-6.405,18.012-12.955c0.899,1.174,1.63,1.945,2.15,2.841c3.209,5.51,3.471,11.516,2.401,17.552
		c-0.808,4.561-2.2,9.018-3.501,14.192c4.625-3.058,8.847-5.852,13.34-8.823C587.612,580.835,597.227,591.375,607.854,602.11z
		 M500.813,672.625c-0.013-1.707,0.798-2.378,2.465-2.374c3.457,0.003,6.918-0.017,10.372-0.158
		c1.858-0.074,3.702-0.423,5.929-0.691c0.319,4.594,0.614,8.853,0.932,13.461c-6.563,1.75-13.122,3.501-19.685,5.255
		C500.84,687.843,500.813,672.625,500.813,672.625z M518.808,663.111c-2.918,0.698-5.939,1.12-8.934,1.278
		c-11.325,0.604-22.539-0.667-33.723-2.264c-15.034-2.143-30.061-4.339-45.092-6.506c-6.63-0.956-13.263-1.878-19.89-2.84
		c-0.627-0.091-1.231-0.356-2.508-0.734c1.13-0.845,1.603-1.305,2.163-1.603c18.404-9.749,35.732-21.208,52.694-33.227
		c3.712-2.633,7.341-4.806,12.076-5.04c5.567-0.275,11.094-1.254,16.657-1.586c14.849-0.889,29.709-0.51,44.565-0.02
		c1.881,0.064,3.756,0.372,5.771,0.58c0.07,0.942,0.228,1.704,0.168,2.448c-0.768,9.35-1.482,18.709-4.088,27.781
		c-0.674,2.354-1.469,4.688-2.415,6.945C532.953,656.189,527.061,661.129,518.808,663.111z M494.746,686.958
		c0.003,1.68-0.543,2.669-2.398,2.961c-8.706,1.365-26.962,4.266-27.925,4.266c-0.044-9.467-0.087-18.937-0.131-28.404
		c0.278,0.208,19.015,2.71,27.422,3.786c2.609,0.332,3.055,0.614,3.072,2.975C494.823,677.346,494.739,682.152,494.746,686.958z
		 M422.015,673.694c-0.017-0.486-0.04-0.771-0.077-0.771h-10.503l0.007-0.607l0.174-14.749c14.206,2.257,28.471,4.521,42.593,6.764
		c0.121,4.866,0.195,9.809,0.225,14.833c0.034,5.49,0.01,10.886-0.067,16.188c-14.219,1.284-28.525,1.707-43.2,0.117l0.111-9.366
		h10.661C421.938,686.103,422.112,676.515,422.015,673.694z M398.248,650.283c-10.983,5.56-22.288,10.329-34.397,12.857
		c-3.699,0.771-7.495,1.08-11.244,1.6c-7.301-0.228-14.001-1.888-19.645-6.71c-4.956-4.236-7.589-9.849-9.209-15.996
		c-2.012-7.643-2.217-15.443-1.771-23.284c0.111-1.895,0.339-3.786,0.372-5.681c0.034-1.955,0.714-3.377,2.492-4.37
		c1.945-1.086,3.732-2.455,5.667-3.561c1.036-0.597,2.203-1.073,3.374-1.318c9.273-1.935,18.632-3.504,27.831-5.741
		c27.425-6.67,54.421-14.863,81.32-23.388c0.956-0.302,1.922-0.577,2.864-0.926c1.214-0.449,2.166-0.134,2.968,0.845
		c4.796,5.872,9.812,11.586,14.299,17.687c1.999,2.716,2.948,6.207,4.333,9.366c0.899,2.039,0.292,3.511-1.563,4.819
		c-4.745,3.343-9.346,6.895-14.058,10.285C434.735,629.109,417.129,640.723,398.248,650.283z M401.622,692.166
		c-0.124,2.18-0.496,2.559-2.663,2.257c-4.195-0.587-8.397-1.17-12.562-1.928c-4.494-0.815-8.957-1.794-13.421-2.77
		c-2.482-0.54-2.693-0.818-2.706-3.384c-0.013-2.153-0.02-4.306-0.02-6.459v-0.406c0-3.068,0.013-6.134,0.03-9.202
		c0.013-2.713,0.054-2.713,2.572-3.468c8.666-2.602,27.16-10.47,28.515-10.882C401.478,657.416,401.642,691.83,401.622,692.166z
		 M364.85,675.881v5.574c-0.04,1.885-0.121,3.779-0.268,5.691c-6.278-1.841-12.559-3.682-18.837-5.527
		c-0.402-0.117-0.805-0.235-1.207-0.352l0.03-1.375l0.231-9.41c2.217-0.107,6.016-0.298,9.853-0.493
		c3.833-0.191,7.703-0.386,10.061-0.506C364.763,671.625,364.817,673.751,364.85,675.881z M321.55,473.341
		c-32.124-24.622-42.154-62.735-46.949-80.958c-4.604-17.495-7.069-38.032-7.723-43.479c-1.305-10.879-1.942-20.051-2.28-26.677
		c2.891,3.558,5.781,7.116,8.669,10.674c0.869,1.15,1.737,2.304,2.609,3.451c1.764,2.321,2.498,4.826,2.438,7.79
		c-0.235,11.888,0.801,23.659,3.971,35.168c3.709,13.468,10.071,25.292,21.432,33.924c7.924,6.016,16.959,9.403,26.748,10.741
		c14.937,2.042,29.635,0.399,44.179-3.193c0.195-0.047,0.352-0.144,0.352-0.144c0.211-0.127,0.359-0.312,0.466-0.51
		c-1.673,0.094-4.185,0.221-7.237,0.335c-15.584,0.577-23.347,0.637-30.799-0.231c-10.741-1.254-20.715-4.514-28.904-12.012
		c-5.986-5.48-9.947-12.287-12.968-19.709c-3.35-8.22-5.409-16.818-6.573-25.564c-1.134-8.515-1.59-17.12-2.324-25.688
		c-0.074-0.855-0.01-1.724-0.01-2.75c1.797-0.345,3.297-0.704,4.819-0.916c14.068-1.952,28.173-3.343,42.409-2.867
		c6.962,0.231,13.796,1.261,20.426,3.347c12.344,3.883,21.013,12.157,26.449,23.632c3.86,8.152,6.949,16.677,10.315,25.061
		c1.603,3.987,3.055,8.035,4.812,11.986c0.516-9.662-0.194-19.172-2.16-28.589c-1.66-7.931-4.309-15.5-8.484-22.462
		c-7.613-12.7-18.8-20.711-32.955-24.685c-12.338-3.464-24.897-3.773-37.56-2.492c-11.811,1.194-23.401,3.494-34.84,6.657
		c-1.06,0.292-2.495,0.198-3.454-0.302c-0.134-0.07-0.265-0.141-0.396-0.211l-11.942-8.059l-0.332-4.973
		c0.114-5.272,0.218-10.55,0.573-15.809c0.889-13.236,4.007-25.99,9.138-38.787c-3.015,0.325-5.691,0.614-8.431,0.912
		c0.594-2.314,10.59-17.462,13.508-20.527c0.409,0.49,0.899,0.912,1.177,1.442c7.254,13.743,16.741,25.849,27.234,37.218
		c2.881,3.119,5.869,6.14,8.78,9.232c1.103,1.174,2.374,1.878,3.981,2.24c27.677,6.244,51.212,19.96,71.326,39.766
		c3.957,3.893,7.703,7.998,12.016,12.499c-0.698-4.474-1.211-8.407-1.935-12.301c-3.035-16.328-10.46-30.584-21.053-43.19
		c-8.193-9.752-16.761-19.186-25.151-28.77c-10.336-11.808-19.578-24.39-27.097-38.197c-0.258-0.473-0.573-0.916-1.311-2.072
		c-2.83,13.022-5.473,25.195-8.216,37.814c-4.621-1.67-8.642-3.991-12.824-5.922c-4.259-1.969-8.471-4.031-12.7-6.067
		c-4.192-2.019-8.377-4.054-12.78-6.184c0.902-1.512,1.613-2.7,2.508-4.202c-4.598-0.148-8.853,0.523-13.186-0.245
		c12.921-8.582,26.245-16.312,39.696-24.762c-3.112-0.949-5.688-1.73-8.263-2.515c0.013-0.295,0.023-0.594,0.037-0.889
		c9.323-2.354,18.753-4.299,28.562-6.64c-1.801-1.311-3.602-2.626-5.403-3.94c4.993-0.755,10.024-1.543,15.094-2.368
		c7.27-1.18,14.44-2.408,21.513-3.672c-0.983-0.989-7.985-5.557-7.985-5.557l28.971,0.771c1.553,0.074,3.105,0.148,4.658,0.205
		c5.55,0.215,11.104,0.426,16.784,0.644l-1.549-8.776c0,0,21.285,8.867,28.639,12.076c1.885,0.822,3.501,0.885,5.416,0.06
		c9.021-3.887,29.166-12.261,30.822-12.928c-0.694,1.476-3.055,7.74-3.454,9.088c15.403-0.527,30.336-1.036,45.836-1.569
		c-0.815,1.298-5.322,7.066-6.469,8.253c5.624-0.309,11.328-0.577,17.103-0.805c5.674-0.225,11.278-0.402,16.811-0.54
		c-0.848,2.451-1.482,4.276-2.257,6.503c10.252,2.009,20.346,3.984,31.275,6.124c-2.589,2.498-4.614,4.453-6.965,6.724
		c11.375,7.955,22.64,15.832,34.464,24.098c-3.689,1.006-6.781,0.701-10.097,1.066c0.58,1.194,1.08,2.223,1.791,3.686
		c-12.271,5.996-24.444,11.952-37.201,17.968c-3.166-12.576-5.446-25.007-8.535-37.704c-0.59,0.828-1.013,1.298-1.298,1.841
		c-7.25,13.843-16.516,26.272-26.687,38.063c-8.612,9.98-17.458,19.762-25.869,29.91c-8.266,9.973-14.578,21.131-18.173,33.669
		c-0.952,3.32-1.754,6.694-2.394,10.084c-0.634,3.364-0.979,6.784-1.566,10.979c1.174-1.17,1.811-1.73,2.361-2.361
		c9.376-10.741,19.803-20.299,31.55-28.421c14.88-10.285,31.111-17.479,48.697-21.624c1.831-0.433,3.307-1.201,4.594-2.515
		c12.314-12.566,23.8-25.789,32.757-41.03c1.073-1.824,2.129-3.662,3.216-5.48c0.101-0.168,0.362-0.238,0.932-0.59
		c5.091,7.187,10.191,14.393,15.295,21.6c-0.141,0.235-7.052-0.362-10.601-0.932c1.559,6.657,4.474,19.437,7.344,34.565
		c0,0,0.916,4.842,2.032,21.442c0,0-0.097,1.254-0.121,3.011c-0.023,1.851-0.869,2.985-2.532,3.92
		c-7.297,4.105-7.257,4.128-15.269,1.844c-17.837-5.087-35.93-8.327-54.569-6.751c-16.909,1.429-31.688,7.408-42.583,21.06
		c-7.016,8.79-9.708,17.197-11.724,23.891c-2.079,6.905-4.5,17.911-3.83,31.869c0.386-0.818,0.959-2.029,1.64-3.498
		c8.186-17.676,8.951-21.409,12.941-30.165c3.266-7.166,7.797-13.535,14.038-18.552c5.154-4.142,11.03-6.667,17.408-8.246
		c10.46-2.592,21.094-2.522,31.664-1.616c10.108,0.865,20.141,2.596,30.202,3.974c0.973,0.134,1.915,0.483,3.176,0.808
		c-0.094,1.392-0.188,2.683-0.265,3.977c-0.748,12.177-2.461,24.209-5.587,36.004c-2.559,9.668-6.164,18.89-12.428,26.875
		c-6.167,7.861-14.189,12.821-23.787,15.326c-5.865,1.529-11.845,2.217-17.901,2.304c-8.951,0.124-17.878-0.198-26.768-1.268
		c-1.432-0.171-2.874-0.235-4.443,0.03c0.724,0.278,1.429,0.634,2.176,0.825c9.766,2.485,19.652,4.303,29.742,4.554
		c11.399,0.282,22.583-1.056,32.851-6.415c3.823-1.999,7.27-4.735,10.818-7.23c1.251-0.879,2.297-2.042,3.602-3.226
		c-0.335,3.525-8.753,13.511-20.161,24.142c4.356,0.218,9.058,0.288,14.068,0.127c5.607-0.181,10.825-0.627,15.597-1.221
		c-0.205,0.315-0.56,0.862-0.993,1.546c-3.967,6.258-5.329,9.467-9.028,15.661c-1.204,2.019-2.431,4.021-3.702,5.996
		c-2.203,3.427-5.061,6.59-8.156,9.252c-16.942,14.578-35.343,26.962-55.836,36.064c-12.291,5.46-25.031,9.427-38.281,11.912
		c-16.543,3.105-33.113,3.32-49.699,0.932c-22.73-3.273-38.696-10.215-56.829-18.317
		C338.921,483.955,330.289,480.038,321.55,473.341z M352.348,498.12c-4.675,0.996-10.721,2.773-17.284,6.08
		c-7.341,3.699-12.784,8.028-16.462,11.439c-0.936-6.871-1.741-14.102-2.368-21.671c-0.486-5.919-0.828-11.643-1.053-17.173
		C328.585,487.798,342.097,494.291,352.348,498.12z M599.645,325.923c-1.006,7.854-2.716,16.972-5.637,26.912
		c-2.646,9.011-5.751,16.895-8.813,23.569c0-0.553,4.081-22.207,4.065-32.734c0-0.6,0.188-2.545,0.962-4.983
		c0,0,0.604-1.898,1.626-3.81C594.209,330.457,598.223,327.067,599.645,325.923z M548.906,517.108
		c-3.675-2.968-7.106-6.258-11.036-8.766c-3.91-2.495-8.193-4.544-12.546-6.171c-4.443-1.663-9.169-2.572-13.773-3.813
		c-0.094-0.235-0.188-0.473-0.285-0.711c12.841-6.65,24.813-14.635,36.299-23.448C550.683,480.471,552.165,509.921,548.906,517.108z
		 M446.194,517.359c0.211-0.017,0.419-0.037,0.627-0.057c9.833-0.949,18.22-2.773,24.813-4.598c0.191-0.054,0.382-0.107,0.57-0.161
		c-0.04,0.057-0.077,0.111-0.117,0.168c-1.177,2.508-8.914,18.337-25.691,24.202c-0.003-0.456-0.007-0.909-0.013-1.365
		c-0.044-4.557-0.094-9.118-0.141-13.676v-0.094C446.224,520.307,446.211,518.832,446.194,517.359z M434.969,523.161v-0.037
		c-0.013-1.724-0.027-3.447-0.044-5.168c0.208,0,0.416-0.003,0.62-0.007c1.791-0.034,3.545-0.097,5.258-0.195l0.419,15.664
		l0.131,4.883c-2.066,0.419-4.155,0.667-6.254,0.751c-0.003-0.463-0.007-0.922-0.01-1.385v-0.044
		C435.05,532.802,435.01,527.98,434.969,523.161z M428.615,517.909v20.893c-2.19-0.258-4.373-0.684-6.526-1.278l0.03-2.794v-0.037
		l0.181-16.771l0.003-0.342c0.121,0.01,0.241,0.017,0.362,0.027c1.704,0.124,3.447,0.218,5.228,0.278
		C428.132,517.896,428.373,517.903,428.615,517.909z M416.82,517.071l-0.007,16.965v1.683c-10.5-4.306-19.94-12.592-26.013-23.994
		l0.473,0.121h0.003C397.987,513.865,406.625,515.931,416.82,517.071z M389.868,520.938c6.194,7.126,13.052,13.485,21.164,18.384
		c6.409,3.87,13.327,6.284,20.856,6.57c8.806,0.335,16.677-2.602,23.958-7.307c7.395-4.779,13.498-10.973,19.015-17.777
		c0.751-0.929,1.509-1.851,2.706-3.32c1.952,7.354,3.478,14.138,5.58,20.738c2.083,6.543,4.745,12.901,7.331,19.806h-25.698v15.031
		c0.919,0.104,22.724,0.352,32.777,0.285c1.65-0.01,2.636,0.533,3.585,1.858c7.619,10.621,16.721,19.762,27.499,27.197
		c0.456,0.315,1.392,1.439,1.479,1.958c-0.674,0.067-9.668-0.463-13.454-0.51c-2.213-0.027-3.464-0.832-4.417-2.783
		c-2.368-4.849-5.46-9.205-9.4-12.935c-7.609-7.207-16.925-10.208-27.117-10.775c-4.329-0.238-8.699,0.114-13.042,0.366
		c-1.573,0.094-2.663-0.231-3.87-1.335c-3.364-3.065-6.928-5.909-10.205-8.666c-1.479,0.526-2.629,0.932-3.981,1.412
		c1.18-1.777,1.871-3.91,1.871-6.204c0-6.204-5.027-11.231-11.231-11.231c-6.201,0-11.231,5.027-11.231,11.231
		c0,4.906,3.152,9.078,7.539,10.604c-0.553,0.148-1.157,0.315-1.808,0.496c-2.089,0.583-37.342,10.775-41.815,12.066
		c-1.405,0.406-2.485,0.429-3.491-0.952c-4.51-6.194-9.856-11.543-16.345-15.685c-0.168-0.107-0.241-0.366-0.597-0.942
		c10.091-15.155,16.285-32.066,18.854-50.481C388.406,518.453,388.986,519.925,389.868,520.938z M506.131,603.535
		c-5.446,0.543-10.849,0.892-16.188,1.667c-5.258,0.761-10.456,1.955-16.006,3.025c-0.939-9.269-3.87-17.673-9.524-25.437
		C478.807,579.604,501.745,591.137,506.131,603.535z M379.824,588.075c-12.287,3.411-24.065,6.026-36.567,8.226
		c1.563-2.824,3.877-4.028,5.56-5.815c1.757-1.868,3.665-3.595,5.429-5.456c1.767-1.861,3.481-3.776,5.144-5.731
		c1.65-1.938,3.209-3.957,4.886-6.036C371.447,576.076,375.364,581.928,379.824,588.075z M576.827,453.562
		c-2.311,8.273-7.254,24.145-7.519,24.182c-2.488-4.796-4.977-9.591-7.515-14.477c2.79-2.871,5.735-5.453,8.119-8.474
		c2.404-3.052,4.383-6.469,6.311-9.859c0.483-0.845,1.11-1.928,1.774-3.095c0.553-0.973,1.137-2.005,1.68-3.008
		c0.547-1.003,1.053-1.975,1.466-2.83c0.379-0.701,0.758-1.405,1.137-2.106c0.389,1.663,0.778,3.327,1.17,4.99h0.003
		c0.875,3.729,1.751,7.462,2.633,11.194c1.214,5.154,2.435,10.309,3.659,15.463C589.49,465.692,581.294,457.65,576.827,453.562z
		 M660.199,416.764c7.804,9.749,18.116,14.943,30.329,16.667c1.214,0.171,2.428,0.379,3.649,0.47
		c1.077,0.08,2.163,0.017,4.142,0.017c-1.073,1.462-1.539,2.284-2.176,2.938c-4.269,4.386-9.42,7.549-14.883,10.128
		c-5.651,2.669-11.472,4.963-17.224,7.415c-0.711,0.302-1.435,0.577-2.438,0.976c0.704,0.664,1.217,1.197,1.781,1.673
		c8.598,7.247,16.509,15.148,21.738,25.225c3.068,5.919,5.429,13.572,5.55,13.961c0.429,1.375,0.758,2.535,0.983,3.357
		c-4.386-2.951-8.401-4.839-11.449-6.053c-4.786-1.905-8.689-2.733-11.55-3.347c-3.806-0.815-7.713-1.217-11.593-1.65
		c-3.961-0.443-7.941-0.701-12.69-1.103c8.176,8.26,14.068,17.116,17.217,28.495c-8.441-2.656-16.221-5.248-24.343-6.445
		c-8.203-1.211-16.389-1.365-24.987-0.044c1.17,5.792,3.29,10.795,6.764,15.034c3.441,4.205,7.364,8.015,11.271,12.207
		c-0.396,0.298-0.909,0.828-1.529,1.127c-4.4,2.099-9.095,2.26-13.786,1.663c-3.085-0.392-6.107-1.298-9.155-1.985
		c-1.459-0.325-2.18-1.264-2.612-2.706c-2.27-7.589-4.705-15.131-6.908-22.74c-0.409-1.415-0.309-3.132,0.044-4.591
		c2.73-11.311,4.742-22.754,5.426-34.36c0.406-6.898,0.057-13.843,0.047-20.768v-2.797c11.311,2.287,22.096,3.712,33.666,2.663
		c-6.533-8.867-12.787-17.348-19.263-26.134c14.112-10.55,24.615-23.508,30.326-40.33c0.255,0.647,0.6,1.274,0.744,1.942
		C649.569,398.266,653.345,408.199,660.199,416.764z M615.108,343.791c-0.013-0.979,0.127-1.958,0.208-3.095
		c10.302-2.015,20.852,2.965,25.316,14.061c3.243,8.069,3.434,16.399,1.771,24.712c-3.31,16.556-11.758,29.994-25.46,40.008
		c-0.899,0.657-1.851,1.248-2.807,1.821c-0.265,0.161-0.634,0.151-1.056,0.238c-1.781-1.412-2.515-3.193-2.317-5.52
		c0.795-9.46,1.502-18.927,2.254-28.391C614.169,373.037,615.349,358.449,615.108,343.791z M673.406,371.213
		c0.386,0.369,0.674,0.838,1.214,1.519c-0.828,0.416-1.432,0.899-2.103,1.03c-8.022,1.533-15.953,0.57-24.189-0.718
		c0.241-3.471,0.201-8.468-1.187-14.249c-1.482-6.164-3.927-10.865-5.828-13.914c1.932,0.023,3.491-0.01,4.494-0.04
		c3.907-0.121,7.817-0.154,11.727-0.258c2.626-0.07,2.72,0.01,3.538,2.498c1.214,3.702,2.344,7.445,3.753,11.073
		C666.742,363.097,669.552,367.51,673.406,371.213z M616.785,145.154c-3.917,5.356-8.501,9.987-12.864,14.813
		c-4.406,4.876-8.83,9.735-13.059,15.242c5.557-0.426,11.11-0.855,16.915-1.301c-0.168,3.337-2.686,5.503-3.327,8.632
		c12.643,3.354,25.105,2.659,37.586-1.549c-1.147,4.568-8.967,13.236-17.737,19.883c-7.136,5.406-14.917,9.745-23.746,13.833
		c2.012,0.255,3.27,0.473,4.537,0.563c7.016,0.496,14.031,1.04,21.053,1.388c2.217,0.107,3.35,1.087,4.346,2.954
		c5.959,11.171,12.737,21.798,21.339,31.161c10.919,11.888,24.367,19.383,40.058,22.952c2.22,0.506,4.433,1.03,6.69,1.918
		c-8.199,6.754-17.593,10.959-27.341,14.44c-9.786,3.494-19.866,5.852-30.494,7.247c3.823,15.584,10.282,29.223,22.942,39.77
		c-1.187,0.516-1.828,0.926-2.525,1.08c-7.817,1.744-15.755,1.704-23.693,1.455c-0.946-0.03-1.995-0.419-2.797-0.946
		c-5.091-3.357-10.701-4.299-16.657-3.84c-0.869,0.067-1.744,0.01-2.921,0.01c-0.644-4.075-1.271-8.048-1.895-12.022
		c-2.85,39.122-5.131,78.164-7.68,117.853c-7.814-3.39-15.007-6.509-22.324-9.682c2.864-3.759,13.27-16.892,13.924-17.489
		c-4.346,2.515-10.131,5.346-17.251,7.549c-7.049,2.183-13.36,3.119-18.337,3.504c5.446-4.836,12.7-12.157,19.598-22.351
		c1.523-2.247,3.934-5.909,6.395-10.604c5.413-10.309,8.468-20.43,11.727-32.439c3.427-12.629,5.651-25.5,7.113-38.512
		c0.258-2.311,0.439-10.211-0.466-20.745c-1.294-15.067-4.407-27.415-7.2-36.228c2.002,0.362,4.537,0.641,7.462,0.543
		c2.72-0.091,5.071-0.48,6.955-0.922c-7.002-10.074-13.713-19.736-20.705-29.793c3.682-1.811,7.596-2.217,11.654-3.91
		c-6.301-4.628-12.663-8.598-18.844-12.824c-6.157-4.209-12.338-8.38-18.709-12.71c1.834-3.125,3.504-5.973,5.346-9.112
		c-10.557-2.156-20.795-4.249-31.503-6.435c0.952-2.874,1.804-5.439,2.78-8.387c-10.091,0.366-20.185,0.731-30.276,1.1
		c5.393-2.274,11.094-4.521,17.09-6.7c5.875-2.133,11.573-4.034,17.059-5.728c-24.39,1.227-48.247,2.428-71.99,3.622
		c-0.174-0.446,45.789-32.583,46.198-33.25c-27.834,11.774-55.672,23.545-83.506,35.319c0.047-0.433,0.121-1.073,0.221-1.848
		c0.644-5.027,2.814-23.327,11.573-38.867c6.365-11.291,15.071-20.574,25.433-28.163c10.808-7.921,22.006-15.312,33.069-22.881
		c11.727-8.022,23.173-16.389,33.237-26.493c0.298-0.302,0.701-0.5,1.288-0.905c0.309,0.714,0.664,1.248,0.775,1.824
		c1.247,6.657-0.044,13.136-1.657,19.531c-2.767,10.976-7.106,21.375-12.066,31.527c-0.929,1.898-1.854,3.796-3.035,6.211
		c21.141,1.231,41.772-0.107,63.05-4.199c-6.955,13.454-16.627,23.599-27.814,33.103c9.44,2.123,18.428,3.387,27.553,3.592
		C598.481,147.146,607.572,146.462,616.785,145.154z M301.358,50.652c-2.864-2.978-6.241-7.032-9.356-12.264
		c-3.598-6.033-5.681-11.667-6.925-16.01c1.315,0.855,3.236,1.999,5.678,3.099c2.462,1.107,4.806,1.875,7.334,2.515
		c10.121,2.565,21.945,3.001,21.945,3.001c6.593-0.01,13.189-0.044,19.783,0.007c14.135,0.107,42.023,5.798,42.452,5.694
		c-2.27-1.905-4.957-4.551-7.458-8.095c-4.531-6.415-6.325-12.74-7.099-16.734c0.483,0.252,1.234,0.641,2.163,1.08
		c6.258,2.965,11.456,4.004,21.902,5.949c5.151,0.959,10.332,1.821,15.416,3.068c9.816,2.411,17.23,8.186,22.459,16.805
		c0.389,0.644,0.835,1.251,1.432,2.133c1.445-1.704,2.706-3.233,4.011-4.718c7.428-8.458,16.882-13.461,27.727-15.899
		c9.574-2.156,19.209-4.054,28.814-6.093c1.512-0.322,2.991-0.791,4.547-1.211c0.899,1.345,0.148,2.455-0.205,3.548
		c-2.586,8.015-7.891,13.884-14.725,18.528c-0.644,0.439-2.143,1.626-2.19,1.707c5.154-1.103,10.326-2.458,15.577-3.273
		c5.724-0.892,11.516-1.66,17.294-1.808c10.715-0.275,21.442,0.02,32.16-0.08c7.589-0.067,15.181-0.272,22.76-0.661
		c2.834-0.148,5.631-0.999,9.128-1.66c-3.508,6.704-6.777,12.951-10.275,19.632c4.319,1.281,8.179,2.337,11.982,3.575
		c6.596,2.146,12.971,4.853,18.978,8.344c2.311,1.345,4.541,2.854,6.707,4.427c2.535,1.838,2.485,1.992,1.268,4.997
		c-1.502,3.699-3.897,6.737-6.744,9.484c-5.862,5.654-12.787,9.719-19.933,13.454c-12.398,6.486-25.46,11.425-38.455,16.52
		c-1.519,0.597-3.062,1.133-4.893,1.429c3.414-6.928,6.737-13.77,9.112-21.013c2.448-7.462,3.984-15.111,4.574-22.938
		c0.58-7.683,0.453-15.339-1.117-23.344c-0.969,0.791-1.67,1.284-2.284,1.871c-16.288,15.564-34.102,29.189-52.734,41.802
		c-10.54,7.14-21.151,14.189-30.923,22.412c-8.743,7.358-15.855,15.809-21.121,25.527c-3.427,6.325-5.993,14.001-5.993,14.001
		c-0.409,1.147-0.728,2.089-0.926,2.69c-0.496-1.945-1.258-4.645-2.374-7.8c-1.016-2.877-4.728-12.911-11.462-22.214
		c-3.605-4.983-7.924-11-22.143-20.218c-10.309-6.684-20.805-13.085-31.047-19.87c-16.251-10.758-31.215-23.163-45.457-36.446
		c-0.721-0.677-1.486-1.308-2.542-2.237c-1.556,4.611-2.086,9.091-2.173,13.595c-0.332,17.22,2.871,33.747,10.017,49.468
		c0.218,0.486,0.392,0.993,0.698,1.781c-0.765,0.064-33.77-10.466-48.609-18.679c-6.378-3.531-12.472-7.492-17.214-13.156
		c-1.626-1.938-2.981-4.105-4.665-6.456C269.439,58.891,284.949,54.31,301.358,50.652z M194.498,371.716
		c-0.52,0.03-1.05-0.127-2.173-0.278c2.807-5.06,5.332-9.618,7.857-14.175c1.784-3.213,3.592-6.412,5.339-9.641
		c0.614-1.137,1.254-2.052,2.743-2.032c4.789,0.06,9.578,0.057,14.367,0.101c0.174,0.003,0.352,0.228,0.667,0.446
		c-0.067,0.352-0.047,0.825-0.245,1.17c-3.427,5.983-4.44,12.509-4.46,19.283c-0.01,3.592-0.091,3.669-3.759,3.907
		C208.059,370.934,201.279,371.327,194.498,371.716z M262.662,526.964c-1.459,3.84-3.618,7.411-5.426,11.12
		c-0.691,1.422-1.737,2.116-3.317,2.448c-5.282,1.107-10.59,1.818-15.963,1.066c-4.075-0.57-7.673-2.183-10.362-5.869
		c0.644-0.567,1.147-1.113,1.747-1.516c3.518-2.368,7.197-4.514,10.554-7.086c5.698-4.363,9.688-11.177,9.816-17.22
		c-4.061-1.378-8.34-1.73-12.676-1.492c-8.84,0.486-17.056,3.313-25.031,6.935c-3.629,1.65-7.193,3.444-11.466,5.5
		c2.009-6.771,4.668-12.552,7.71-18.166c3.035-5.604,6.617-10.835,11.546-16.094c-8.082-0.02-15.168,1.486-22.17,3.508
		c-7.083,2.049-13.666,5.295-20.242,9.078c1.315-10.969,10.346-33.616,28.74-43.1c-16.073-1.861-29.293-8.199-39.136-20.638
		c0.101-0.295,0.201-0.587,0.305-0.879c2.649-0.161,5.305-0.275,7.955-0.493c6.368-0.527,12.599-1.647,18.508-4.229
		c7.384-3.226,12.693-8.582,16.342-15.674c3.95-7.68,5.379-14.481,7.616-27.62c0.587-3.454,0.989-6.308,1.237-8.203
		c0.295,0.523,0.657,1.264,0.952,2.197c0.08,0.245,0.131,0.426,0.141,0.473c2.364,11.469,7.079,21.828,14.595,30.856
		c4.272,5.131,9.296,9.323,15.406,12.123c0.402,0.184,0.771,0.439,1.144,0.677c0.08,0.054,0.114,0.181,0.409,0.674
		c-1.509,3.327-4.018,6.288-6.375,9.309c-2.337,2.991-4.799,5.889-7.341,8.709c-2.589,2.874-5.339,5.604-8.441,8.837
		c11.751,1.308,22.693,0.02,33.616-2.961c0.215,0.889-0.335,33.348,2.696,48.848C267.712,508.131,266.206,517.648,262.662,526.964z
		 M224.455,366.628c0.064-5.295,1.335-10.376,3.877-15.091c4.547-8.427,12.8-11.764,21.546-11.211
		c0.416,0.027,0.818,0.268,1.133,0.379c0.449,26.265,0.895,52.386,1.351,79.133c-4.091-2.354-7.21-5.027-10.007-8.052
		C230.572,399.05,224.247,384.1,224.455,366.628z M272.937,466.966c0.6-4.148,2.193-24.665,2.213-29.893
		c-6.445,1.928-12.532,3.749-19.145,5.728c-0.677-40.048-1.298-79.542-1.59-119.362c-1.536,2.106-1.63,2.418-2.146,6.64
		c-0.6,4.876-0.6,4.926-5.453,4.826c-6.177-0.131-12.006,0.869-17.113,4.678c-0.647,0.483-1.683,0.724-2.505,0.654
		c-8.649-0.741-13.441-1.278-26.362-2.441c-0.986-0.087-1.774-0.144-2.166-0.171c4.725-2.975,12.281-8.562,18.854-17.898
		c6.264-8.897,8.998-17.452,10.265-22.791c-1.123-0.288-2.16-0.56-3.203-0.818c-10.181-2.495-20.433-4.755-30.531-7.562
		c-6.898-1.922-13.428-4.933-18.991-9.641c-1.928-1.633-3.816-3.357-5.04-6.274c2.408-0.335,4.45-0.597,6.486-0.905
		c5.617-0.852,11.271-1.522,16.835-2.629c8.508-1.697,14.987-6.68,20.286-13.354c6.486-8.173,11.482-17.304,16.764-26.245
		c2.103-3.558,4.215-7.12,6.11-10.788c0.949-1.834,2.136-2.549,4.185-2.586c6.476-0.117,12.951-0.416,19.424-0.654
		c0.309-0.013,0.61-0.131,1.522-0.335c-15.597-9.517-30.403-19.323-42.117-33.418c0.778,0.081,1.579,0.067,2.331,0.262
		c8.585,2.2,17.277,3.582,26.164,3.146c2.884-0.141,5.748-0.738,8.612-1.197c0.962-0.154,1.891-0.53,2.897-0.818
		c-0.325-3.3-3.015-5.644-3.025-9.236h18.813c-4.246-3.934-7.901-7.327-11.563-10.711c-3.612-3.34-7.264-6.63-10.832-10.014
		c-3.575-3.384-7.368-6.56-10.601-10.466c20.668,5.875,41.326,5.195,62.597,1.667c-1.046-0.996-1.714-1.697-2.448-2.321
		c-8.038-6.821-15.523-14.162-21.489-22.918c-1.382-2.029-2.626-4.155-3.86-6.278c-0.423-0.731-0.62-1.59-1.164-3.035
		c19.769,4.182,39.072,5.211,58.942,1.09c-4.557-7.623-10.359-19.484-13.146-34.951c-1.73-9.608-1.848-18.106-1.425-24.833
		c0.402,0.453,1.009,1.13,1.757,1.948c8.33,9.115,20.762,21.637,47.784,38.676c10.201,6.432,20.601,12.556,30.068,20.114
		c13.743,10.973,22.405,25.027,25.93,42.191c0.641,3.126,1.714,10.255,2.592,17.549c0.151,1.251,0.268,2.28,0.342,2.961
		c-31.054-12.74-62.111-25.48-93.168-38.22c-0.054,0.077-0.107,0.158-0.161,0.238c19.461,12.334,38.924,24.669,58.385,37.003
		c-0.094,0.278-60.578-2.213-72.829-2.398c0.902,0.369,1.787,0.781,2.706,1.097c7.066,2.418,23.602,8.883,23.602,9.172
		c-10.765,1.392-21.53,2.783-32.677,4.222c1.358,1.948,2.478,3.555,3.89,5.577c-9.39,3.065-18.723,5.047-28.545,8.059
		c3.364,1.808,6.194,3.327,9.584,5.148c-12.938,8.384-25.346,16.426-38.267,24.803c4.215,1.58,7.884,2.954,12.006,4.497
		c-6.456,9.866-12.66,19.353-19.296,29.494c3.773-0.818,6.912-1.496,10.698-2.317c-0.674,3.028-1.207,5.48-1.764,7.924
		c-2.649,11.637-4.524,27.429-4.135,50.266c0.148,8.642,1.003,38.495,9.635,77.446c0,0,3.25,14.655,9.719,30.095
		c1.137,2.666,2.418,5.46,3.86,8.347c1.442,2.891,3.042,5.875,4.822,8.927c4.933,8.464,10.131,15.54,14.937,21.305
		c-0.362,2.354-0.808,4.819-1.362,7.384c-0.409,1.888-0.845,3.699-1.305,5.433c-4.001-8.501-7.723-16.419-11.66-24.789
		C285.539,454.974,275.7,464.193,272.937,466.966z M221.963,630.669c8.766-7.099,17.455-14.299,26.345-21.241
		c13.344-10.419,24.444-22.861,33.954-36.795c1.18-1.734,2.401-3.441,3.907-5.59c3.572,3.055,6.892,5.895,10.597,9.065
		c0.225-10.896,0.436-21.198,0.657-32.083c1.174,0.731,1.838,1.04,2.378,1.499c5.798,4.943,11.804,9.564,18.877,12.599
		c6.003,2.572,12.167,3.622,18.615,1.999c0.298-0.074,0.57-0.275,1.04-0.51c-0.272-0.423-0.419-0.845-0.714-1.09
		c-6.295-5.228-10.171-12.113-13.049-19.578c-1.523-3.944-2.445-8.116-3.786-12.133c-0.543-1.62-0.121-2.703,0.936-3.917
		c4.306-4.943,9.376-8.947,15.037-12.18c7.21-4.118,14.937-7.012,22.958-9.118c0.724-0.191,1.596-0.416,2.287-0.282
		c0.101,0.03,0.201,0.06,0.298,0.087c6.197,2.475,12.348,5.074,18.609,7.676c0.56,4.329-0.456,8.478-1.355,12.586
		c-5.986,27.375-19.451,50.434-40.33,69.116c-12.442,11.134-26.607,19.541-41.949,26.017c-17.921,7.559-36.647,12.069-55.863,14.668
		c-5.641,0.765-11.318,1.278-16.982,1.871c-1.489,0.154-2.991,0.164-4.49,0.241c-0.094-0.248-0.191-0.493-0.285-0.741
		C220.424,632.111,221.145,631.333,221.963,630.669z M252.195,848.719c-1.569,5.6-5.262,8.36-11.047,8.31
		c-3.538-0.034-6.791-1.147-9.913-2.74c-7.297-3.726-13.428-8.981-18.391-15.356c-12.482-16.023-22.814-33.327-29.441-52.647
		c-2.475-7.217-4.078-14.652-3.293-22.355c0.268-2.636,0.832-5.319,1.754-7.797c3.38-9.051,12.878-12.941,22.351-9.397
		c8.753,3.273,15.091,9.407,20.047,17.073c5.919,9.155,9.138,19.32,10.537,30.071c0.429,3.313,0.647,6.67,0.691,10.01
		c0.023,2.026,0.637,3.632,1.824,5.215c4.842,6.449,9.004,13.303,12.143,20.755c1.871,4.443,3.374,10.587,3.582,14.283
		C252.765,845.67,252.611,847.23,252.195,848.719z M237.215,786.055c-0.698-5.188-2.411-13.119-7.052-21.704
		c-5.644-10.436-12.961-16.925-17.435-20.326c0.181-0.641,0.469-1.6,0.869-2.74c2.391-6.818,5.48-10.198,11.449-18.854
		c3.29-4.769,6.63-9.554,9.387-14.638c5.845-10.762,6.164-22.194,3.089-33.841c-1.63-6.164-3.981-12.046-7.123-17.747
		c-2.197,5.906-4.007,11.66-6.449,17.133c-4.494,10.091-10.889,18.75-20.671,24.384c-5.953,3.431-12.291,5.208-19.273,3.736
		c-9.527-2.012-16.167-10.285-12.784-22.184c1.915-6.744,5.731-12.207,11.261-16.62c9.169-7.317,18.169-14.839,27.194-22.334
		c1.476-1.224,2.998-1.65,4.889-1.663c24.41-0.191,48.2-4.118,71.363-11.868c9.447-3.162,18.579-7.019,27.435-11.556
		c0.59-0.302,1.207-0.557,1.831-0.778c0.174-0.06,0.419,0.077,0.952,0.191c0,1.097,0.03,2.274-0.007,3.444
		c-0.342,11.01,0.295,21.892,4.38,32.291c3.159,8.049,8.431,14.128,16.56,17.509c0.671,0.278,1.71,0.825,1.744,1.301
		c0.017,0.268,0.037,0.54,0.05,0.812l-0.188,7.458c-0.389,0.466-1.506,0.909-2.247,1.167c-6.744,2.354-13.592,4.43-20.252,6.995
		c-16.56,6.375-32.177,14.481-45.742,26.127c-7.086,6.087-13.287,12.928-17.683,21.255c-3.276,6.204-5.315,12.743-5.225,19.85
		c0.077,6.11,1.74,11.664,5.557,16.503c0.208,0.262,0.406,0.533,0.563,0.825c0.104,0.188,0.127,0.423,0.305,1.087
		C248.379,776.199,242.799,781.125,237.215,786.055z M292.32,748.16c-3.893,0.258-7.777,0.708-11.667,1.056
		c-1.982,0.178-3.521,1.09-4.98,2.445c-5.071,4.715-10.238,9.333-15.376,13.978c-0.486,0.439-1.019,0.828-1.908,1.546
		c-2.827-3.739-4.46-7.562-5.138-11.818c-1.211-7.566,1.117-14.37,4.715-20.809c4.987-8.914,12.046-16.067,19.923-22.408
		c16.737-13.478,35.484-23.116,56.148-29.058c2.975-0.855,5.416-0.674,8.209,0.912c4.249,2.415,8.86,4.189,13.32,6.234
		c0.684,0.315,1.375,0.624,2.726,1.241c-1.281,0.738-2.036,1.251-2.85,1.626c-11.791,5.429-23.227,11.482-33.78,19.088
		c-7.381,5.322-14.078,11.338-19.404,18.807c-3.219,4.517-5.607,9.407-6.969,14.749C294.839,747.529,294.01,748.049,292.32,748.16z
		 M302.927,745.698c5.406-11.003,13.169-20.145,22.381-28.116c11.231-9.712,23.907-17.19,37.154-23.753
		c0.889-0.439,2.197-0.553,3.149-0.275c11.499,3.37,23.274,5.322,35.142,6.6c7.539,0.812,15.145,1.003,22.72,1.445
		c1.308,0.074,2.626,0.01,4.212,0.01c-0.184,1.224-0.188,1.995-0.423,2.69c-6.399,18.954-13.491,37.623-23.28,55.132
		c-6.905,12.348-14.91,23.874-25.96,32.979c-11.593,9.554-24.776,14.447-39.917,13.511c-4.111-0.255-8.159-0.922-12.445-2.25
		c0.335-2.958,0.627-5.493,0.912-8.028c0.855-7.576,1.14-15.165-0.208-22.703c-1.744-9.755-6.231-17.673-15.721-21.842
		c-2.629-1.157-5.463-1.834-8.632-2.874C302.294,747.429,302.522,746.52,302.927,745.698z M560.076,823.41
		c-13.075,2.482-26.191,4.474-39.575,4.088c-14.913-0.433-28.17-5.295-39.954-14.383c-9.863-7.606-18.434-16.58-27.17-25.383
		c-6.221-6.268-12.475-12.499-18.716-18.74c-0.466-0.466-0.959-0.902-1.888-1.777c-5.295,5.594-10.389,10.906-15.413,16.285
		c-7.012,7.515-13.86,15.185-20.99,22.586c-6.466,6.717-13.793,12.401-22.184,16.587c-9.765,4.873-20.208,6.989-31.04,7.421
		c-11.432,0.456-22.777-0.399-34.042-2.381c-2.227-0.392-4.464-0.748-6.694-1.12c-0.01-0.238-0.023-0.476-0.034-0.711
		c0.644-0.325,1.261-0.741,1.942-0.959c4.997-1.59,9.987-3.206,15.024-4.671c1.781-0.52,2.918-1.251,3.246-3.246
		c0.359-2.176,1.083-4.292,1.657-6.466c1.881,0,3.541-0.141,5.174,0.023c14.085,1.395,27.64-0.426,40.43-6.707
		c9.47-4.655,17.371-11.318,24.216-19.296c10.302-12.016,17.526-25.842,23.602-40.32c5.191-12.368,9.417-25.078,13.039-37.992
		c0.302-1.073,0.533-2.2,1.036-3.176c0.298-0.58,1.083-1.291,1.616-1.264c0.55,0.023,1.348,0.778,1.539,1.375
		c0.926,2.864,1.663,5.792,2.502,8.686c6.02,20.765,13.344,41,24.903,59.428c7.314,11.657,16.107,21.986,27.928,29.4
		c12.696,7.968,26.54,10.792,41.362,9.172c3.082-0.339,6.157-0.781,9.531-1.217c0.443,1.546,1.003,2.988,1.241,4.484
		c0.272,1.694,1.204,2.415,2.76,2.908c5.003,1.58,9.963,3.29,14.933,4.977c0.812,0.275,1.583,0.667,3.045,1.294
		C561.659,822.846,560.891,823.255,560.076,823.41z M563.608,746c-7.767,2.019-12.992,7.15-16.838,13.877
		c-3.367,5.892-5.171,12.321-6.12,19.004c-1.056,7.448-1.097,14.906-0.241,22.375c0.05,0.433-0.047,0.882-0.101,1.68
		c-0.979,0.258-2.002,0.674-3.055,0.778c-9.96,0.969-19.846,0.916-29.528-2.146c-11.05-3.498-20.195-9.856-27.955-18.344
		c-8.132-8.897-14.343-19.075-19.729-29.789c-7.898-15.698-13.89-32.16-19.44-48.797c-0.268-0.805-0.345-1.677-0.59-2.911
		c4.054-0.255,7.814-0.513,11.573-0.718c11.939-0.651,23.78-2.073,35.524-4.289c2.74-0.52,5.439-1.244,8.193-1.657
		c1.14-0.171,2.539-0.107,3.528,0.409c16.935,8.833,33.847,17.737,49.109,29.35c6.057,4.608,11.774,9.638,15.51,16.469
		c0.667,1.221,1.1,2.569,1.67,3.92C564.372,745.608,564.013,745.896,563.608,746z M606.737,768.791
		c-0.634-0.587-1.311-1.083-1.828-1.71c-2.844-3.447-5.795-6.821-8.424-10.426c-2.13-2.918-4.92-4.819-8.035-6.378
		c-4.618-2.314-9.39-4.182-14.568-4.785c-1.429-0.164-2.472-0.553-2.871-2.223c-1.455-6.107-5.282-10.748-9.608-15.044
		c-6.798-6.747-14.642-12.12-22.898-16.828c-10.118-5.768-20.078-11.208-30.628-16.587c-1.425-0.728-2.602-1.321-3.39-1.717
		c2.612-0.711,4.708-1.398,6.14-1.895c2.173-0.755,3.739-1.298,5.855-2.197c1.848-0.785,3.8-1.311,5.627-2.14
		c1.435-0.651,2.706-0.677,4.158-0.04c14.417,6.341,28.83,12.693,42.536,20.487c10.99,6.251,21.667,13.015,30.49,22.241
		c4.822,5.044,8.733,10.684,10.808,17.502C612.043,753.401,611.147,762.302,606.737,768.791z M684.764,771.353
		c0.097,10.118-3.491,19.202-8.065,27.978c-4.403,8.451-9.843,16.218-16.027,23.448c-2.555,2.985-4.772,6.14-6.677,9.578
		c-3.743,6.764-8.095,13.112-13.776,18.431c-3.28,3.072-6.848,5.731-11.154,7.237c-9.561,3.344-15.949-2.703-17.616-10.228
		c-1.221-5.517-0.456-10.872,1.17-16.164c2.358-7.673,6.17-14.608,11.221-20.789c2.254-2.757,3.099-5.553,3.139-9.098
		c0.151-12.636,2.418-24.853,8.552-36.104c3.88-7.113,9.028-13.042,16.392-16.697c7.951-3.951,15.899-4.306,23.451,0.993
		c5.976,4.199,8.639,10.322,9.37,17.401C684.881,768.663,684.764,770.015,684.764,771.353z M675.525,701.68
		c-5.926-0.768-11.033-3.444-15.728-7.029c-7.254-5.54-12.67-12.663-16.727-20.688c-3.209-6.352-5.6-13.119-8.347-19.705
		c-0.288-0.688-0.54-1.395-1.09-2.834c-6.472,16.486-9.574,32.62-6.808,49.616c2.757,16.942,11.1,31.131,22.036,44.324
		c-4.068,2.458-12.653,8.397-18.807,19.531c-5.704,10.326-6.469,19.96-6.533,24.689c-6.103-7.364-10.52-12.7-11.724-14.024
		c-0.205-0.225-0.808-0.872-0.889-1.804c-0.05-0.627,0.171-1.268,0.634-2.039c3.457-5.751,5.463-11.945,5.403-18.75
		c-0.06-6.949-2.408-13.116-6.181-18.817c-4.306-6.513-9.92-11.774-16.073-16.483c-12.596-9.645-26.604-16.828-41.084-23.102
		c-8.297-3.592-16.771-6.777-25.178-10.118c-2.76-1.097-2.79-1.056-2.804-4.098c-0.01-3.464,0.04-6.932-0.007-10.396
		c-0.023-1.603,0.429-2.636,2.032-3.404c7.099-3.407,11.647-9.209,14.739-16.278c3.343-7.649,4.849-15.772,6.08-23.961
		c0.54-3.612,1.009-7.234,1.546-11.08c1.003,0.295,1.764,0.423,2.438,0.731c15.919,7.294,32.63,12.113,49.673,15.866
		c15.483,3.407,31.101,6.097,46.815,8.206c1.486,0.198,3.001,0.885,4.286,1.694c7.659,4.819,15.554,9.336,22.797,14.722
		c9.024,6.71,16.308,15.027,18.33,26.667C696.381,694.781,687.145,703.192,675.525,701.68z"/>
	<path class="st0" d="M383.456,457.663c1.432,6.808,4.192,12.851,8.481,18.344c5.869,7.522,12.049,14.678,20.007,20.091
		c5.151,3.501,10.715,5.909,17.006,6.506c9.4,0.892,17.609-2.119,25.115-7.482c8.179-5.849,14.745-13.277,20.725-21.282
		c3.414-4.567,5.604-9.618,6.523-15.242c0.322-1.982,0.745-3.947,1.12-5.922c1.147-6.006,2.29-12.012,3.504-18.374
		c-4.376,0.315-105.242,0.034-108.235-0.255C377.869,434.628,381.732,449.464,383.456,457.663z M480.403,440.175
		c-0.476,2.559-2.358,12.703-2.358,12.703c-1.452,0.087-91.005,0.231-91.005,0.231l-3.333-12.81
		C384.462,440.299,478.924,440.111,480.403,440.175z"/>
	<path class="st0" d="M343.505,335.43c-21.526-0.211-40.843,16.707-40.843,40.423c-0.003,23.844,19.638,40.709,40.236,40.226
		c21.466,0.647,40.712-17.241,40.551-40.598C383.298,353.523,365.226,335.645,343.505,335.43z M342.097,412.28
		c-19.917-0.034-36.617-16.888-36.486-36.966c0.144-21.684,18.347-36.708,36.688-36.741c19.192-0.037,36.879,15.584,37.01,36.775
		C379.432,395.656,362.597,412.313,342.097,412.28z"/>
	<path class="st0" d="M524.069,414.503c22.177-0.117,40.47-17.526,40.195-40.98c-0.272-23.086-18.984-40.071-41.074-39.773
		c-22.019,0.295-39.77,18.283-39.629,40.491C483.227,395.928,501.051,414.627,524.069,414.503z M524.713,336.849
		c19.444,0.158,36.466,15.762,36.634,36.849c0.161,20.145-16.865,36.979-36.963,36.946c-19.923-0.03-36.869-16.932-36.865-36.761
		C487.523,353.496,504.263,336.829,524.713,336.849z"/>
	<path class="st0" d="M344.106,352.446c-13.35-0.091-23.85,10.275-24.112,23.525c-0.221,11.261,8.022,24.139,23.713,24.32
		c14.722,0.174,24.102-11.204,24.276-23.753C368.167,363.493,357.543,352.215,344.106,352.446z M344.743,386.176
		c-4.916,0.121-9.366-4.081-9.42-8.897c-0.057-4.832,4.309-9.336,9.058-9.35c4.91-0.013,9.108,4.189,9.145,9.155
		C353.566,381.91,349.558,386.055,344.743,386.176z"/>
	<path class="st0" d="M522.98,398.561c13.206,0.074,23.901-10.48,23.995-23.679c0.097-13.468-10.617-24.182-24.223-24.226
		c-13.079-0.04-23.599,10.637-23.77,23.954C498.814,387.652,509.609,398.859,522.98,398.561z M522.5,366.323
		c5.057,0.091,9.112,4.289,9.001,9.326c-0.107,4.866-4.289,8.967-9.075,8.904c-5.074-0.067-9.085-4.232-8.967-9.309
		C513.573,370.354,517.745,366.239,522.5,366.323z"/>
</g>
</svg>
