<?xml version="1.0" encoding="utf-8"?>
<!-- Generator: Adobe Illustrator 26.0.0, SVG Export Plug-In . SVG Version: 6.00 Build 0)  -->
<svg version="1.1" id="Layer_1" xmlns="http://www.w3.org/2000/svg" xmlns:xlink="http://www.w3.org/1999/xlink" x="0px" y="0px"
	 viewBox="0 0 864 864" style="enable-background:new 0 0 864 864;" xml:space="preserve">
<style type="text/css">
	.st0{fill:#9AC1B8;}
	.st1{fill:#F2F6FC;}
	.st2{fill:#ECD362;}
	.st3{fill:#F5ADBA;}
	.st4{fill:#883D57;}
	.st5{fill:#FDDEBD;}
	.st6{fill:#E8E2D4;}
	.st7{fill:#F3F2F4;}
	.st8{fill:#FFFFFF;}
	.st9{fill:#EBE5E5;}
	.st10{fill:#A33530;}
</style>
<g>
	<g>
		<path d="M863.318,285.651c-2.08-8.13-4.1-16.27-6.22-24.39c-3.34-12.83-3.53-25.72-0.78-38.66c0.48-2.27,0.18-4.33-1.58-5.9
			c-7.48-6.68-14.75-13.72-24.96-16.22c-2.9-0.7-5.52-1.68-5.82-5.33c-0.06-0.78-0.85-1.51-1.35-2.23
			c-13.04-18.97-27.64-36.65-43.68-53.18c-23.98-24.7-50.73-45.81-80.28-63.44c-34-20.31-70.34-34.86-108.68-44.48
			c-31.98-8.02-64.46-12.53-97.46-13.5c-48.4-1.41-96.38,1.58-143.65,12.85c-30.42,7.25-60.06,16.77-88.45,29.92
			c-12.92,5.99-25.55,12.66-38.16,19.29c-14.99,7.86-29.31,16.84-42.91,26.91c-21.19,15.68-39.88,33.92-55.8,54.96
			c-15.85,20.94-28.54,43.65-37.84,68.21c-1.55,4.1-3.2,7.24-7.42,9.55c-10.52,5.8-20.59,12.4-30.87,18.65
			c-2.26,1.37-3.83,3.09-4.46,5.8c-2.57,10.95-5.59,21.79-7.86,32.79c-5.06,24.69-7.62,49.66-7.25,74.91
			c0.29,21.08-0.81,42.09-4.75,62.81c-3.85,20.25-8.66,40.32-12.53,60.56c-2.43,12.6-6.23,30.41-9.27,54.33
			c-0.57,4.51-1,8.25-1.28,10.83c-0.03,2.9,0.06,6.94,0.59,11.71c0.39,3.53,1.64,15.25,8.03,29.55
			c7.06,15.81,16.98,29.76,29.15,41.91c8.91,8.88,18.75,16.81,28.17,25.17c1.7,1.52,3.83,1.72,5.37,0.41
			c1.12-0.94,1.51-2.89,1.93-4.47c0.23-0.89-0.12-1.94-0.27-2.9c-3.45-20.63-4.42-41.42-3.96-62.29c0.11-5.02,0.51-10.04,0.77-15.06
			c0.86,0.78,1.2,1.62,1.47,2.49c4.02,12.91,9.73,25.04,18.19,35.57c5.79,7.21,12.5,13.68,18.87,20.41
			c1.59,1.68,3.66,1.93,5.61,0.55c1.87-1.34,2.47-3.19,1.58-5.42c-0.24-0.63-0.38-1.31-0.61-1.95
			c-9.75-27.47-12.12-55.65-8.12-84.44c0.47-3.33,1.26-6.62,2.04-10.6c0.73,1.14,1.06,1.6,1.33,2.08
			c3.55,6.3,7.07,12.62,10.65,18.91c0.47,0.8,1.33,1.37,1.93,2.1c0.8,0.97,1.92,1.9,2.2,3.02c3.92,16.41,10.28,31.77,19.64,45.82
			c4.36,6.54,9.08,12.85,13.68,19.31c-3.39,5.28-3.35,6.11,0.65,10.44c6.18,6.71,13.42,11.93,21.77,15.58
			c7.16,3.12,7.94,2.86,11.66-3.98c5.63,1.62,11.3,3.26,17.01,4.9c-0.19,2.56-0.43,4.9-0.52,7.24c-0.21,4.56,1.47,6.26,6.04,6.13
			c8.89-0.26,17.79-0.55,26.69-0.85c3.83-0.13,5.01-1.44,5.31-5.38c0.07-0.76,1.05-1.45,1.92-2.56c0.37,1.16,0.48,1.34,0.49,1.52
			c0,0.49,0.05,1-0.08,1.46c-1.33,4.95,0,8.71,4.74,11.09c1.03,0.52,1.93,1.33,2.81,2.12c4.64,4.21,9.74,7.12,16.33,6.06
			c0.33-0.06,0.72,0.08,1.29,0.17c-0.27,0.86-0.48,1.59-0.75,2.3c-2.71,7.12-5.37,14.25-8.2,21.32c-0.8,2.02-0.72,3.6,0.52,5.45
			c3.63,5.44,7.03,11.04,10.62,16.51c0.72,1.08,1.72,2.13,2.83,2.79c6.28,3.71,12.65,7.3,19.13,11.01
			c-2.15,3.86-4.13,7.67-6.35,11.36c-1.1,1.86-1.07,3.36,0.29,5.04c2.08,2.58,3.93,5.36,6.14,7.85c1.27,1.46,1.07,2.29-0.13,3.63
			c-5.55,6.2-10.91,12.53-16.44,18.72c-1.37,1.53-1.67,2.84-0.74,4.72c4.39,8.83,8.77,17.68,12.97,26.61c1.02,2.17,2.3,3.1,4.63,3.2
			c10.08,0.44,20.14,0.99,30.2,1.57c1.83,0.1,2.89-0.58,3.65-2.21c4.94-10.52,9.9-21.05,14.98-31.51c1.15-2.37,0.6-3.91-1.17-5.64
			c-6.66-6.49-13.22-13.06-19.72-19.69c-0.54-0.55-0.73-1.87-0.51-2.67c1.05-3.85,2.34-7.64,3.52-11.47
			c1.5-4.83,1.44-4.76-2.55-7.68c-4.62-3.38-9.13-6.89-13.76-10.4c4.79-4.52,9.25-8.9,13.91-13.03c1.98-1.77,2.72-3.53,2.1-6.15
			c-1.4-5.97-1.25-12.37-5.07-17.72c0.58,0.09,0.89,0.29,1.19,0.5c14.21,9.84,28.14,20.15,42.73,29.41
			c26.12,16.57,53.37,31.09,82.23,42.43c17.48,6.87,35.46,11.56,54.32,12.53c15.23,0.78,30.24-0.73,45.22-3.46
			c24.04-4.38,48.07-8.75,71.31-16.58c29.64-10,56.69-24.4,79.17-46.55c12.2-12.04,22.08-25.58,27.06-42.26
			c0.21-0.69,0.57-1.44,1.09-1.91c3.76-3.4,7.8-6.52,11.35-10.12c13.98-14.18,24.85-30.36,30.68-49.62c0.48-1.6,1.05-3.16,1.76-5.24
			c3.33,5.6,6.36,10.66,9.42,15.8c-3.66,3.87-7.21,7.77-10.92,11.51c-1.81,1.82-2.23,3.5-1.29,6c3,7.94,5.68,16,8.57,23.99
			c0.47,1.32,1.3,2.5,2.13,4c-2.12,3.2-4.33,6.65-6.65,10.03c-1.26,1.81-1.39,3.35-0.11,5.32c2.99,4.56,5.73,9.28,8.62,14.01
			c-5.41,6.28-10.71,12.53-16.15,18.65c-1.54,1.72-1.69,3.18-0.83,5.27c3.35,8.14,6.66,16.29,9.64,24.56
			c1.19,3.3,2.69,5.28,6.43,4.78c0.47-0.07,1.01,0.27,1.85,0.51c-1.84,3-3.44,5.79-5.22,8.46c-1.29,1.94-1.07,3.53,0.39,5.28
			c2.53,3.03,4.91,6.18,7.43,9.35c-3.98,3.72-7.79,7.21-11.5,10.81c-0.84,0.83-1.66,2-1.88,3.14c-1.47,7.57-2.87,15.17-4.06,22.8
			c-0.19,1.2,0.29,3.13,1.16,3.78c12.38,9.23,24.86,18.32,37.35,27.4c1.98,1.44,3.85,1.39,5.7-0.56
			c7.62-7.98,15.36-15.85,22.93-23.88c0.89-0.94,1.39-2.57,1.45-3.92c0.41-8.11,0.73-16.23,0.83-24.34
			c0.04-1.46-0.71-3.23-1.67-4.34c-4.02-4.53-8.16-8.95-12.44-13.22c-1.85-1.83-2.42-3.54-1.03-5.75c2.78-4.43,1.54-8.3-1.59-11.94
			c-0.37-0.45-0.65-0.98-1.05-1.4c-1.45-1.53-1.11-2.75,0.24-4.26c4.72-5.23,9.24-10.63,13.93-15.88c1.68-1.88,2.21-3.57,0.98-6
			c-4.17-8.18-7.83-16.65-12.29-24.65c-3.22-5.76-4.53-11.08-0.86-17.01c1.07-1.76,0.76-3.63-0.45-5.5
			c-2.04-3.18-3.77-6.55-5.72-9.97c6.33-4.76,12.43-9.49,18.69-14.02c2.22-1.59,2.71-3.15,1.7-5.69c-3.61-8.97-7.1-18-10.46-27.06
			c-0.43-1.12-0.23-2.88,0.42-3.9c4.64-7.47,9.39-14.88,14.28-22.2c1.75-2.61,1.81-4.7,0.06-7.42c-5.09-7.89-9.91-15.94-14.7-24.01
			c-0.56-0.94-0.67-2.63-0.21-3.6c4.27-8.9,8.79-17.68,13.02-26.59c0.6-1.25,0.58-3.31-0.05-4.55c-3.67-7.33-7.68-14.5-11.39-21.82
			c-0.52-1.05-0.49-2.91,0.09-3.89c7.58-12.56,15.18-25.1,23.04-37.47c1.83-2.86,1.58-4.75-0.31-7.29
			c-4.48-6.02-8.71-12.22-13.12-18.47c4.39-4.44,8.19-9.53,8.41-15.52c0.21-6.32,3.64-8.76,8.44-10.8c2.4-1.01,3.61-2.79,3.83-5.4
			c1.75-19.57,3.54-39.13,5.35-58.7c0.19-2.01,0.65-4,1-6v-61.07C863.768,286.491,863.438,286.101,863.318,285.651z"/>
	</g>
	<g>
		<path class="st0" d="M265.608,559.801c-0.01,0.64-0.75,1.65-1.37,1.87c-10.91,3.96-21.86,7.83-33.14,11.83
			c0-2.47-0.06-4.64,0.01-6.82c0.12-3.81,0.46-7.62,0.44-11.43c-0.02-2.21,0.81-3.11,2.92-3.49c7.41-1.33,14.77-2.88,22.19-4.19
			c2.59-0.46,4.15-1.55,4.97-4.17c1.06-3.37,2.55-6.62,4.04-10.38C265.667,542.401,265.698,551.101,265.608,559.801z"/>
		<path class="st0" d="M285.268,591.671c-1.55,9.8-3.06,19.25-4.56,28.69c-0.39-0.02-0.79-0.04-1.19-0.07
			c-0.45-3.21-0.93-6.42-1.34-9.63c-0.62-4.82-1.26-9.65-1.74-14.49c-0.06-0.67,0.6-1.83,1.21-2.07
			C279.978,593.191,282.417,592.551,285.268,591.671z"/>
		<path class="st0" d="M308.828,643.741c-0.46,6.92-0.49,13.86-0.76,20.79c-0.03,1.04-0.1,2.24-0.62,3.08
			c-2.65,4.4-5.39,8.74-8.23,13.02c-1.23,1.86-2.36,1.64-3.21-0.48c-1.06-2.62-2.23-5.22-2.98-7.93c-0.27-0.98,0.25-2.45,0.9-3.35
			c2.17-3,4.39-6.01,6.91-8.7c2.25-2.41,2.75-5.21,2.99-8.24c0.34-4.36,0.76-8.71,1.15-13.24
			C307.748,639.491,309.018,640.761,308.828,643.741z"/>
		<path class="st0" d="M290.618,680.881c-7.93,0-15.71,0.07-23.48-0.08c-1.12-0.02-2.3-1.01-3.32-1.72
			c-2.31-1.62-4.46-3.49-6.84-4.99c-2.94-1.86-3.69-4.19-2.12-7.65c1.2,0.93,2.35,1.55,3.13,2.49c3.02,3.58,6.89,4.2,11.31,3.98
			c5.26-0.27,10.54,0.03,15.82-0.08c2.02-0.05,3.26,0.32,3.68,2.61C289.167,677.411,290.068,679.281,290.618,680.881z"/>
		<path class="st0" d="M323.788,720.581c-7.4,6.85-14.25,13.24-21.2,19.51c-0.6,0.54-2.13,0.72-2.84,0.35
			c-4.68-2.43-9.08-5.43-13.89-7.52c-4.87-2.11-6.65-6.44-8.94-10.79c4.48,2.06,8.96,4.12,13.44,6.17
			c7.58,3.46,7.59,3.46,13.43-2.35c3.1-3.1,6.22-6.17,9.26-9.34c1.14-1.19,2.01-1.43,3.48-0.38
			C318.708,717.791,321.118,719.011,323.788,720.581z"/>
		<path class="st0" d="M328.048,823.431c-9.4-0.53-18.24-0.99-27.09-1.58c-0.9-0.06-2.17-0.61-2.56-1.31
			c-1.65-3.05-3.05-6.24-4.61-9.52c0.41,0.05,0.64,0.02,0.68,0.1c2.23,4.21,5.91,4.58,10.15,4.19c4.95-0.45,9.94-0.58,14.92-0.6
			c1.11-0.01,2.54,0.73,3.3,1.6C324.658,818.411,326.148,820.791,328.048,823.431z"/>
		<path class="st0" d="M836.308,482.031c-0.25,1.08-0.24,1.52-0.43,1.83c-4.15,6.75-8.29,13.48-12.5,20.17
			c-0.46,0.73-1.38,1.65-2.11,1.66c-7.79,0.12-15.6,0.07-23.64,0.07c0.96-2.89,1.95-6.11,3.14-9.26c0.17-0.45,1.3-0.7,2.01-0.75
			c5.45-0.34,10.93-0.49,16.37-0.95c1.44-0.13,3.02-0.82,4.16-1.73C827.538,489.651,831.617,486.041,836.308,482.031z"/>
		<path class="st0" d="M812.288,620.941c-1.67,0.22-2.67,0.41-3.68,0.46c-6.83,0.36-13.66,0.75-20.49,0.95
			c-0.91,0.03-2.22-0.72-2.71-1.51c-3.42-5.45-6.73-10.98-9.93-16.57c-0.51-0.88-0.69-2.31-0.35-3.25
			c3.05-8.45,6.22-16.86,9.42-25.25c0.23-0.62,0.87-1.44,1.41-1.52c4.92-0.67,9.86-1.19,15.62-1.85c-2.33,3.27-4.24,5.99-6.19,8.68
			c-1.61,2.21-3.09,4.54-4.92,6.55c-2.38,2.59-3.21,5.45-2.65,8.85c0.19,1.15,0.43,2.36,0.29,3.5c-0.73,5.75,2.24,8.77,7.14,11.15
			C800.907,613.891,806.208,617.391,812.288,620.941z"/>
		<path class="st0" d="M833.417,537.271c-2.09,4.41-4.4,8.72-6.83,13.44c-3.2-5.55-6.26-10.84-9.32-16.13
			c-1.86-3.21-3.83-6.36-5.5-9.66c-1.07-2.11-2.64-2.56-4.75-2.53c-5.15,0.07-10.31,0.02-15.8,0.02c1.47-3.82,2.83-7.33,4.28-11.1
			h25.66c3.97,7.4,8.11,15.03,12.12,22.74C833.738,534.931,833.828,536.401,833.417,537.271z"/>
		<path class="st0" d="M827.088,657.081c-0.53,0.56-0.9,1.08-1.39,1.45c-3.96,2.99-7.91,6.01-11.96,8.88
			c-0.86,0.61-2.15,1.04-3.17,0.94c-8.25-0.86-16.48-1.91-24.72-2.78c-1.76-0.18-2.84-0.65-3.38-2.47
			c-0.87-2.95-1.99-5.82-3.01-8.73c0.51-0.16,0.75-0.32,0.85-0.25c6.33,4.43,13.2,3.78,19.85,1.43
			C809.358,652.281,818.018,654.731,827.088,657.081z"/>
		<path class="st0" d="M829.968,730.151c-0.22,1.01-0.14,2.29-0.72,2.99c-4.45,5.31-9,10.53-13.62,15.7
			c-0.54,0.61-1.67,1.02-2.5,0.99c-10.15-0.4-20.29-0.85-30.43-1.47c-1.01-0.05-2.44-1.12-2.84-2.06
			c-2.81-6.63-5.38-13.35-8.04-20.04c0.13-0.15,0.26-0.3,0.39-0.44c3.69,3.73,7.41,7.43,11.06,11.21c1.87,1.94,3.78,3.2,6.74,3.38
			c6.91,0.43,13.77,1.53,20.68,2.11c1.45,0.13,3.29-0.4,4.43-1.29c4.01-3.11,7.77-6.5,11.66-9.78c0.71-0.6,1.5-1.12,2.27-1.67
			C829.348,729.901,829.657,730.021,829.968,730.151z"/>
		<path class="st0" d="M829.348,819.681c-6.59,6.83-13.18,13.67-19.94,20.69c-6.94-5.02-13.73-9.91-20.5-14.83
			c-4.58-3.34-9.18-6.65-13.65-10.13c-0.74-0.58-1.32-2.05-1.18-2.99c0.87-5.89,1.82-11.78,3.05-17.61
			c0.37-1.76,1.39-3.59,2.63-4.91c2.45-2.64,5.15-5.07,7.96-7.34c1.17-0.94,2.8-1.51,4.31-1.77c2.66-0.45,5.38-0.55,8.84-0.86
			c-3.1,4.38-5.67,8.24-8.5,11.91c-2.05,2.66-2.73,5.47-3.08,8.84c-0.89,8.54,0.95,15.43,8.71,20.18c2.63,1.61,4.75,4.05,7.04,6.17
			c1.71,1.58,3.33,1.83,5.54,0.72c5.57-2.81,11.29-5.33,16.95-7.96c0.48-0.23,1.01-0.37,1.52-0.55
			C829.148,819.381,829.248,819.531,829.348,819.681z"/>
	</g>
	<g>
		<path class="st1" d="M226.298,561.401c-0.35,2.14-0.06,4.39-0.06,6.6c-0.29,0.07-0.57,0.13-0.86,0.2c-2-3.05-4.02-6.1-6.03-9.15
			c-3.7-5.62-7.44-11.23-11.09-16.88c-2.89-4.47-2.85-4.5,1.04-9.05c4.32,5.43,8.32,11.09,13,16.14
			C225.667,552.891,227.068,556.581,226.298,561.401z"/>
		<path class="st1" d="M263.358,524.091c-1.93,5.52-4.03,10.99-6.23,16.39c-0.36,0.86-1.51,1.75-2.44,1.95
			c-8.3,1.78-16.62,3.47-24.97,4.98c-1.06,0.2-2.74-0.43-3.43-1.26c-4.82-5.87-9.46-11.88-14.19-17.89
			c4.26-6.84,8.52-13.61,12.71-20.42c0.83-1.36,1.8-1.86,3.47-1.95c6.91-0.38,13.8-1.03,20.71-1.48c0.8-0.05,1.96,0.34,2.43,0.94
			c3.92,4.99,7.79,10.03,11.49,15.18C263.538,521.401,263.718,523.061,263.358,524.091z"/>
		<path class="st1" d="M283.028,586.881c-2.67,0.84-5.12,1.75-7.66,2.34c-1.14,0.26-2.5,0.09-3.65-0.26
			c-8.46-2.64-16.94-5.24-25.32-8.14c-3.14-1.09-5.03-0.49-6.84,2.28c-2.05,3.14-4.56,5.98-7.03,9.16c0-4.36-0.07-8.25,0.08-12.14
			c0.02-0.71,0.81-1.78,1.49-2.03c9.23-3.4,18.5-6.7,27.79-9.94c0.74-0.26,2.02-0.23,2.51,0.23c5.97,5.6,11.84,11.3,17.71,16.99
			C282.488,585.741,282.677,586.301,283.028,586.881z"/>
		<path class="st1" d="M274.628,623.401c-6.01,3.39-11.93,6.77-17.93,10.01c-0.7,0.38-2.17,0.23-2.77-0.27
			c-7.38-6.25-14.66-12.6-21.97-18.93c-0.22-0.19-0.59-0.44-0.58-0.63c0.23-4.3-0.65-9.16,1.07-12.76
			c2.34-4.87,6.76-8.73,10.14-13.14c1.18-1.54,2.16-2.01,4.12-1.33c7.29,2.51,14.65,4.83,22.01,7.13c1.55,0.48,2.35,1.04,2.55,2.89
			C272.248,605.291,273.458,614.191,274.628,623.401z"/>
		<path class="st1" d="M299.818,636.771c-0.35,5.66-0.78,11.31-1.28,16.95c-0.08,0.82-0.47,1.73-0.99,2.38
			c-2.79,3.52-5.61,7.03-8.57,10.4c-0.59,0.68-1.85,1.04-2.82,1.08c-3.32,0.13-6.64,0.05-9.96,0.05v0.03
			c-1.08,0-2.17-0.13-3.23,0.02c-6.05,0.85-10.92-1.12-15.2-5.5c-1.75-1.8-2.69-3.51-2.54-5.86c0.36-5.17,0.73-10.33,1.28-15.48
			c0.09-0.84,0.97-1.86,1.75-2.32c7.53-4.31,15.08-8.59,22.72-12.7c0.98-0.52,2.75-0.48,3.71,0.07c4.84,2.74,9.56,5.71,14.24,8.71
			C299.478,634.951,299.858,636.051,299.818,636.771z"/>
		<path class="st1" d="M323.198,714.201c-2.33-1.39-4.4-2.5-6.34-3.82c-2.14-1.46-3.82-1.27-5.65,0.64
			c-4.19,4.36-8.61,8.52-12.77,12.91c-1.35,1.43-2.36,1.44-4,0.65c-6.41-3.09-12.89-6.05-19.35-9.04c-5.23-2.43-5.2-2.42-3.02-8.06
			c2.44-6.28,4.87-12.56,7.17-18.88c0.56-1.52,1.17-2.13,2.9-2.05c5.17,0.24,10.36,0.09,15.53,0.39c2.81,0.17,4.74-0.63,5.78-3.28
			C313.778,690.931,322.628,704.391,323.198,714.201z"/>
		<path class="st1" d="M324.677,754.321c-1.13,4.13-2.54,8.19-3.79,12.3c-0.47,1.55-1.34,2.05-2.99,2c-4.1-0.14-8.26,0.34-12.3-0.16
			c-4.51-0.55-5.25-5.49-7.93-8.23c-0.49-0.52,0.32-2.65,0.93-3.83c1.63-3.21,3.29-6.44,5.29-9.42c1.49-2.22,3.54-4.07,5.44-6.21
			c5.13,3.83,9.86,7.27,14.48,10.88C324.438,752.141,324.898,753.541,324.677,754.321z"/>
		<path class="st1" d="M342.288,794.091c-3.67,7.95-7.47,15.85-11.46,24.24c-1.71-2.36-3.21-4.23-4.48-6.24
			c-1.21-1.92-2.65-2.81-5.04-2.67c-6.15,0.37-12.31,0.44-18.47,0.73c-1.71,0.08-2.83-0.32-3.93-1.78
			c-3.63-4.83-7.46-9.5-11.29-14.32c5.65-6.54,11.31-13.13,17.05-19.64c0.4-0.46,1.34-0.59,2.04-0.6
			c5.17-0.06,10.36-0.11,15.54-0.04c0.84,0.01,1.87,0.47,2.46,1.06c5.69,5.64,11.32,11.34,16.9,17.09
			C342.098,792.421,342.528,793.561,342.288,794.091z"/>
		<path class="st1" d="M813.548,695.751c-0.26,0.61-1.53,1.13-2.34,1.14c-7.73,0.08-15.45,0.1-23.18-0.04
			c-0.91-0.01-2.12-0.84-2.65-1.65c-2.27-3.41-4.42-6.9-6.42-10.48c-0.36-0.65-0.07-1.99,0.38-2.72c2.32-3.73,4.8-7.35,7.37-11.25
			c7.41,0.85,14.79,1.65,22.15,2.62c0.9,0.11,1.89,0.94,2.48,1.71c0.94,1.23,1.35,2.91,2.39,4.01
			C819.188,684.751,815.778,690.261,813.548,695.751z"/>
		<path class="st1" d="M826.938,724.511c-4.56,3.83-8.99,7.51-13.37,11.25c-1.48,1.27-2.9,1.87-5,1.55
			c-5.7-0.84-11.48-1.21-17.18-2.04c-1.58-0.23-3.31-1.11-4.47-2.22c-4.7-4.54-9.2-9.27-13.95-14.1c4.7-5.41,9.4-10.87,14.18-16.25
			c0.41-0.47,1.37-0.61,2.08-0.62c8.22-0.03,16.44-0.08,24.65,0.06c0.99,0.01,2.44,0.81,2.87,1.66
			C820.218,710.571,823.508,717.461,826.938,724.511z"/>
		<path class="st1" d="M816.417,771.251c-0.48,0.92-1.65,1.98-2.61,2.09c-6.98,0.82-13.98,1.46-20.98,2.03
			c-0.77,0.06-1.84-0.44-2.36-1.03c-2.19-2.48-4.23-5.11-6.35-7.66c-1.04-1.24-1.35-2.28-0.23-3.84c1.97-2.76,2.96-6.98,5.54-8.33
			c2.73-1.43,6.84-0.27,10.34-0.13c4.68,0.2,9.36,0.51,14.12,0.78c0.48,0.87,0.81,2.01,1.55,2.71
			C819.938,762.061,818.867,766.641,816.417,771.251z"/>
		<path class="st1" d="M832.608,792.991c-0.08,5.75-0.25,11.51-0.56,17.27c-0.04,0.83-0.78,2.01-1.51,2.36
			c-7.29,3.52-14.64,6.89-22.17,10.39c-4.21-3.72-8.23-7.27-12.24-10.83c-0.43-0.39-1.17-0.84-1.17-1.25
			c0.09-4.82-1.04-10.21,0.77-14.29c2.63-5.94,7.35-10.97,11.31-16.29c0.53-0.72,1.72-1.19,2.68-1.33
			c3.24-0.47,6.52-0.74,10.03-1.12c3.8,4.03,7.82,8.26,11.77,12.57C832.108,791.121,832.617,792.141,832.608,792.991z"/>
		<path class="st1" d="M830.528,652.241c-2.57-0.52-4.78-0.96-7-1.42c-3.44-0.72-6.87-1.91-10.33-2.04
			c-3.73-0.13-7.52,0.59-11.24,1.18c-3.18,0.51-6.28,1.56-9.46,1.97c-1.81,0.23-3.77-0.12-5.55-0.62c-2.06-0.58-3.91-1.89-5.97-2.39
			c-3.66-0.87-5.23-3.39-5.87-6.67c-0.17-0.88,0.18-2.16,0.78-2.83c3.3-3.71,6.73-7.33,10.18-10.92c0.48-0.5,1.3-0.89,1.98-0.93
			c10.74-0.55,21.47-1.05,32.29-1.56C823.698,634.671,827.018,643.201,830.528,652.241z"/>
		<path class="st1" d="M835.677,597.381c-4.71,7.51-9.57,14.93-14.58,22.65c-8.97-5.2-17.73-10.29-26.5-15.38
			c-0.25-0.15-0.54-0.28-0.71-0.5c-1.11-1.47-0.82-11.43,0.32-13c4.51-6.24,8.98-12.5,13.54-18.7c0.37-0.5,1.22-0.82,1.89-0.91
			c3.29-0.46,6.58-0.9,9.9-1.15c0.73-0.05,1.86,0.52,2.24,1.15c4.71,7.54,9.34,15.11,13.87,22.76
			C836.108,595.091,836.148,596.631,835.677,597.381z"/>
		<path class="st1" d="M823.038,558.001c-1.67,5.08-4.53,7.96-10.63,8.13c-8.76,0.25-17.48,1.88-26.22,2.79
			c-0.8,0.08-2.07-0.52-2.48-1.19c-2.26-3.75-4.36-7.61-6.43-11.48c-0.29-0.56-0.36-1.48-0.11-2.04c3.68-8.4,7.4-16.78,11.24-25.12
			c0.32-0.7,1.52-1.35,2.35-1.41c2.54-0.18,5.08-0.07,8.81-0.07c5.85-2.02,9.34,1.54,12.19,7.56c3.21,6.77,7.44,13.06,11.09,19.64
			C823.318,555.661,823.348,557.041,823.038,558.001z"/>
		<path class="st1" d="M844.718,469.151c-3.96,3.09-8.07,6.01-11.98,9.17c-4.01,3.23-7.84,6.68-11.8,9.99
			c-0.72,0.6-1.63,1.3-2.5,1.36c-5.14,0.35-10.29,0.52-15.92,0.78c4.15-15.63,5.2-31.26,4.69-47.51c5.07,1.07,9.71,2.08,14.36,3.01
			c3.53,0.69,7.08,1.25,10.61,1.95c0.58,0.11,1.23,0.51,1.57,0.98c3.82,5.3,7.55,10.68,11.42,15.97
			C846.417,466.551,846.258,467.951,844.718,469.151z"/>
	</g>
	<g>
		<path class="st2" d="M237.398,663.441h-19.42c0.39-6.81,0.77-13.66,1.18-20.96c5.03,0.54,9.83,0.99,14.63,1.65
			c0.52,0.07,1.19,1.19,1.3,1.9C235.898,651.611,236.588,657.221,237.398,663.441z"/>
		<path class="st2" d="M191.438,632.211c-2.34,5.96-4.77,11.89-7.24,17.99c-7.08-2.87-12.74-7.21-18.1-12.6
			c4.8-5.22,9.34-10.16,14.08-15.32c3.7,2.77,7.3,5.4,10.8,8.14C191.378,630.731,191.628,631.731,191.438,632.211z"/>
	</g>
	<g>
		<path class="st3" d="M708.658,590.591c-0.05,0.39-0.11,0.78-0.17,1.18c-2.08,13.3-8.35,24.91-16.99,33.01
			c-8.04,7.56-18.13,12.06-28.78,12.06c-1.95,0-3.91-0.15-5.84-0.45c-3.52-0.55-6.88-1.58-10.01-3.03c-0.47-0.24-0.94-0.49-1.4-0.75
			c-3.82-2.13-7.24-4.64-10.25-7.46c-9.75-9.76-15.38-24.64-14.52-40.76c0.08-1.5,0.22-3.02,0.42-4.54l2.44-0.14l6.12-0.36
			c-0.23,3.93-0.79,7.44-0.58,10.91c0.87,14.4,7.08,25.94,20.23,32.38c11.42,5.6,22.28,2.63,32.03-4.96
			c8.32-6.48,13.72-14.84,15.97-25.19c0.14-0.65,0.45-1.26,0.69-1.9H708.658z"/>
		<path class="st3" d="M441.188,574.301c-1.3,6.35-3.55,12.33-6.57,17.75c-0.09,0.16-0.18,0.32-0.27,0.48
			c-1.71,3.02-3.68,5.87-5.85,8.5c-0.11,0.14-0.22,0.27-0.34,0.41c-4.91,5.74-11.04,10.48-18.47,14.22
			c-2.22,1.12-4.48,2.11-6.75,2.95c-0.01,0.01-0.02,0.01-0.03,0.01c-4.93,1.58-10.15,2.43-15.55,2.43
			c-30.42,0-55.17-26.86-55.17-59.87c0-6.95,1.1-13.63,3.12-19.83c0.76-2.33,1.65-4.6,2.65-6.79l0.03,0.01
			c3.82,1.18,7.49,2.3,10.8,3.31c-1.02,6.55-2.69,12.86-2.85,19.21c-0.46,18.79,7.25,34.05,22.15,45.28
			c11.42,8.6,27.61,7.85,39.83-0.78c9.94-7,16.73-16.28,20.47-27.8c0.54-1.67,1.11-2.4,3.11-1.76c2.94,0.94,6.03,1.47,9.34,2.21
			C440.958,574.261,441.068,574.281,441.188,574.301z"/>
	</g>
	<g>
		<path class="st4" d="M709.149,585.257h-0.81c-0.64,0-1.28,0.01-1.92,0.01c-2.54,0-5.07,0.01-7.61-0.01c-5.2-0.03-5.27,0-6.27,5.02
			c-2.46,12.44-9.55,21.46-20.67,27.21c-10.59,5.46-22.28,2.62-29.66-6.75c-7.59-9.64-9.98-20.32-6.56-32.21
			c1.05-3.62,0.13-4.78-3.54-4.55c-0.55,0.03-1.1,0.06-1.65,0.1h-0.08l-7.91,0.18l-0.37,0.01c1.22-5.55,3.2-10.74,5.76-15.46
			c0.42-0.78,0.86-1.54,1.32-2.29c5.94-9.83,14.54-17.29,24.32-20.95c4.35-1.63,8.94-2.51,13.63-2.51c1.94,0,3.91,0.16,5.84,0.46
			c11.47,1.79,21.49,8.73,28.21,19.52c1.4,2.26,2.63,4.63,3.66,7.09C708.129,567.837,709.609,576.437,709.149,585.257z"/>
		<path class="st4" d="M442.529,561.177c0,2.26-0.11,4.5-0.35,6.7c-0.04,0.4-0.08,0.79-0.13,1.18l-0.21-0.04l-0.35-0.06h-0.03
			c-3.83-0.87-7.59-1.72-11.33-2.56c-4.25-0.97-4.71-0.56-5.91,3.61c-3.59,12.55-10.57,22.66-22.23,28.92
			c-14.7,7.89-29.1,4.69-39.3-8.52c-6.52-8.44-11.01-17.75-11.59-28.62c-0.42-7.93,0.9-15.56,3.77-22.95
			c1.27-3.27,0.91-4.07-2.4-5.2c-3.74-1.25-7.52-2.36-11.98-3.75l-0.02-0.01l-0.08-0.03h-0.02c8.98-15.81,24.54-26.77,42.51-28.35
			c1.48-0.13,2.98-0.2,4.48-0.2c2.18,0,4.33,0.14,6.43,0.41c0.02,0,0.03,0,0.05,0.01c3.51,0.44,6.92,1.24,10.19,2.38
			C426.329,511.777,442.529,534.467,442.529,561.177z"/>
	</g>
	<g>
		<polygon class="st5" points="770.179,548.087 755.449,579.427 761.359,562.157 761.389,562.057 766.999,545.677 		"/>
		<path class="st5" d="M732.959,621.477c-5.79,12.23-10.11,25.17-12.02,38.94c-2.44-5.07-6.55-8.08-11.32-10.38
			c-1.23-0.59-4.82-6.71-4.42-7.79c0.24-0.63,1.1-1.57,1.57-1.51c4.85,0.63,7.79-2.87,10.9-5.35
			C723.059,631.077,727.929,626.117,732.959,621.477z"/>
		<path class="st5" d="M768.259,573.907c-0.54,34.84-12.54,63.79-38.18,86.98c0.75-3.93,1.35-7.9,2.28-11.79
			c3.14-13.14,9.19-25.04,15.54-36.84c6.46-12.04,12.7-24.2,19.04-36.3C767.179,575.477,767.509,575.047,768.259,573.907z"/>
		<path class="st5" d="M726.149,433.597c0.34,0.57,0.75,0.8,1.15,1.04c7.71,4.68,13.33,11.16,16.24,19.71
			c5.53,16.24-3.11,32.63-17.74,39.6c-5.14,2.45-8.44,5.06-8.4,10.96c0.02,1.33-0.41,2.66-0.63,3.93c0.25,0.21,0.38,0.4,0.55,0.45
			c14.2,3.93,27.18,10.24,38.57,19.69c1.27,1.05,6.31,0.3,7.18-1.09c3.67-5.85,7.35-11.71,10.87-17.66
			c0.54-0.92,0.57-2.43,0.28-3.51c-2.39-9.01-3.46-18.03-0.93-27.2c2.7-9.77,8.2-16.95,18.34-19.78c2.14-0.59,4.35-0.86,6.56-1.28
			v-17.23C774.199,436.897,750.309,434.127,726.149,433.597z M749.549,514.637c-7.91,0-14.34-6.43-14.34-14.33
			c0-7.91,6.43-14.34,14.34-14.34c7.9,0,14.34,6.43,14.34,14.34C763.889,508.207,757.449,514.637,749.549,514.637z"/>
		<path class="st5" d="M251.189,639.697c-0.13,3.81-0.75,7.61-0.72,11.41c0.03,3.33-0.81,5.27-4.99,4.69
			c-0.63-4.64-1.31-9.52-1.95-14.41c-0.58-4.55-1.43-5.36-6.07-5.86c-6.42-0.69-12.83-1.43-19.24-2.16
			c-6.25-0.72-7.46,0.32-7.77,6.59c-0.16,3.12-0.41,6.24-0.63,9.36c-0.01,0.18-0.16,0.35-0.42,0.95c-4.1-1.18-8.3-2.29-12.41-3.66
			c-0.47-0.15-0.89-1.83-0.63-2.54c1.4-3.86,3.05-7.62,4.55-11.45c1.54-3.92,1.23-4.94-2.09-7.46c-4.98-3.79-9.94-7.61-14.96-11.34
			c-4.03-2.99-5.31-2.87-8.72,0.75c-3.41,3.63-6.75,7.33-10.36,11.27c-7.35-8.83-13.63-17.87-18.82-27.65
			c-10.51-19.82-15.92-40.99-15.76-63.37c0.12-16.29,8.43-28.24,22.37-36.06c13.44-7.54,27.81-9.49,42.78-5.08
			c2.61,0.77,5.06,2.05,7.66,2.88c1.42,0.47,2.99,0.46,4.46,0.77c0.77,0.17,1.63,0.41,2.17,0.93c1.62,1.54,3,3.36,4.69,4.83
			c1.45,1.27,3.19,2.2,5.2,3.54c-2.36,3.76-5.01,7.98-7.79,12.41c-7.21-6.04-15.3-9.67-24.16-11.77
			c-10.34-2.44-18.85,1.37-23.74,10.88c-5.24,10.16-7.03,21.13-7.02,32.37c0.01,12.64,3.45,24.5,9.33,35.68
			c0.83,1.58,1.78,3.03,3.8,2.16c2.28-1,1.67-2.8,0.81-4.47c-5.25-10.21-8.55-20.98-8.8-32.53c-0.21-10.08,1.41-19.89,5.6-29.12
			c4.29-9.46,10.46-12.18,20.47-9.52c7.74,2.06,14.86,5.24,20.82,10.81c-2.36,3.77-4.42,7.55-6.96,10.98
			c-2.06,2.78-1.75,4.95,0.07,7.65c7,10.37,13.82,20.87,20.72,31.31c1.29,1.95,2.78,3.78,3.9,5.83c0.54,1.01,0.65,2.38,0.61,3.58
			c-0.42,10.06-1,20.12-1.27,30.18c-0.04,1.49,0.86,3.45,1.98,4.45c7.28,6.52,14.77,12.82,22.1,19.28
			C250.719,637.427,251.219,638.727,251.189,639.697z"/>
		<path class="st5" d="M744.848,548.481c-13.64-10.25-28.81-16.84-45.78-18.88c-6.53-0.77-13.15-0.79-19.73-1.15
			c-0.02,0.15-0.04,0.31-0.07,0.47c24.21,7,39.63,34.28,35.02,63.75c-2.92,18.68-13.23,34.06-26.8,42.64
			c-7.49,4.74-15.99,7.41-24.77,7.41c-2.01,0-4.03-0.14-6.06-0.43c-0.23-0.03-0.46-0.06-0.68-0.1
			c-27.27-4.26-45.37-33.34-40.43-64.95c0.26-1.65,0.57-3.26,0.94-4.85c-0.05,0.08-0.12,0.15-0.18,0.24
			c-4.61,6.07-9.19,12.17-13.86,18.2c-0.34,0.51-0.71,0.97-1.08,1.38c-0.33,0.37-0.68,0.7-1.02,0.97c-0.83,0.67-1.62,0.97-2.19,0.76
			c-0.64-0.23-1.11-1.16-1.23-2.52c-0.11-1.22,0.04-2.22,0.29-3.34c0.25-1.09,4.9-18.87,16.07-35.21c1.96-2.87,4.03-5.67,6.04-8.47
			c-4.17-4.87-8.24-9.49-12.14-14.24c-1.24-1.51-2.29-1.8-4.19-1.31c-15.39,3.99-29.25-4.61-32.26-19.86
			c-2.12-10.79,3.37-22.01,12.67-25.85c12.15-5.04,28.29,1.56,33.59,13.72c2.64,6.06,2.67,12.31,1.46,18.69
			c-0.19,0.98,0.01,2.38,0.62,3.13c3.66,4.55,7.5,8.97,11.25,13.4c0.31-0.12,0.52-0.15,0.65-0.27c0.52-0.44,1.01-0.92,1.51-1.38
			c14.85-13.69,32.22-21.89,52.39-23.87c6.21-0.61,5.81-0.57,6.78-6.78c0.8-5.09-0.8-7.77-5.17-10.44
			c-7.45-4.55-12.81-11.15-14.43-20.1c-2.02-11.12,2.32-20.15,9.8-27.87c2.98-3.07,6.65-5.47,10.15-8.3
			c-0.61-0.04-1.08-0.11-1.55-0.1c-13.2,0.52-26.41,0.81-39.59,1.6c-32.61,1.95-65.23,3.84-97.8,6.3
			c-22.71,1.72-45.41,3.88-68.01,6.68c-17.34,2.15-34.63,5.01-51.72,8.59c-27.62,5.78-55.25,11.69-82.53,18.89
			c-26.15,6.9-51.85,15.49-77.75,23.37c-0.56,0.16-1.02,0.62-1.93,1.19c6.56,1.35,12.57,2.65,18.61,3.76c1,0.18,2.25-0.23,3.22-0.71
			c8.28-4.15,16.29-8.96,24.84-12.46c20.04-8.19,41.09-11.11,62.65-9.99c25.02,1.31,48.61,7.64,69.7,21.64
			c25.75,17.08,41.27,41.34,48.98,70.94c0.61,2.35,1.17,4.74,1.42,7.15c0.1,0.97-0.46,2.62-1.15,2.9c-0.86,0.35-2.34-0.15-3.23-0.75
			c-1.09-0.75-2.01-1.88-2.72-3.02c-6.7-10.85-14.29-21.01-22.83-30.48c-10.15-11.28-20.8-21.99-33.88-29.96
			c-1.27-0.77-2.52-1.58-3.78-2.37c4.47,6.1,7.95,12.38,10.44,18.84c3.22,7.99,5.01,16.82,5.01,26.1
			c0,35.02-25.43,63.65-57.49,65.62c-1.18,0.09-2.36,0.12-3.56,0.12c-33.7,0-61.04-29.43-61.04-65.74v-0.06
			c0.02-28.02,16.33-51.94,39.27-61.37c-0.53,0.02-1.06,0.06-1.59,0.09c-23.4,1.23-44.42,9.14-63.34,22.78
			c-0.81,0.59-1.39,2.09-1.38,3.15c0.26,12.5,2.91,24.6,6.18,36.61c4.45,16.35,11.47,31.4,22.59,44.28
			c10.59,12.26,23.58,21.24,38.63,27.33c14.6,5.91,29.68,8.33,45.34,7.22c16.8-1.19,32.67-5.8,47.65-13.44
			c1.81-0.92,3.46-1.37,4.46,0.68c0.93,1.9-0.27,3.05-2.03,3.82c-4.83,2.09-9.52,4.55-14.46,6.36
			c-29.2,10.69-58.26,11.42-87.04-1.61c-0.67-0.3-1.45-0.42-2.18-0.45c-1.53-0.05-3.24,0.46-4.58-0.05
			c-9.1-3.39-17.65-7.86-25.5-13.62c-14.83-10.88-26.87-24.18-34.62-41c-7.89-17.15-14.33-34.88-19.83-52.94
			c-0.31-1.01-0.9-1.92-1.36-2.88c-0.27,0.11-0.55,0.22-0.82,0.32c-0.08,0.37-0.2,0.73-0.21,1.08c-0.21,9.49-0.35,18.97-0.63,28.45
			c-0.09,3.41-0.49,6.81-0.79,10.74c5.85,5.61,12.24,11.8,18.72,17.88c1.84,1.72,2.31,3.5,1.88,5.98
			c-1.57,9.06-2.84,18.17-4.39,27.22c-0.38,2.25,0.4,3.37,2.21,4.46c7.69,4.63,15.26,9.44,22.98,14.03c2,1.19,2.6,2.62,2.51,4.79
			c-0.27,6.15-0.6,12.31-0.57,18.48c0.03,5.38-0.16,10.56-4.08,14.8c-0.37,0.4-0.46,1.05-0.78,1.82
			c6.12,4.85,12.17,9.77,18.37,14.51c26.59,20.34,54.54,38.55,84.28,54c18.22,9.46,36.7,18.29,56.31,24.56
			c18.17,5.81,36.8,8.95,55.78,6.94c16.78-1.78,33.46-4.8,50.08-7.84c24.77-4.53,48.93-11.32,71.76-22.18
			c22.68-10.78,42.93-24.85,58.89-44.52c3.15-3.88,5.84-8.14,8.73-12.22c-2.22-0.3-3.82,0.23-5.43,0.25
			c-8.38,0.13-15.05-3.26-19.4-10.46c-4.11-6.8-3.67-13.92,0.22-20.63c1.46-2.52,1.65-4.4-0.19-6.66
			c-7.13,2.46-14.6,3.44-22.14,2.94c-7.57-0.5-15.09-1.64-22.92-2.54c-0.61,1.69-1.55,3.75-2.09,5.91
			c-0.27,1.07-0.18,2.54,0.36,3.47c5.89,10.21,3.04,21.49-7.09,27.55c-9.29,5.56-20.68,1.57-24.34-8.54
			c-4.11-11.33,0.72-22.49,12.43-27.26c3.48-1.42,4.24-3.76,5.23-6.81c-0.98-0.44-1.85-0.82-2.71-1.22
			c-3.88-1.85-7.83-3.57-11.57-5.66c-0.81-0.45-1.48-2.43-1.16-3.35c0.5-1.45,1.99-2,3.63-1.01c0.91,0.56,1.93,0.94,2.89,1.41
			c15.35,7.51,31.32,12.76,48.58,13.05c13.73,0.24,26.12-3.65,36.27-13.15c8.19-7.66,14.57-16.88,20.42-26.35
			c11.09-17.99,17.56-37.83,22.43-58.27C746.598,550.271,746.188,549.491,744.848,548.481z M641.608,481.831
			c8.38,0,15.19,6.81,15.19,15.19s-6.81,15.19-15.19,15.19s-15.19-6.81-15.19-15.19S633.228,481.831,641.608,481.831z
			 M665.058,658.921c6.68,0,12.11,5.43,12.11,12.1c0,6.69-5.43,12.12-12.11,12.12c-6.68,0-12.11-5.43-12.11-12.12
			C652.948,664.351,658.378,658.921,665.058,658.921z M495.108,538.121c-0.41,0.23-0.85,0.33-1.28,0.33c-0.93,0-1.83-0.49-2.31-1.36
			c-7.95-14.29-19.11-26.96-32.26-36.64c-12.71-9.36-27.58-16.12-43.01-19.57c-1.42-0.32-2.32-1.73-2-3.16
			c0.32-1.42,1.73-2.32,3.16-2c16.13,3.61,31.68,10.69,44.98,20.47c13.76,10.13,25.43,23.39,33.75,38.33
			C496.848,535.801,496.388,537.411,495.108,538.121z M499.408,467.871c-11.78-8.74-24.14-10.65-30.45-11.01
			c-1.46-0.08-2.57-1.33-2.49-2.79c0.08-1.46,1.31-2.57,2.79-2.49c6.9,0.4,20.41,2.49,33.3,12.05
			c13.61,10.1,19.51,23.24,21.81,30.17c0.46,1.39-0.29,2.88-1.67,3.34c-0.28,0.09-0.56,0.14-0.84,0.14c-1.1,0-2.14-0.7-2.5-1.81
			C517.248,489.131,511.858,477.111,499.408,467.871z M594.878,705.101c-7.53,11.59-15.88,22.53-26.33,31.69
			c-10.56,9.25-22.93,14.37-36.95,15.36c-17.13,1.21-34.01,0.28-50.1-6.56c-21.98-9.35-36.89-25.73-46.79-47.08
			c-1.14-2.48-2.16-5.02-3.14-7.57c-1.18-3.09-0.38-4.54,2.87-4.74c8.39-0.54,16.8-0.93,27.71-1.5c10.48,1.06,23.54,1.6,36.26,3.95
			c7.89,1.46,15.43,5.33,22.86,8.71c7.18,3.27,14.39,5.16,22.36,4.67c16.09-1,32.21-1.68,48.31-2.38c1.31-0.06,3.46,0.45,3.78,1.26
			C596.167,702.041,595.628,703.951,594.878,705.101z M613.548,647.261c0,6.67-5.43,12.1-12.11,12.1c-6.68,0-12.11-5.43-12.11-12.1
			c0-6.68,5.43-12.11,12.11-12.11C608.118,635.151,613.548,640.581,613.548,647.261z"/>
	</g>
	<g>
		<path class="st6" d="M847.189,258.827c-5.6-0.9-10.14,1.19-14.45,4.4c-2.98,2.21-3.87,1.88-5.74-1.23
			c-3.69-6.11-7.45-12.17-11.02-18.34c-1.75-3.01-3.79-6.06-4.59-9.37c-1.44-5.97-1.88-12.16-3.06-18.2
			c-0.57-2.93,0.2-4.85,2.55-6.5c1.79-1.24,3.38-2.75,5.31-4.35c-1.63-0.67-2.75-1.23-3.92-1.61
			c-25.87-8.46-52.18-14.85-79.19-18.58c-25.81-3.56-51.69-3.96-77.61-2.92c-32.35,1.29-64.63,3.91-96.69,8.49
			c-26.68,3.82-53.33,8.02-79.86,12.77c-30.98,5.55-61.51,13.22-91.63,22.31c-25.98,7.84-51.77,16.41-77.45,25.25
			c-31.15,10.72-61.44,23.67-91.46,37.23c-2.66,1.2-5.49,2.89-7.24,5.13c-11.68,14.97-20.63,31.46-26.74,49.49
			c-10.41,30.73-10.88,61.63-1.18,92.51c6.8,21.64,18.31,40.7,33.52,57.55c2.55,2.82,5.11,4.18,9.03,4.16
			c13.58-0.07,26.92-1.47,39.95-5.47c27.81-8.55,55.54-17.4,83.51-25.39c30.07-8.6,60.62-15.36,91.44-20.61
			c22.34-3.8,44.79-7.27,67.32-9.55c31.41-3.17,62.94-5.3,94.45-7.49c23.61-1.64,47.26-2.71,70.9-3.94
			c25.63-1.34,51.26-1.06,76.83,1.16c26.22,2.28,52.15,6.52,77.79,12.51c0.89,0.21,2.29,0.04,2.89-0.53
			c4.12-3.94,6.35-8.75,6.28-14.98c-3.71,1.21-7.01,2.14-10.18,3.37c-1.91,0.74-3.35,0.46-4.82-0.82
			c-3.33-2.89-6.76-5.65-10.03-8.59c-0.8-0.72-1.38-1.89-1.65-2.96c-2.67-10.18-3.2-20.49-0.85-30.78
			c3.13-13.72,10.76-24.29,22.94-31.5c1.8-1.07,3.23-0.83,4.58,0.87c2.09,2.58,4.62,4.85,6.41,7.61c2.43,3.73,5.98,4.16,9.9,4.57
			c0.11-0.8,0.23-1.36,0.27-1.94c0.48-8.2,1.14-16.39,1.4-24.6c0.38-11.93,0.38-23.87,0.71-35.8
			C856.219,286.987,850.999,272.997,847.189,258.827z M377.289,393.667c-11.53,23.14-27.11,43.1-47.15,59.5
			c-4.45,3.64-9.11,7.03-13.76,10.43c-0.87,0.63-2.18,1.11-3.2,0.99c-21.62-2.41-42-8.82-61.05-19.33
			c-3.85-2.12-7.53-4.53-11.31-6.78c-2.17-1.29-3.51-3.04-4.53-5.46c-7.92-18.78-13.52-38.26-18.87-57.89
			c-3.04-11.16-0.87-21.31,2.31-31.75c6.76-22.25,18.22-41.81,33.41-59.29c2.38-2.73,4.87-4.32,8.89-4.52
			c32.39-1.65,62.65,5.52,91.07,20.95c2.59,1.41,4.32,3.21,5.43,6.1c8.54,22.24,14.82,45.07,18.18,68.68c0.61,4.25,1.24,8.5,2,13.67
			C378.389,390.047,378.119,391.997,377.289,393.667z M598.299,350.197c-0.76,4.79-4.08,9.42-6.97,13.62
			c-17.62,25.65-40.7,44.85-69.2,57.44c-1.42,0.64-3.27,0.83-4.81,0.59c-23.74-3.74-46.37-11-67.77-21.89
			c-6.96-3.54-13.61-7.66-20.41-11.49c-2.54-1.43-4.29-3.41-5.76-5.99c-10.96-19.05-18.85-39.31-22.8-60.9
			c-2.11-11.49-2.8-23.24-3.98-34.9c-0.15-1.45,0.38-3.1,1-4.48c6-13.26,12.04-26.5,18.22-39.67c0.58-1.23,2.05-2.42,3.36-2.86
			c16.9-5.78,33.71-11.9,50.83-16.92c12.06-3.53,24.54-5.46,37.24-5.85c14.16-0.44,28.3-1.68,42.45-2.49c1.3-0.07,2.79,0.2,3.91,0.8
			c14.56,7.84,27.01,18.22,37.14,31.3c1.02,1.33,1.49,3.16,1.93,4.84c5.49,21.01,8.26,42.37,8.79,64.14
			C600.509,327.067,600.109,338.747,598.299,350.197z M786.919,353.627c-0.14,1.82-0.95,3.8-2.01,5.33
			c-11.94,17.17-24.01,34.25-35.99,51.39c-1.41,2.01-3.13,2.61-5.3,1.72c-10.56-4.34-21.23-8.44-31.62-13.16
			c-21.79-9.89-42.26-22.11-61.15-36.77c-3.05-2.37-4.63-6.86-6.4-10.59c-7.51-15.85-12.33-32.56-14.37-49.92
			c-1.28-10.96-1.44-22.05-2.11-33.07c-0.02-0.4,0.05-0.81-0.06-1.17c-1.75-6.13,1.14-10.43,4.99-14.9
			c14.16-16.41,29.6-31.42,46.77-44.68c3.13-2.41,6.17-3.41,10.16-3.08c27.45,2.26,52.32,11.4,74.62,27.51
			c1.35,0.98,2.53,2.47,3.23,3.98c13.71,29.41,20.58,60.34,20.83,92.82C788.009,337.237,787.609,345.437,786.919,353.627z
			 M840.009,297.207c-1.66,8.33-3.55,16.62-5.38,24.92c-0.22,0.94-0.42,2.01-1,2.71c-3.76,4.49-7.55,8.96-11.49,13.31
			c-1.42,1.58-3.01,0.93-4.22-0.59c-6.42-8.01-12.82-16.03-19.22-24.05c-0.18-0.23-0.27-0.56-0.49-0.73
			c-5.59-4.34-5.43-10.11-4.52-16.39c1.23-8.5,1.81-17.1,2.88-25.63c0.17-1.32,1.23-2.82,2.31-3.69c2.72-2.21,5.67-4.16,8.59-6.11
			c0.94-0.63,2.08-0.97,3.1-1.43c0.8,0.31,1.45,0.51,2.04,0.81c3.98,2.05,7.98,4.05,11.89,6.24c0.95,0.53,1.72,1.59,2.28,2.58
			c4.3,7.66,8.61,15.32,12.7,23.1C840.199,293.637,840.319,295.637,840.009,297.207z"/>
	</g>
	<g>
		<path class="st7" d="M528.189,64.457c-6.87,2.28-13.49,4.5-20.14,6.62c-0.58,0.18-1.52-0.09-2.05-0.48
			c-22.13-16.16-46.47-27.61-73.12-33.96c-9.97-2.37-20.1-4-30.13-5.96c3.57-0.41,7.41-0.91,11.27-1.28
			c22.61-2.1,45.28-2.92,67.99-2.49c2.05,0.03,4.16,0.96,6.14,1.74c16.37,6.44,29.18,17.15,38.29,32.24
			C527.079,61.947,527.539,63.117,528.189,64.457z"/>
		<path class="st7" d="M606.979,45.797c-12.92,2.69-25.18,5.05-37.35,7.85c-12.07,2.77-24.04,5.99-36.28,9.08
			c-7.66-14.84-18.93-26.56-33.88-34.88C535.909,29.327,571.509,35.247,606.979,45.797z"/>
		<path class="st7" d="M743.969,121.197c-1.66,18.43-8.16,35-18.78,50.13c-2.14,3.06-4.2,3.33-7.46,3.11
			c-12.09-0.8-24.19-1.24-36.3-1.82c-0.75-0.04-1.51-0.07-3.26-0.16c24.64-15.41,43.06-35.47,56.1-60.92
			c3.21,2.6,6.26,4.99,9.19,7.52C743.909,119.457,744.039,120.487,743.969,121.197z"/>
		<path class="st7" d="M812.129,193.897c-27.19-8.59-54.84-14.92-82.54-18.34c4.19-8.25,8.95-16.15,12.29-24.61
			c3.36-8.47,5.32-17.49,7.94-26.48C773.339,144.607,793.929,168.057,812.129,193.897z"/>
		<path class="st7" d="M730.049,108.337c-10.69,21.48-25.6,39.24-44.99,53.19c-3.71,2.68-16.17,11.18-18.56,11.34
			c-23.71,1.53-47.46,2.55-71.1,4.76c-23.34,2.19-46.56,5.59-69.84,8.47c-2.12,0.26-4.22,0.66-6.34,1c-0.1-0.22-0.2-0.45-0.3-0.68
			c6.05-5.8,11.87-11.87,18.18-17.35c18.37-15.94,36.61-32.04,55.51-47.32c23.26-18.8,48-35.58,73.51-51.23
			c0.72-0.44,2.04-0.59,2.77-0.23c20.92,10.49,40.9,22.52,59.51,36.76C728.939,107.457,729.459,107.877,730.049,108.337z"/>
		<path class="st7" d="M661.519,67.107c-4.76,3.06-9.49,6.06-14.19,9.11c-24.47,15.87-48,33.02-70.63,51.38
			c-20.34,16.51-39.87,33.95-58.49,52.38c-2.49,2.47-4.92,5.01-7.51,7.39c-0.8,0.73-1.93,1.31-3.01,1.52
			c-21.65,4.33-43.31,8.6-64.97,12.89c-1.32,0.26-2.62,0.64-3.92,0.96c-0.12-0.15-0.24-0.3-0.36-0.46
			c5.72-6.09,11.36-12.25,17.18-18.25c19.6-20.22,41.33-37.89,64.73-53.5c21.59-14.41,44.39-26.64,68.34-36.67
			c4.32-1.82,8.64-3.64,13.04-5.28c1.86-0.69,2.89-1.65,2.26-3.65c-0.76-2.38-2.66-1.69-4.14-1.13c-5.93,2.29-11.85,4.6-17.67,7.13
			c-31.59,13.78-61.09,31.12-88.34,52.21c-23.03,17.81-43.99,37.81-62.87,59.99c-0.99,1.16-2.56,2.09-4.04,2.52
			c-26.92,7.78-54,15.03-80.77,23.28c-29.33,9.04-58.03,19.94-86.44,31.57c-9.55,3.91-19.02,8.03-28.9,11.76
			c1.91-2.35,3.81-4.71,5.75-7.04c16.04-19.23,33.23-37.37,51.46-54.55c31.47-29.64,65.54-55.84,102.39-78.46
			c31.75-19.49,65.03-35.79,99.8-49.11c22.67-8.67,45.73-16.15,69.33-21.72c17.1-4.03,34.44-7.07,51.66-10.61
			c1.37-0.29,2.64-1.06,3.99-1.46c0.71-0.21,1.6-0.39,2.23-0.14c14.52,5.73,29.03,11.52,43.52,17.31
			C661.109,66.547,661.209,66.767,661.519,67.107z"/>
		<path class="st7" d="M500.859,73.247c-12.32,4.98-24.59,9.35-36.31,14.89c-6.66,3.14-12.12,2.83-18.83,0.27
			c-38.83-14.78-79.14-20.7-120.6-18.67c-20.58,1-40.82,4.29-60.75,9.48c-18.76,4.88-36.94,11.39-54.49,19.62
			c-0.94,0.44-1.92,0.76-3.17,0.56c6.92-3.92,13.73-8.08,20.81-11.69c14.8-7.55,29.55-15.23,44.68-22.08
			c20.68-9.37,42.26-16.41,64.21-22.15c12.28-3.2,24.71-5.93,37.2-8.17c5.07-0.91,10.48-0.03,15.73,0.19
			c33.1,1.41,64.2,9.92,93.09,26.25c3.74,2.11,7.45,4.29,11.11,6.55C496.009,69.827,498.359,71.557,500.859,73.247z"/>
		<path class="st7" d="M448.109,94.817c-12.67,6.59-25.33,12.9-37.73,19.7c-25.83,14.16-50.37,30.34-73.91,48.05
			c-1.06,0.8-2.77,1.15-4.13,1.05c-18.48-1.25-36.94-1.47-55.41,0.17c-18.63,1.65-37.01,4.83-55.06,9.75
			c-32.98,8.99-63.76,22.85-92.28,41.72c-13.31,8.81-26,18.41-37.83,29.12c-0.35,0.32-0.78,0.54-1.75,0.55
			c0.74-2.2,1.42-4.41,2.22-6.59c13.18-36.14,33.03-68.14,59.94-95.67c5.33-5.44,10.88-10.74,16.83-15.46
			c4.48-3.54,9.73-6.11,14.7-9.01c20.76-12.12,42.59-21.85,65.48-29.19c35.87-11.49,72.62-16.3,110.22-13.94
			c29.67,1.86,58.41,8.15,86.23,18.62C446.509,94.017,447.339,94.467,448.109,94.817z"/>
		<path class="st7" d="M328.539,168.627c-3.46,2.85-6.19,5.11-8.93,7.37c-3.62,2.99-7.22,5.99-10.86,8.95
			c-0.58,0.47-1.28,1-1.97,1.1c-41.7,5.38-81.46,17.4-119.54,35.07c-21.75,10.1-42.49,21.99-62.16,35.76
			c-15.95,11.16-31.17,23.19-45.43,36.45c-0.27,0.25-0.61,0.42-0.91,0.62c-0.24-0.1-0.49-0.2-0.73-0.3
			c1.34-6.89,2.61-13.8,4.06-20.66c0.87-4.1,2.21-8.11,3.01-12.22c0.65-3.34,2.43-5.66,4.87-7.91
			c31.48-29.09,67.17-51.39,107.41-66.13c39.22-14.37,79.76-20.59,121.53-18.58C321.799,168.287,324.699,168.437,328.539,168.627z"
			/>
		<path class="st7" d="M198.709,484.857c-5.01-0.76-9.67-1.84-14.38-2.13c-16.57-1.01-31.44,3.5-44.43,14.08
			c-14.3,11.66-19.77,26.86-18.59,44.88c0.06,0.94,0.01,1.88-0.61,3.05c-4.07-8.27-8.19-16.52-12.2-24.81
			c-1.7-3.52-3.29-7.09-4.7-10.74c-0.44-1.12-0.48-2.67-0.07-3.8c8.44-23.16,21.18-43.74,37.81-61.88
			c8.4-9.16,17.75-17.28,28.36-24.72C174.479,443.167,184.349,464.967,198.709,484.857z"/>
		<path class="st7" d="M177.699,335.057c-7.91,20.87-11.22,42.46-10.04,64.73c0.18,3.32,0.48,6.63,0.94,9.92
			c0.3,2.24,0.1,3.68-2.09,5.22c-20.24,14.24-37.08,31.83-49.91,52.98c-5.8,9.57-10.36,19.88-15.49,29.86
			c-0.25,0.48-0.54,0.94-1.15,2.01c-1.54-4.05-2.94-7.54-4.2-11.07c-8.14-22.68-14.11-45.92-17.87-69.72
			c-0.16-1.08,0.42-2.49,1.09-3.43c20.49-28.9,45.48-53.08,75.66-71.73c7.79-4.81,15.84-9.18,23.76-13.74
			c0.26,0.22,0.51,0.45,0.77,0.68C178.679,332.197,178.239,333.647,177.699,335.057z"/>
		<path class="st7" d="M299.959,192.347c-7.26,6.82-14.15,13.16-20.89,19.63c-20.63,19.79-39.71,41-57.44,63.41
			c-2.51,3.17-6.01,4.18-9.3,5.65c-3.23,1.44-5.79,3.42-7.93,6.23c-8.14,10.69-15.32,21.93-20.96,34.14
			c-0.4,0.84-1.44,1.54-2.33,1.96c-17.9,8.49-34.75,18.66-50.44,30.77c-19.94,15.37-37.32,33.21-52.27,53.45
			c-0.46,0.62-0.94,1.23-1.78,2.35c-0.62-5.31-1.32-10.11-1.73-14.93c-2.42-28.84-1.77-57.65,1.15-86.43
			c0.39-3.74,1.56-6.6,4.45-9.26c23.27-21.35,48.3-40.3,75.65-56.14c33.19-19.21,68.27-33.82,105.5-43.08
			c12.03-2.99,24.24-5.19,36.38-7.73C298.479,192.267,298.969,192.347,299.959,192.347z"/>
		<path class="st7" d="M97.359,556.127c-1.7,12.43-2.05,24.99-0.65,37.46c1.04,9.3,2.9,18.51,4.39,27.75
			c0.09,0.56,0.19,1.11-0.34,2.02c-3.01-4.24-6.23-8.33-8.99-12.73c-11.23-17.88-17.07-37.53-17.24-58.56
			c-0.07-8.2,1.51-16.56,3.36-24.61c2.55-11.11,6.04-21.99,9.14-32.97c0.09-0.34,0.26-0.66,0.52-1.31c0.52,0.97,0.95,1.61,1.25,2.3
			c4.34,10.35,8.64,20.72,13.04,31.05c0.76,1.78,0.71,3.21,0.25,5.18C100.199,539.777,98.479,547.927,97.359,556.127z"/>
		<path class="st7" d="M84.119,487.517c-7.08,17.52-11.55,35.67-13.58,54.44c-0.19,1.65-0.51,2.47-2.35,3.02
			c-1.14,0.34-2.43,2.16-2.61,3.45c-1.71,12.11-3.63,24.2-4.63,36.36c-1.71,21.01-1.2,42.04,1.05,63.02
			c0.24,2.17,0.53,4.34,0.15,6.8c-3.19-2.82-6.58-5.44-9.46-8.54c-1.27-1.36-1.52-3.69-2.18-5.61
			c-12.46-36.54-16.96-74.03-13.11-112.46c0.83-8.35,2.39-16.63,3.6-24.94c0.14-0.96,0.53-2.04,0.23-2.87
			c-0.33-0.91-1.24-2.1-2.03-2.2c-0.8-0.11-2.29,0.81-2.53,1.58c-0.81,2.48-1.26,5.1-1.7,7.7c-4.41,25.8-5.41,51.72-2.29,77.75
			c2.05,17.11,5.46,33.95,10.82,50.36c0.11,0.35,0.15,0.73-0.29,1.48c-2.94-3.4-5.94-6.75-8.8-10.23
			c-7.72-9.42-14.07-19.71-18.83-30.95c-6.56-15.45-8.26-31.36-5.17-47.93c4.12-22.1,7.64-44.32,11.82-66.4
			c2.8-14.78,6.53-29.39,9.43-44.15c3.47-17.7,4.72-35.66,5.07-53.68c0.27-13.5,0.23-27.02,1-40.49c1.11-19.55,4.59-38.8,9.1-57.85
			c1.29-5.42,2.64-10.82,4.09-16.19c0.28-1.06,0.89-2.32,1.75-2.86c8.26-5.22,16.61-10.3,24.94-15.41c0.24-0.14,0.54-0.17,1.2-0.37
			c-4.87,16.27-8.32,32.49-10.55,48.96c-2.94,21.67-3.71,43.46-3.81,65.29c-0.01,1.75,0.57,3.7-2.15,4.27
			c-0.62,0.13-1.13,1.51-1.45,2.41c-7.56,21.26-12.67,43.09-14.79,65.59c-0.29,3.12-0.48,6.24-0.73,9.36
			c-0.14,1.76,0.3,3.21,2.32,3.35c2.11,0.15,2.47-1.4,2.69-3.08c1.48-11.42,2.42-22.96,4.67-34.24c2.29-11.46,5.86-22.66,8.89-33.97
			c0.07-0.26,0.32-0.46,0.78-1.11c0.24,3.14,0.51,5.87,0.67,8.61c1.4,25.78,5.85,51.07,12.55,75.97c1.95,7.25,4.39,14.38,6.45,21.61
			C84.699,484.647,84.619,486.297,84.119,487.517z"/>
	</g>
	<g>
		<path class="st8" d="M547.038,726.101l18.48,6.41c-0.47,0.41-0.93,0.82-1.38,1.22h-0.01c-6.77,5.71-14.34,9.94-23.07,11.59
			c-26,4.89-50.82,2.39-73.15-13.25c-5.26-3.68-10-7.98-14.04-13.09l9.19,0.31l12.64,0.43l7.74,0.26l-4.77-3.43l-10.68-7.67
			l-25.16-18.07c2.55-0.15,5.1-0.4,7.65-0.42c15.56-0.12,31.22-0.34,46.42,3.13c8.35,1.91,16.24,6,24.19,9.46
			c7.7,3.36,15.51,4.77,23.95,4.05c12.85-1.09,25.75-1.6,38.64-2.35c0.18-0.01,0.36-0.01,0.56,0.01L547.038,726.101z"/>
	</g>
	<g>
		<path class="st9" d="M835.589,255.057c-1.49,1.02-3.06,2.09-4.76,3.24c-3.67-6.1-7.22-11.99-10.79-17.92
			c2.74-1.69,5.35-3.3,8.22-5.07C830.689,241.857,833.089,248.307,835.589,255.057z"/>
		<path class="st9" d="M852.939,372.127c-1.24,12.42-2.53,24.83-3.86,37.24c-0.06,0.58-0.46,1.36-0.93,1.63
			c-2.87,1.61-5.8,3.09-8.77,4.64c-1.79-2.52-3.48-4.77-4.99-7.11c-0.49-0.76-0.79-1.85-0.71-2.73c0.93-9.42,2.06-18.81,2.89-28.24
			c0.41-4.65,3.98-7.2,7.07-9.01c2.02-1.18,5.89,0.72,8.89,1.43C852.829,370.047,853.009,371.397,852.939,372.127z"/>
		<path class="st9" d="M835.229,368.997c-2.38,2.36-3.51,4.89-3.79,8.18c-0.86,9.83-1.99,19.64-2.87,29.47
			c-0.11,1.24,0.35,2.7,0.99,3.8c1.45,2.51,3.17,4.86,4.94,7.52c-1.45,0.6-2.47,0.93-3.41,1.41c-3.93,1.97-6.89,0.95-10.39-1.78
			c-4.5-3.52-6.32-7.71-6.91-13.12c-1.66-15.36,0.91-29.44,11.89-41.07c2.06-2.18,4.49-4.05,6.89-5.88
			c0.46-0.35,1.86-0.14,2.35,0.33C840.729,363.367,840.809,363.497,835.229,368.997z"/>
		<path class="st9" d="M846.889,223.977c-1.67,8.92-1.67,17.87-0.86,26.84c0.08,0.84,0.02,1.69,0.02,2.37
			c-0.4,0.2-0.49,0.28-0.58,0.28c-4.63,0.39-4.69,0.41-6.31-3.84c-2.27-5.93-4.46-11.88-6.62-17.85c-0.29-0.79-0.51-1.77-0.32-2.55
			c1.34-5.36,2.8-10.7,4.31-16.39c3.42,2.94,6.57,5.54,9.55,8.32C846.699,221.747,847.049,223.097,846.889,223.977z"/>
		<path class="st9" d="M829.749,218.287c-0.53,1.97-1.28,3.92-1.55,5.92c-0.68,4.89-3.33,8.07-7.81,9.93
			c-0.97,0.41-1.78,1.17-3.32,2.21c-0.6-3.18-1.17-5.99-1.67-8.82c-0.3-1.73-0.47-3.48-0.74-5.21c-1.36-8.88-1.39-8.93,6.25-13.99
			c0.83-0.56,2.41-0.53,3.43-0.17C831.779,210.747,831.759,210.797,829.749,218.287z"/>
		<path class="st9" d="M565.929,340.537c-11.39,15.62-25.17,28.7-41.05,39.73c-3.89,2.7-7.44,1.66-11.14,1
			c-22.34-3.95-43.32-11.69-62.83-23.29c-1.08-0.64-2.03-2.12-2.34-3.39c-5.2-21.34-10.31-42.71-15.35-64.09
			c-0.26-1.11,0-2.53,0.47-3.6c3.54-7.94,7.17-15.84,10.86-23.7c0.44-0.93,1.35-1.92,2.28-2.28c18.95-7.29,38.49-12.38,58.63-15
			c9.2-1.2,18.47-1.85,25.95-2.58c5.61,0,9.42-0.13,13.23,0.07c1.21,0.06,2.68,0.68,3.51,1.54c5.21,5.42,9.54,11.59,11.68,18.76
			c1.56,5.27,1.78,10.96,2.37,16.5c1.95,18.26,3.76,36.55,5.74,54.81C568.189,337.347,567.149,338.857,565.929,340.537z"/>
		<path class="st9" d="M518.549,387.237c-0.54,9.74-1.06,19.37-1.62,29.34c-30.53-5.13-58.62-15.87-84.95-32.54
			c5.97-7.12,11.73-13.97,17.51-20.84C470.999,375.687,493.889,383.707,518.549,387.237z"/>
		<path class="st9" d="M579.929,370.517c-15.54,19.51-34.72,34.19-57.76,45.1c0.51-9.46,0.91-18.05,1.49-26.63
			c0.06-0.99,0.81-2.28,1.64-2.82c13.55-8.79,25.45-19.44,36.1-31.55c0.05-0.06,0.18-0.05,0.7-0.18
			C567.819,359.597,573.739,364.937,579.929,370.517z"/>
		<path class="st9" d="M582.999,366.317c-5.91-5.36-11.79-10.7-17.81-16.16c2-2.71,3.73-5.18,5.63-7.51
			c0.51-0.62,1.61-1.28,2.28-1.15c6.87,1.4,13.7,2.95,20.39,4.43C594.489,351.537,588.269,359.237,582.999,366.317z"/>
		<path class="st9" d="M594.259,340.797c-6.75-1.53-13.2-2.96-19.61-4.51c-0.66-0.16-1.57-1.03-1.62-1.64
			c-1.33-13.31-2.54-26.62-3.77-39.94c-0.01-0.09,0.03-0.19,0.04-0.28h25.51C596.229,310.117,596.019,325.337,594.259,340.797z"/>
		<path class="st9" d="M594.819,288.957h-26.2c-1-7.75-1.92-14.99-2.84-22.19c7.13-4.78,14.16-9.49,22.19-14.87
			C590.319,264.647,592.569,276.777,594.819,288.957z"/>
		<path class="st9" d="M584.979,247.557c-6.78,4.56-13.45,9.03-19.95,13.4c-2.63-4.42-4.91-8.98-7.86-13.05
			c-2.87-3.98-5.5-8.49-10.84-10.35c2.05-5.35,4.2-10.97,6.44-16.82C565.379,227.587,575.729,236.587,584.979,247.557z"/>
		<path class="st9" d="M547.499,219.747c-2.31,6.1-4.41,11.76-6.61,17.39c-0.18,0.47-0.97,0.94-1.5,0.98
			c-12.66,1.03-25.33,2-37.99,2.97c-0.18,0.02-0.37-0.08-0.72-0.17c-2.2-5.82-4.43-11.73-6.79-17.99
			C511.889,221.867,529.489,220.807,547.499,219.747z"/>
		<path class="st9" d="M495.559,242.057c-3.18,0.66-6.02,1.29-8.88,1.82c-0.48,0.09-1.33-0.13-1.52-0.47
			c-3.07-5.49-6.07-11.03-9.23-16.84c4.47-0.9,8.48-1.71,12.76-2.58C491.019,230.127,493.239,235.947,495.559,242.057z"/>
		<path class="st9" d="M480.149,245.077c-1.53,0.44-2.63,0.73-3.71,1.07c-10.98,3.46-21.95,6.94-32.94,10.34
			c-0.85,0.26-2.14,0.27-2.79-0.21c-5.6-4.04-11.1-8.23-17.02-12.67c15.8-5.28,31.23-10.44,47.03-15.71
			C473.839,233.567,476.899,239.157,480.149,245.077z"/>
		<path class="st9" d="M438.519,263.567c-2.88,6.62-5.87,13.2-8.96,19.73c-0.36,0.78-1.42,1.71-2.18,1.73
			c-8.3,0.11-16.59,0.07-25.49,0.07c5.97-13.01,11.7-25.47,17.53-38.2c6.44,4.83,12.55,9.35,18.54,14.01
			C438.519,261.347,438.819,262.867,438.519,263.567z"/>
		<path class="st9" d="M444.189,361.347c-5.14,6.14-10.33,12.24-15.52,18.34c-0.11,0.13-0.35,0.16-0.52,0.23
			c-13.32-18.9-28.24-70.02-25.97-89.59h9.79c4.49-0.01,9,0.06,13.49-0.06c1.81-0.05,2.5,0.55,2.93,2.36
			c5.31,22.32,10.74,44.62,16.11,66.93C444.629,360.107,444.519,360.937,444.189,361.347z"/>
		<path class="st9" d="M372.239,392.887c-3.94,6.63-7.6,12.79-11.47,19.32c-4.37-4.71-8.44-9.09-12.58-13.56
			c2.76-3.17,5.29-6.13,7.87-9.04c0.35-0.4,1-0.96,1.36-0.86C362.179,390.017,366.929,391.387,372.239,392.887z"/>
		<path class="st9" d="M250.409,412.887c-2.97,5.8-6.02,11.58-9.33,17.89c-8.92-20.83-15.3-41.94-20.07-64.27
			c6.73,3.09,12.85,5.88,18.93,8.73c0.43,0.2,0.79,0.83,0.94,1.34c3.27,11.35,6.54,22.71,9.74,34.09
			C250.809,411.337,250.729,412.267,250.409,412.887z"/>
		<path class="st9" d="M272.589,428.957c-2.02,5.54-4.19,11.46-6.53,17.9c-6.72-3.74-13.19-7.29-19.59-10.97
			c-0.58-0.33-1.19-1.72-0.95-2.19c2.96-5.83,6.06-11.58,9.14-17.34c0.08-0.13,0.33-0.18,0.17-0.1
			C260.709,420.467,266.459,424.577,272.589,428.957z"/>
		<path class="st9" d="M312.369,459.247c-14.44-1.63-27.99-5.34-41.4-10.66c2.17-5.96,4.33-11.87,6.54-17.92
			c10.09,4.16,20.36,6.17,31.3,6.09C309.989,444.167,311.139,451.447,312.369,459.247z"/>
		<path class="st9" d="M357.559,416.327c-11.18,15.55-24.43,28.95-40.31,40.43c-0.74-4.59-1.07-8.89-2.19-12.99
			c-1.32-4.84,0.34-7.93,3.66-11.47c8.54-9.11,16.48-18.78,24.67-28.22c0.37-0.42,0.86-0.74,1.48-1.27
			C349.069,407.277,353.189,411.667,357.559,416.327z"/>
		<path class="st9" d="M372.999,387.577c-4.95-1.34-9.82-2.59-14.61-4.04c-0.71-0.22-1.31-1.36-1.62-2.2
			c-7.09-18.93-14.15-37.87-21.12-56.84c-0.29-0.78,0.07-2.25,0.67-2.84c4.29-4.26,8.73-8.37,13.11-12.55
			c0.97-0.93,1.86-1.94,2.8-2.9C358.719,315.317,372.229,368.007,372.999,387.577z"/>
		<path class="st9" d="M347.539,303.757c-5.04,4.77-9.85,9.32-14.5,13.71c-10.83-2.8-21.49-5.56-32.15-8.34
			c-9.54-2.48-19.09-4.99-28.63-7.5c-3.66-0.96-4-0.81-5.43,2.75c-0.58,1.44-1.17,2.88-1.94,4.77c-4.92-4.6-9.64-9.02-14.56-13.62
			c2.86-3.27,5.61-6.52,8.49-9.65c0.58-0.62,1.65-1.05,2.52-1.09c29.92-1.58,58.28,4.22,84.92,18.05
			C346.599,303.007,346.889,303.277,347.539,303.757z"/>
		<path class="st9" d="M262.129,316.157c-6.91,17.52-13.91,35-20.9,52.48c-0.13,0.35-0.43,0.63-0.79,1.14
			c-6.47-2.97-12.92-5.92-19.67-9.01c4.15-22.28,13.07-42.48,26.49-61.07c4.97,4.71,9.81,9.23,14.53,13.87
			C262.289,314.067,262.419,315.437,262.129,316.157z"/>
		<path class="st9" d="M351.509,386.787c-12.43,14.44-24.93,28.81-37.5,43.13c-0.66,0.76-1.94,1.33-2.96,1.39
			c-20.99,1.07-38.93-5.96-53.76-20.75c-1.54-1.55-2.45-3.97-3.1-6.14c-2.98-10.02-5.8-20.08-8.6-30.15
			c-0.24-0.86-0.2-1.96,0.13-2.79c8.39-21.14,16.83-42.27,25.27-63.4c0.14-0.35,0.34-0.68,0.64-1.26
			c12.15,3.15,24.05,6.23,35.94,9.32c6.52,1.69,13.06,3.34,19.55,5.16c0.95,0.26,2.11,1.16,2.44,2.05
			c7.58,20.1,15.06,40.23,22.47,60.4C352.349,384.597,352.099,386.107,351.509,386.787z"/>
		<path class="st9" d="M697.479,225.157c-2.19,2.82-4.32,5.58-6.47,8.33c-6.97,8.92-13.96,17.81-20.89,26.76
			c-0.99,1.28-1.91,1.78-3.65,1.55c-10.15-1.3-20.32-2.43-31.25-3.7c14.32-17.57,30.19-32.66,47.86-46.41
			C687.909,216.207,692.599,220.597,697.479,225.157z"/>
		<path class="st9" d="M783.419,328.927c-0.54,7.9-0.78,15.83-1.79,23.67c-0.35,2.78-2.53,5.34-3.99,7.93
			c-1.65,2.92-3.8,5.1-7.13,6.44c-5.87,2.37-11.46,5.42-17.26,8c-1.07,0.48-2.76,0.57-3.76,0.05
			c-19.7-10.18-39.34-20.46-58.95-30.81c-0.99-0.51-1.94-1.66-2.29-2.73c-5.07-15.38-10.05-30.79-14.97-46.21
			c-0.55-1.73-0.75-3.63-0.77-5.45c-0.1-6.75,0.01-13.5-0.09-20.25c-0.04-2.65,0.64-4.79,2.34-6.95
			c10.33-13.01,20.5-26.15,30.78-39.19c0.65-0.82,1.83-1.53,2.86-1.69c5.4-0.81,10.96-0.94,16.21-2.3c3.8-0.98,6.86-0.03,9.84,1.56
			c8.59,4.62,17.05,9.5,25.54,14.3c3.67,2.07,4.42,6.08,5.88,9.49c9.63,22.47,15.24,45.94,16.84,70.33
			c0.3,4.58,0.04,9.19,0.04,13.79C782.969,328.917,783.199,328.927,783.419,328.927z"/>
		<path class="st9" d="M767.839,374.377c-6.01,8.53-11.81,16.76-17.61,24.99c-0.16-0.06-0.33-0.11-0.5-0.17
			c1.03-5.86,2.02-11.72,3.1-17.57c0.09-0.45,0.68-0.94,1.16-1.18c4.12-1.99,8.26-3.93,12.41-5.86
			C766.709,374.447,767.109,374.477,767.839,374.377z"/>
		<path class="st9" d="M717.459,215.317c-3.07,0.39-6.14,0.9-9.24,1.12c-3.24,0.22-5.78,1.43-7.36,4.8
			c-4.01-3.79-7.72-7.28-11.43-10.78c0.09-0.28,0.18-0.56,0.28-0.84c9.23,1.59,18.47,3.19,27.71,4.78
			C717.429,214.707,717.449,215.007,717.459,215.317z"/>
		<path class="st9" d="M667.069,267.097v21.48c-10.62,3.16-21.16,6.31-32.05,9.55c-0.73-11.78-1.45-23.23-2.19-35.13
			C644.459,264.387,655.669,265.737,667.069,267.097z"/>
		<path class="st9" d="M682.399,340.507c-10.17,4.65-20.28,9.28-30.68,14.04c-8.25-16.14-13.68-33.05-16.12-51.2
			c10.78-3.2,21.21-6.29,31.83-9.44C672.489,309.677,677.439,325.077,682.399,340.507z"/>
		<path class="st9" d="M747.509,381.487c-1.31,8.09-2.81,16.14-4.35,24.62c-31.88-11.33-61.08-27.06-88.33-47.29
			c9.75-4.46,19.15-8.76,28.03-12.82c5.49,2.93,10.68,5.75,15.91,8.49c15.67,8.2,31.36,16.36,46.99,24.61
			C746.569,379.527,747.629,380.787,747.509,381.487z"/>
		<path class="st9" d="M828.749,322.787c-2.63,2.99-5.35,6.09-8.4,9.55c-6.77-8.49-13.31-16.67-20.12-25.21
			c4.52-3.73,8.77-7.24,13.22-10.92C818.559,305.087,823.559,313.767,828.749,322.787z"/>
		<path class="st9" d="M835.049,296.367c-1.38,6.26-2.79,12.51-4.34,19.39c-2.31-4.02-4.35-7.6-6.42-11.17
			c-2.15-3.72-4.34-7.41-6.45-11.15c-0.39-0.7-0.79-1.71-0.59-2.39c1.76-5.86,3.65-11.67,5.71-18.12
			c4.21,7.62,8.13,14.67,11.98,21.74C835.199,295.127,835.169,295.827,835.049,296.367z"/>
		<path class="st9" d="M818.429,269.857c-0.37,1.22-0.9,3.05-1.47,4.87c-0.37,1.21-0.79,2.4-1.18,3.6
			c-4.56,14.05-4.56,14.05-17.19,23.13c0.89-9.57,1.7-18.78,2.67-27.98c0.11-1.07,1.18-2.03,1.81-3.04c0.05-0.07,0.17-0.1,0.24-0.16
			C808.009,265.847,812.869,263.607,818.429,269.857z"/>
	</g>
	<g>
		<path class="st10" d="M797.819,463.927c-0.94,18.38-6.98,34.97-13.53,51.42c-0.07,0.18-0.26,0.33-0.28,0.51
			c-1.05,7.7-7.3,8.38-13.73,9.95c2.99-4.72,5.57-9.03,8.4-13.18c1.54-2.24,1.69-4.26,0.87-6.84c-3.29-10.35-4.08-20.7,0.93-30.82
			C783.979,467.907,789.929,464.667,797.819,463.927z"/>
		<path class="st10" d="M722.769,489.927c-0.87,0.43-1.75,1.07-2.67,1.17c-5.19,0.54-6.39,4.18-6.98,8.51
			c-0.36,2.69-1.05,5.34-1.62,8.12c-4.98-0.58-9.8-1.14-15.1-1.75c0.22-3.69,0.22-7.38,0.71-11c0.47-3.55-0.4-5.73-3.88-7.38
			c-5.54-2.63-10.06-6.71-13.3-12c-5-8.15-4.12-16.46,0.61-24.15c5.72-9.32,13.99-15.5,25.23-16.67
			c12.22-1.27,21.71,3.81,28.77,13.45C745.739,463.497,738.859,481.937,722.769,489.927z"/>
		<path class="st10" d="M626.779,535.957c-1.35,1.55-2.56,2.95-3.93,4.52c-4.45-5.15-8.97-10.12-13.16-15.36
			c-2-2.5-3.84-2.89-6.77-1.77c-8.14,3.14-17.25,0.65-22.89-5.91c-8.24-9.58-4.85-25.87,6.38-29.89c6.66-2.39,12.96-0.86,18.6,3.16
			c8.01,5.7,10.87,14.35,8.02,24.65c-0.71,2.55-0.15,4.22,1.47,6.07C618.619,526.127,622.579,530.967,626.779,535.957z"/>
		<path class="st10" d="M627.589,686.207c-8.37,1.6-14.63-4.83-14-14.26c0.51-7.53,4.91-12.15,11.6-14.25
			c3.56-1.11,5.21-2.98,6.09-6.19c0.27-1.01,0.73-1.97,1.16-3.13c1.9,0.6,3.54,1.12,5.57,1.76c-0.8,2.33-1.4,4.67-2.4,6.83
			c-1.19,2.57-0.9,4.59,0.74,7C642.309,672.717,637.659,684.287,627.589,686.207z"/>
		<path class="st10" d="M715.699,679.367c-2.91,4.44-7.11,5.72-11.96,4.89c-11.7-2.01-17.27-14.43-10.53-24.18
			c2.28-3.29,2.16-5.7,0.53-8.72c-0.19-0.34-0.34-0.7-0.49-1.06c-0.03-0.07,0.01-0.18,0.03-0.48c2.53-1.45,4.97-2.84,7.58-4.33
			c0.27,0.68,0.48,1.1,0.6,1.54c1.12,4.12,3.27,6.9,7.57,8.71C717.409,659.267,720.619,671.867,715.699,679.367z"/>
		<path class="st10" d="M609.439,647.257c0,4.4-3.59,7.99-8,7.99c-4.41,0-8-3.59-8-7.99c0-4.41,3.59-8,8-8
			C605.849,639.257,609.439,642.847,609.439,647.257z"/>
		<path class="st10" d="M673.059,671.017c0,4.42-3.59,8.01-8,8.01c-4.41,0-8-3.59-8-8.01c0-4.41,3.59-7.99,8-7.99
			C669.469,663.027,673.059,666.607,673.059,671.017z"/>
		<path class="st10" d="M759.019,500.307c0,5.22-4.25,9.47-9.47,9.47c-5.22,0-9.47-4.25-9.47-9.47c0-5.23,4.25-9.48,9.47-9.48
			C754.769,490.827,759.019,495.077,759.019,500.307z"/>
		<path class="st10" d="M651.639,497.017c0,5.53-4.5,10.03-10.03,10.03c-5.53,0-10.04-4.5-10.04-10.03
			c0-5.53,4.51-10.04,10.04-10.04C647.139,486.977,651.639,491.487,651.639,497.017z"/>
	</g>
</g>
</svg>
