<?xml version="1.0" encoding="utf-8"?>
<!-- Generator: Adobe Illustrator 26.0.0, SVG Export Plug-In . SVG Version: 6.00 Build 0)  -->
<svg version="1.1" id="Layer_1" xmlns="http://www.w3.org/2000/svg" xmlns:xlink="http://www.w3.org/1999/xlink" x="0px" y="0px"
	 viewBox="0 0 864 864" style="enable-background:new 0 0 864 864;" xml:space="preserve">
<style type="text/css">
	.st0{fill:#FDD9B2;}
	.st1{fill:#E38F49;}
	.st2{fill:#FFFFFF;}
	.st3{fill:#C03827;}
	.st4{fill:#FFD459;}
</style>
<g>
	<g>
		<path d="M826.421,222.499c-4.43,3.87-9.1,7.44-13.92,11.37c5.22,5.38,11.39,8.8,18.5,10.6c1.58,0.41,3.19,0.69,4.78,1.01
			c2.13,0.43,3.85,1.73,3.71,3.81c-0.1,1.54-1.22,3.36-2.44,4.42c-1.93,1.69-4.34,2.85-6.49,4.98c3.35,0.22,6.71,0.49,10.07,0.62
			c2.39,0.1,4.13,0.99,4.9,3.35c0.77,2.35-0.46,3.88-2.22,5.15c-0.82,0.6-1.63,1.22-2.5,1.75c-14.15,8.65-28.27,17.35-42.5,25.87
			c-2.17,1.3-2.69,2.26-1.79,4.74c7.81,21.58,22.28,37.08,42.61,47.32c0.65,0.33,1.48,0.49,1.88,0.99c1.06,1.32,2.66,2.8,2.66,4.22
			c0,1.43-1.34,3.41-2.65,4.19c-16.75,9.91-34.84,13.17-54.05,10.43c-0.96-0.14-1.94-0.21-3.9-0.42c3.79,8.25,7.2,15.82,10.78,23.3
			c0.36,0.74,1.8,1.2,2.8,1.34c13.52,1.76,27.05,3.46,40.58,5.14c4.9,0.61,6.38,3.93,3.52,8.15c-5.94,8.74-13.15,16.3-21.59,22.67
			c-0.47,0.36-0.93,0.73-1.93,1.53c3.96,5.06,7.52,10.29,11.77,14.86c4.35,4.66,9.39,8.68,14.11,12.98c3.95,3.6,3.74,6.85-1.28,8.74
			c-9.19,3.48-18.49,6.94-28.02,9.3c-12.51,3.09-25.36,3.74-38.24,2.25c-0.48-0.06-0.98,0.05-1.7,0.1c1.5,4.89,3.45,9.53,4.25,14.35
			c1.06,6.39,6.53,7.67,10.7,10.42c3.42,2.26,4.47,5.3,1.91,7.67c-0.87,0.81-2.32,1.22-3.54,1.35c-2.09,0.21-4.21,0.06-6.64,0.06
			c2.05,7.38,4.99,13.91,8.83,20.05c5.35,8.53,11.88,16,19.98,22.05c2.07,1.55,3.73,3.3,2.69,6.09c-0.99,2.63-3.33,2.94-5.79,3.03
			c-12.72,0.46-25.44,1.02-38.16,1.41c-1.93,0.06-2.62,0.7-2.95,2.53c-3.18,17.65,0.59,33.68,11.74,47.67
			c17.12,21.47,39.68,27.74,66.01,22.59c2.54-0.5,4.98-0.81,6.58,1.67c1.53,2.38,0.27,4.43-1.22,6.39
			c-14.6,19.24-33.65,30.96-57.74,34.14c-0.89,0.11-1.76,0.38-3.06,0.68c0.99,0.77,1.66,1.33,2.36,1.85
			c13.26,9.76,21.4,23.22,27.47,38.15c6.35,15.65,8.61,31.94,7.53,48.75c-0.16,2.45-0.91,4.4-3.57,5.02
			c-2.81,0.64-4.31-0.87-5.47-3.21c-8.87-17.88-22.75-29.66-42.27-34.47c-2.37-0.58-4.8-0.9-7.21-1.31
			c-0.57-0.09-1.16-0.08-2.44-0.14c1.61,1.95,2.87,3.43,4.09,4.95c11.22,14.01,16.83,30.04,16.95,47.94
			c0.01,1.54-1.39,3.6-2.74,4.51c-1.91,1.3-3.82,0.1-5.32-1.57c-8.43-9.31-18.47-16.23-30.44-20.18
			c-11.11-3.66-22.45-4.37-35.08-2.4c2.44,2.47,4.15,4.39,6.04,6.11c9.14,8.29,19.45,14.72,31.03,19.03c2.16,0.8,4.26,2,4.01,4.31
			c-0.2,1.72-1.54,3.82-3,4.8c-16.97,11.4-35.51,15.24-55.6,11.08c-0.67-0.13-1.35-0.15-2.24-0.25c0.14,2.82,0.44,5.43,0.37,8.02
			c-0.37,13.14-6.44,23.74-15.01,33.18c-1.31,1.44-2.53,3.09-4.14,4.04c-1.59,0.95-3.78,1.86-5.43,1.5
			c-2.44-0.53-2.83-2.97-2.79-5.43c0.09-7.11,0-14.23-0.07-21.34c-0.01-1.08-0.28-2.17-0.94-3.34c-0.52,1.22-1.01,2.46-1.54,3.67
			c-5.5,12.59-14.72,21.27-27.44,26.33c-2.21,0.88-4.32,0.95-5.89-0.86c-1.57-1.82-1.13-3.92-0.03-5.98
			c7.02-13.08,8.05-26.67,3.34-40.99c-2.98,3.62-5.55,7.27-8.62,10.42c-15.08,15.43-33.73,20.42-54.72,18.16
			c-2.71-0.3-5.51-0.66-8.04-1.59c-1.32-0.49-2.93-2.25-3.01-3.53c-0.09-1.43,1.03-3.56,2.27-4.34c6.26-3.91,13.07-7.02,19.08-11.27
			c12.5-8.83,18.41-21.52,20.1-36.52c1.01-8.94-0.39-17.67-1.57-26.44c-1.99-14.85,0.76-28.97,6.72-42.57
			c0.59-1.34,2.64-2.46,0.41-3.93c-8.06,4.3-15.99,8.79-24.15,12.83c-29.31,14.48-59.14,27.8-90.59,37
			c-16,4.69-32.16,8.87-48.37,12.81c-10.48,2.54-21.09,1.1-31.54-0.83c-21.57-3.97-42.56-10.04-63.13-17.64
			c-31.4-11.59-60.66-27.23-88.07-46.39c-0.33-0.22-0.64-0.48-1-0.65c-0.1-0.05-0.27,0-0.31,0.04c2.22,7.79,4.61,15.56,6.65,23.43
			c4.47,17.28,5.5,34.94,5.28,52.71c-0.08,6.38,0.7,12.57,3.05,18.56c4.05,10.39,11.07,18.38,19.88,24.97
			c2.11,1.58,4.31,3.07,6.52,4.51c1.89,1.23,2.93,2.83,2.39,5.11c-0.58,2.49-2.39,3.28-4.77,3.42c-23.7,1.29-43.47-6.83-59.21-24.65
			c-1.19-1.35-2.34-2.72-4.1-4.76c-1.18,4.73-2.5,8.77-3.16,12.91c-1.83,11.51-0.48,22.74,3.75,33.59c0.85,2.2,1.51,4.33-0.44,6.21
			c-1.92,1.86-4.17,1.32-6.3,0.45c-14.98-6.14-25.69-16.2-29.62-32.45c-0.1-0.44-0.36-0.84-1.29-1.16c0,4.9-0.02,9.8,0.02,14.7
			c0.01,0.7,0.25,1.4,0.44,2.09c0.61,2.2,0.09,4.09-1.76,5.43c-1.94,1.4-3.92,0.85-5.68-0.38c-8.3-5.77-14.54-13.16-16.6-23.23
			c-0.94-4.63-0.7-9.5-0.98-14.25c-0.06-0.99-0.01-1.99-0.01-3.09c-5.67-0.29-11.26-0.31-16.79-0.9c-9.4-1.01-18.83-2.02-28.12-3.74
			c-4.72-0.87-9.19-3.2-13.7-5.05c-2.2-0.91-4.14-2.31-4.01-5.17c0.12-2.76,2.18-3.73,4.28-4.61c11.87-5,22.91-11.44,33.26-19.1
			c0.49-0.36,0.99-0.71,1.45-1.11c0.12-0.09,0.08-0.36,0.14-0.76c-6.67-1.27-13.32-0.62-19.95,0.12
			c-16.65,1.85-31.63,8.02-45.38,17.49c-1.21,0.83-3.66,1.28-4.67,0.61c-1.33-0.89-2.58-3.11-2.51-4.69
			c0.66-13.44,4.38-26.05,11.41-37.56c2.83-4.63,6.16-8.96,9.63-13.96c-3.47,0.54-6.54,0.85-9.55,1.51
			c-19.67,4.3-33.92,15.55-42.86,33.58c-0.61,1.24-1.39,2.63-2.49,3.35c-3.35,2.17-6.83-0.15-6.71-4.68
			c0.24-8.64,0.45-17.31,1.33-25.91c0.98-9.74,3.35-19.19,7.45-28.18c4.74-10.41,11.99-18.24,22.38-23.15
			c5.95-2.82,11.78-5.88,18.23-9.12c-3.92-0.47-7.3-0.76-10.65-1.3c-15.55-2.51-29.81-8.12-42.13-18.11
			c-6.84-5.55-12.68-12.03-17.39-19.51c-1.27-2-1.68-4-0.08-5.9c1.58-1.87,3.6-1.8,5.83-0.99c21.18,7.67,41.22,5.64,58.4-9.34
			c17.58-15.34,24.23-35.17,20.08-58.37c-0.44-2.49-1.57-3.39-4.23-3.4c-12.63-0.07-25.26-0.37-37.89-0.61
			c-4.69-0.09-7.01-1.99-6.04-5.41c0.45-1.57,2.19-3.12,3.73-3.99c9.13-5.17,16.53-12.15,22.13-20.99c3.6-5.69,6.38-11.8,7.58-19.09
			c-2.78-0.16-5.46-0.34-8.13-0.47c-1.94-0.09-4,0.28-5.77-0.29c-1.74-0.57-3.82-1.74-4.6-3.24c-1.06-2.07,0.35-3.96,2.35-5.31
			c7.04-4.81,14.01-9.72,20.19-14.02c-1.21-4.55-2.14-8.06-3.16-11.95c-1.59,0-3.48-0.04-5.37,0.02
			c-19.86,0.63-38.62-3.49-56.19-12.83c-4.86-2.58-5.01-5.25-1.02-9.23c8.14-8.1,16.06-16.42,24.14-24.58
			c1.71-1.73,1.61-2.64-0.38-4.25c-8.83-7.14-16.56-15.33-22.68-24.97c-2.54-3.99-1-7.3,3.74-7.65c13.19-0.99,26.39-1.99,39.6-2.79
			c2.71-0.16,4.04-0.94,4.92-3.67c2.31-7.03,5.05-13.91,7.73-21.15c-3.02,0-5.61-0.11-8.19,0.01c-17.12,0.79-33.67-1.99-49.69-7.97
			c-1.58-0.6-3.35-1.71-4.14-3.1c-1.48-2.59,0.1-5.15,3.32-6.25c10.43-3.57,19.88-8.73,27.88-16.45c9.2-8.87,15.21-19.5,18.16-31.91
			c0.44-1.84-0.36-2.52-1.74-3.29c-14.84-8.36-28.81-18.01-42.07-28.69c-0.87-0.7-1.76-1.42-2.44-2.29
			c-2.07-2.63-0.83-6.13,2.44-6.84c1.28-0.28,2.62-0.25,3.94-0.35c1.17-0.07,2.35-0.13,4.49-0.25c-1.9-1.18-3.33-1.65-4.12-2.64
			c-1.06-1.3-2.46-3.17-2.19-4.48c0.3-1.51,2.04-3.19,3.57-3.89c5.13-2.34,10.61-3.97,15.64-6.52c2.67-1.35,4.68-4.03,7.17-6.28
			c-4.45-3.67-8.49-6.88-12.39-10.26c-11.72-10.14-21.47-21.94-29.62-35.11c-1.27-2.04-2.13-4.01-0.38-6.15
			c1.7-2.08,3.79-1.85,6.09-1.08c13.18,4.4,26.69,7.28,40.47,8.97c0.96,0.12,1.94,0.01,3.63,0.01c-2.72-2.94-5.08-5.38-7.31-7.94
			c-15.38-17.62-26.74-37.54-34.36-59.65c-4.27-12.37-6.84-25.09-8.55-38.03c-0.33-2.44,0.17-4.61,2.54-5.64
			c2.33-1.02,4.24-0.11,5.86,1.88c14.16,17.29,32.05,28.61,53.89,33.56c2.68,0.6,5.41,0.96,8.13,1.37c0.98,0.16,1.99,0.16,3.25,0.25
			c-1.87-3.99-3.62-7.75-5.37-11.52c-0.3-0.65-0.55-1.31-0.81-1.97c-0.76-1.96-1.33-3.98,0.33-5.73c1.7-1.8,3.75-1.49,5.94-0.9
			c5.21,1.39,10.39,3.31,15.69,3.71c7.46,0.56,15-0.05,22.51-0.16c2.12-0.03,1.91-1.41,1.92-2.97c0.07-12.3,0.11-24.62,0.44-36.92
			c0.12-4.25,1.04-8.48,1.57-12.73c0.29-2.26,1.48-3.71,3.76-4.2c2.39-0.51,3.79,0.66,4.9,2.66c8.23,14.79,17.56,28.86,28.09,42.12
			c1.44,1.81,2.87,2.65,5.27,2.79c10.13,0.6,19.22-1.8,26.72-8.86c7.22-6.8,15.54-10.62,25.59-10.23c0.17,0,0.34-0.19,0.75-0.43
			c-1.69-2.93-3.43-5.85-5.05-8.82c-5.69-10.42-8.16-21.65-8.18-33.46c0-0.3,0-0.61,0.01-0.91c0.02-2.28,0.09-4.6,2.53-5.76
			c2.43-1.18,4.16,0.36,6.1,1.58c4.29,2.71,8.6,5.43,13.13,7.7c7.15,3.6,14.88,4.45,22.86,4.29c17.5-0.35,35.03-0.92,52.51-0.39
			c10.18,0.3,20.31,2.56,30.26,3.92c-3.9-6.31-7.27-13.43-8.21-21.41c-0.46-3.92-0.5-7.91-0.55-11.87
			c-0.03-2.23,0.66-4.28,3.13-5.06c2.23-0.7,3.84,0.25,5.39,1.87c8.29,8.68,18.46,13.2,30.41,14.55c13.24,1.5,26.46,3.46,39.15,7.79
			c10.4,3.55,19.23,9.66,26.9,17.44c1.17,1.18,1.88,1.54,3.22,0.29c13.38-12.57,29.14-20.23,47.33-22.86
			c18.29-2.65,35.23-8.95,50.78-18.97c0.77-0.49,1.6-0.9,2.43-1.29c3.81-1.83,6.8-0.06,6.77,4.2c-0.13,13.93-4.46,26.51-13.11,38.52
			c2.83-0.69,5-1.23,7.16-1.76c16.93-4.19,33.97-8.02,51.52-7.26c8.28,0.34,16.64,1.56,24.72,3.44c12.12,2.82,22.29-0.52,31.52-8.06
			c2.51-2.05,4.55-4.67,7.06-6.71c1.29-1.05,3.19-1.99,4.75-1.89c2.17,0.15,3.19,2.05,3.57,4.3c3.04,17.68-1.84,32.8-14.48,45.48
			c-0.22,0.21-0.46,0.39-0.68,0.61c-0.06,0.06-0.05,0.19-0.1,0.4c3.8,0.9,7.77,1.37,11.38,2.79c6.81,2.66,13.52,5.62,20.03,8.91
			c9.31,4.7,18.98,6.64,29.28,4.96c1-0.17,2.14-1.02,2.74-1.88c8.59-12.58,15.44-26.06,20.88-40.28c0.58-1.5,1.61-3.24,2.92-3.94
			c2.65-1.43,5.44,0.06,6.16,3.35c2.01,9.24,4.29,18.46,5.39,27.82c0.9,7.63,0.26,15.44,0.3,23.16v3.55
			c4.51,0.2,8.96,0.78,13.37,0.51c8.21-0.5,16.39-1.45,24.57-2.3c2.1-0.22,4.1-0.46,5.54,1.5c1.51,2.04,0.95,4.02-0.28,5.95
			c-2.69,4.19-5.38,8.39-8.59,13.38c4.81-2.02,8.95-3.66,12.99-5.49c19.72-8.93,38.21-19.93,55.36-33.14
			c1.8-1.38,3.54-2.41,5.85-1.29c2.53,1.23,2.52,3.48,2.33,5.77c-1.8,21.73-7.35,42.44-16.98,62.02
			c-7.56,15.35-17.21,29.27-28.78,41.87c-0.45,0.5-0.78,1.1-1.38,1.95c11.84-0.82,22.84-3.49,33.52-7.58
			c3.52-1.34,6.95-2.9,10.39-4.41c2.05-0.89,3.97-1,5.6,0.74c1.6,1.72,1.55,3.59,0.47,5.61
			C848.021,199.569,838.441,212.019,826.421,222.499z"/>
	</g>
	<g>
		<path class="st0" d="M164.248,593.915c0.2,10.46-3.27,20.38-7.49,30.84c-5.08-4.82-10.16-8.94-14.4-13.78
			c-12.98-14.88-22.53-31.63-23.9-51.73c-1.25-18.46,4.85-34.5,18.99-46.86c5.41-4.72,11.67-4.7,18.34-2.01
			c4,1.61,5.56,3.78,5.17,7.98c-0.24,2.6,0.23,5.28,0.37,7.92c0.01,0.08-0.09,0.17-0.21,0.39c-0.3,0-0.72,0.13-1.02-0.02
			c-3.92-1.88-7.29-2.21-10.18-1.41c-4.52,1.25-8.05,6.48-9.65,9.48c0,0-3.1,5.81-2.11,15.72c0.09,0.92,0.32,2.1,1.23,2.68
			c0.51,0.33,1.31,0.5,1.87,0.18c1.06-0.61,0.91-2.71,0.86-3.51c-0.19-3.41,0.14-10.69,2.5-15.11c3.48-6.54,10.66-7.82,16.15-2.89
			c0.52,0.47,0.96,1.32,0.99,2.01C162.668,553.835,163.848,573.865,164.248,593.915z"/>
		<path class="st0" d="M740.638,573.575c-6.31,19.94-16.62,37.47-33.12,52.17c-1.87-4.89-3.71-9.36-5.29-13.91
			c-6.31-18.1-7.44-36.82-6.33-55.76c0.45-7.62,1.09-15.23,1.87-22.82c0.13-1.25,1.21-2.62,2.23-3.49c1.12-0.96,2.64-1.51,4.05-2.08
			c8.86-3.58,16.86,0.3,19.76,9.44c1.37,4.31,1.44,8.59,0.41,12.94c-0.02,0.05-0.41,1.03-0.49,2.36c-0.04,0.74-0.03,1.16,0.23,1.63
			c0.27,0.49,0.68,0.76,0.93,0.89c0.38,0.06,1.01,0.07,1.54-0.3c0.56-0.41,0.72-1.05,0.8-1.37c1.88-7.11,1.61-10.52,1.61-10.52
			c-0.15-2.28-0.63-4.55-1.45-6.81c-0.89-2.43-2.18-4.82-3.74-6.89c-4.68-6.22-12.39-8.3-19.66-5.53c-1.69,0.64-3.34,1.4-5.38,2.25
			c0.37-4.38,0.7-8.4,1.09-12.42c0.03-0.34,0.34-0.81,0.65-0.94c7.07-3.1,14.21-5.96,21.97-2.37c5.83,2.68,9.95,7.25,13.41,12.51
			C746.328,538.695,746.218,555.935,740.638,573.575z"/>
		<path class="st0" d="M681.558,460.155c-0.15-10.37,0.39-20.8-0.43-31.11c-1.15-14.32-6.53-27.43-13.7-39.8
			c-1.18-2.03-1.65-3.93,0-5.88c1.63-1.94,3.66-1.79,5.82-1.09c1.77,0.58,3.57,1.06,5.88,1.74c-4.03-14.99-10.71-27.57-21.35-37.91
			c-0.65-0.63-1.62-1.25-1.8-2.02c-0.38-1.65-0.95-3.71-0.28-5c0.61-1.15,2.72-1.64,4.27-2.11c0.91-0.27,2.01,0.07,3.67,0.18
			c-15.25-12.85-33.56-25.35-58.33-35.55c-2.12-0.87-3.07-2.31-3.13-4.38c-0.06-2.24,1.32-3.53,3.35-4.2
			c2.37-0.79,4.74-1.56,7.56-2.5c-0.76-0.49-1.04-0.76-1.37-0.88c-16.48-6.23-33.5-10.21-51.08-11.37
			c-8.21-0.53-16.48-0.24-24.72-0.28c-2.49-0.02-4.76-0.43-5.64-3.15c-0.84-2.59,0.59-4.26,2.59-5.61c1.09-0.75,2.15-1.53,3.23-2.3
			c-5.59-0.66-11-0.91-16.37-0.62c-13.82,0.76-27.63,1.74-41.43,2.7c-2.39,0.17-4.56,0.09-5.81-2.28c-1.17-2.22-0.16-4.06,1.23-5.85
			c1.6-2.05,3.08-4.2,4.93-6.76c-1.01,0.12-1.47,0.13-1.9,0.22c-12.98,2.63-25.14,7.41-36.57,14.07c-1.83,1.06-3.91,2.07-5.15,3.66
			c-3.05,3.92-4.73,4.31-8.63,1.05c-9.23-7.74-19.54-13.59-31.01-17.28c-4.17-1.34-8.51-2.15-13.6-3.42
			c3.13,5.51,5.74,10.08,8.33,14.67c1.04,1.85,1.68,3.58-0.01,5.58c-1.68,2.01-3.51,2.08-5.68,1.27c-0.29-0.11-0.6-0.14-0.88-0.24
			c-18.04-6.06-36.6-8.62-55.59-8.21c-0.9,0.02-1.78,0.28-3.09,0.49c1.87,1.61,3.22,2.85,4.64,4c1.94,1.57,3.43,3.35,2.42,6.01
			c-0.96,2.52-3.17,2.86-5.55,2.85c-20.74-0.1-41.26,2.15-61.56,6.3c-5.53,1.12-10.99,2.57-17.22,4.03
			c3.65,2.45,6.55,4.48,9.56,6.36c1.87,1.17,3.21,2.58,2.84,4.9c-0.34,2.24-1.84,3.39-3.95,4.16c-18.9,6.91-36.77,15.93-53.75,26.71
			c-1.23,0.78-2.38,1.67-3.87,2.73c11,2.82,11.12,2.98,8.08,9.89c16.51,16.7,36.33,26.36,60,28.64c0-1.05,0.04-1.54,0-2.03
			c-1.63-18.37,0.26-36.39,5.55-54.05c0.27-0.91,1.18-1.63,1.8-2.44c0.85,0.7,2.03,1.23,2.5,2.13c1.73,3.34,3.17,6.82,4.82,10.21
			c6.56,13.49,14.2,26.4,23.8,37.92c10.29,12.35,21.39,24.02,31.83,36.24c9.84,11.5,19.87,22.91,28.78,35.12
			c6.58,9.01,11.23,18.73,14.41,28.94c3.19,10.21,4.9,20.91,5.62,31.88l0.01,0.13c0.05,0.71,0.09,1.42,0.13,2.13
			c0.01,0.2-0.01,0.4-0.05,0.61l0.07,2.17l0.14,4.87c-0.66-0.96-1.56-2.24-2.38-3.41c-0.86-1.23-1.64-2.34-1.97-2.81
			c0-0.01-0.02-0.02-0.02-0.03c-0.04-0.05-0.07-0.1-0.09-0.13c-0.02-0.03-0.04-0.05-0.05-0.06c-6.15-9.25-12.75-18.1-20.48-26.15
			c-15.46-16.09-33.67-27.36-55.29-33.14c-14.26-3.82-28.29-8.17-41.09-15.95c-27.43-16.67-47.27-39.52-58.06-69.93
			c-0.98-2.75-1.88-5.52-2.94-8.65c-9.25,10.17-15.52,21.37-18.12,35.15c1.51-0.31,2.4-0.48,3.29-0.67c2.45-0.52,4.94-1.52,7,0.95
			c1.99,2.37,0.7,4.6-0.18,6.86c-0.11,0.29-0.23,0.56-0.34,0.84c-6.15,15.07-10.41,30.65-12.38,46.79
			c-1.01,8.16-0.9,16.47-1.97,24.63c-0.47,3.61,0.94,4.98,3.56,6.53c5.51,3.27,10.92,6.71,16.26,10.25
			c1.87,1.24,3.56,1.49,5.71,0.92c32-8.52,64.46-8.82,97-4.51c22.96,3.04,41.14,14.65,54.61,33.47
			c13.25,18.49,19.51,39.42,21.03,61.89c0.3,4.55-1.24,15.12-1.82,15.8c-0.68-0.59-7.37-27.14-12.39-38.35
			c-8.73-19.5-21.71-35.22-40.71-45.55c-12.37-6.73-25.77-10.13-39.67-11.27c-22.98-1.87-45.55,0.25-67.31,8.45
			c-1.73,0.66-2.75,1.38-2.88,3.55c-1.37,21.63,1.29,42.75,8.52,63.14c8.39,23.62,22.47,43.39,41.85,59.37
			c1.25,1.04,2.47,1.99,3.81,2.69c0.09,0,0.18,0.01,0.27,0.01c5.83,0.6,11.69,0.98,17.56,1.14c4.28,0.13,8.57,0.13,12.85,0.01
			c4.72-0.11,9.43-0.38,14.13-0.78c15.09-1.29,30.12-4.06,44.69-8.21c1.3-0.37,2.65,0.38,3.02,1.68s-0.38,2.65-1.68,3.02
			c-14.87,4.24-30.21,7.06-45.61,8.38c-6.88,0.6-13.81,0.89-20.73,0.89c-8.07,0-16.12-0.4-24.13-1.2c-0.2-0.02-0.4-0.04-0.6-0.06
			c-0.26-0.02-0.5-0.09-0.73-0.19c-0.35-0.1-0.69-0.23-1.01-0.4c-8.28-4.53-16.81-8.84-24.36-14.42
			c-18.93-13.98-30.71-33.1-37.3-55.49c-5.68-19.27-9.86-38.92-11.56-58.93c-0.68-7.96-5.38-12.82-10.02-19.2
			c0.15,1.84,0.15,2.76,0.31,3.64c5.62,30.11,11.03,60.27,16.98,90.31c4.35,21.96,9.83,43.66,17.14,64.86
			c6.38,18.5,16.02,34.98,31.7,46.84c14.19,10.72,28.87,20.94,44.21,29.9c37.03,21.62,76.87,36.12,119.07,43.95
			c9.36,1.74,18.8,2.72,28.22,0.65c26.77-5.89,53.12-13.35,78.47-23.78c20.94-8.63,41.57-18.06,62.01-27.81
			c9.12-4.36,17.88-9.79,26.02-15.8c11.49-8.48,19.44-20.18,25.62-32.95c3.46-7.16,6.21-14.66,9.31-22.1c-1-0.28-1.2-0.41-1.37-0.37
			c-0.59,0.12-1.18,0.29-1.76,0.45c-11.85,3.24-23.83,4.15-36,2.28c-2.29-0.36-4.52-0.69-5.17-3.4c-0.71-2.89,0.96-4.45,3.21-5.89
			c4.37-2.81,8.62-5.82,12.91-8.75c-0.9-0.2-1.51,0.1-2.11,0.4c-5.26,2.62-10.63,4.66-16.24,5.86c-0.39,0.58-1.02,0.99-1.77,1.06
			c-15.39,1.54-30.99,1.6-46.37,0.17c-6.88-0.63-13.75-1.57-20.57-2.79c-8.13-1.47-16.19-3.34-24.11-5.62
			c-1.3-0.38-2.05-1.73-1.68-3.03c0.38-1.3,1.73-2.04,3.04-1.68c1.16,0.34,2.32,0.66,3.49,0.98c13.17,3.57,26.7,6.02,40.27,7.28
			c10.3,0.95,20.68,1.22,31.03,0.82c4.07-0.16,8.13-0.42,12.17-0.79c0.06-0.02,0.12-0.06,0.17-0.09
			c13.27-8.71,24.41-19.66,33.2-32.84c18.54-27.77,27.14-58.44,26.01-91.84c-0.07-2.11-0.66-3.18-2.8-3.97
			c-26.74-9.85-54.34-12.31-82.41-8.77c-25.14,3.17-44.78,15.69-58.7,37.02c-9.47,14.53-15.39,30.45-18.82,47.37
			c-0.6,2.98-2.94,10.45-3.67,11.17c-0.54-0.7-0.89-19.9,0.52-27.56c3.28-17.82,9.97-34.38,20.41-49.27
			c13.79-19.66,32.16-32.82,56.02-37.1c20.89-3.75,42.04-3.72,63-0.96c12.86,1.69,25.47,5.24,38.2,7.92
			c1.14,0.25,2.72,0.77,3.45,0.25c5.78-4.09,11.4-8.39,16.42-12.15C681.958,464.425,681.588,462.285,681.558,460.155z
			 M297.598,619.475c-32.88-0.05-59.58-27.11-59.63-60.42c-0.04-32.48,27.35-59.65,60.09-59.61c31.96,0.04,59.04,27.93,58.93,60.68
			C356.878,592.465,329.798,619.525,297.598,619.475z M562.998,499.455c33.71-0.41,60.81,26.16,61.26,60.07
			c0.44,30.92-26.1,60.22-60.05,60.1c-31.53-0.11-58.7-27.21-59.03-59.95C504.858,528.015,531.908,499.835,562.998,499.455z
			 M431.388,617.695c0.5-1.07,1.77-1.52,2.84-1.02c1.07,0.51,1.53,1.78,1.02,2.85l-2.63,5.6l2.76,5.52c0.53,1.05,0.1,2.34-0.96,2.86
			c-0.3,0.16-0.63,0.23-0.95,0.23c-0.78,0-1.54-0.44-1.91-1.18l-3.7-7.37L431.388,617.695z M378.218,516.655
			c-5.84-11.73-19.64-33.51-46.49-47.43c-0.25-0.12-0.5-0.25-0.74-0.37c-26.92-13.69-53.01-12.23-66.85-9.93
			c-2.04,0.35-3.81,0.71-5.28,1.04c-1.33,0.3-2.63-0.53-2.93-1.85c-0.3-1.32,0.53-2.63,1.85-2.93c12.05-2.7,43.61-7.19,76.2,9.7
			c28.09,14.57,42.51,37.32,48.61,49.6c0.6,1.21,0.11,2.68-1.1,3.28c-0.35,0.17-0.72,0.25-1.09,0.25
			C379.508,518.015,378.638,517.525,378.218,516.655z M506.698,647.205c2.16,0.12,3.16,0.78,3.31,3.22
			c1.53,25.41-5.66,47.84-22.59,66.99c-10.96,12.41-23.93,21.97-39.55,27.74c-19.25,7.1-37.21,4.2-53.39-7.92
			c-19.63-14.7-31.71-34.62-38.01-58.17c-2.53-9.5-3.4-19.19-3.34-29c0.01-0.59,0.06-1.81,0.85-2.91c1.16-1.6,3.24-1.97,7.64-2.4
			c5.62-0.55,8.19-0.62,8.19-0.62c2.74-0.06,6.39-0.11,10.73-0.03c10.71,0.86,19.38,2.07,25.35,3.02
			c11.59,1.84,16.89,3.39,26.32,3.48c6.09,0.05,12.22-0.43,18.42-1.44C469.178,646.115,487.948,646.075,506.698,647.205z
			 M605.388,457.275c-0.24,1.34-1.51,2.22-2.84,1.98c-3.6-0.65-8.07-1.25-13.2-1.55c-5.62-0.11-11.24-0.16-16.81,0.31
			c-0.66,0.05-1.32,0.11-1.98,0.18c-12.69,1.39-27.13,5.21-41.67,13.61c-22.36,12.93-35.01,30.98-41.68,43.85
			c-0.44,0.84-1.29,1.32-2.17,1.32c-0.38,0-0.77-0.08-1.12-0.27c-1.2-0.63-1.67-2.1-1.05-3.3c6.97-13.45,20.2-32.32,43.56-45.83
			c31-17.91,61.54-15.91,76.99-13.13C604.748,454.685,605.628,455.955,605.388,457.275z M657.068,351.285
			c-0.73,2.32-1.81,4.53-2.81,6.75c-8.78,19.24-20.2,36.66-35.19,51.69c-14.01,14.04-30.43,23.67-49.79,28.17
			c-32.34,7.53-57.84,25.64-78.76,50.85c-1.71,2.05-3.36,4.14-5.04,6.22l-0.12,0.16l-0.29,0.35c-0.49,0.6-0.98,1.19-1.47,1.78
			l-0.64,0.77l-0.01,0.01l-1.93,2.34l-3.17,3.85l0.16-3.82l0.12-2.66c-0.02-0.13-0.03-0.26-0.02-0.4c0.05-1.66,0.14-3.32,0.25-4.97
			v-0.09c0.82-11.94,3.1-23.62,7.09-34.99c8.09-23.07,22.75-41.61,40.13-58.23c10.14-9.71,20.5-19.18,30.94-28.55
			c14.21-12.75,22.05-28.94,26.13-47.25c0.62-2.77,0.93-5.63,1.63-8.38c0.25-0.98,1.25-1.77,1.91-2.63c0.79,0.75,1.98,1.38,2.31,2.3
			c6.03,17.36,9.16,35.21,8.82,53.62c-0.03,1.73,0,3.45,0,6.37c8.81-3.12,17.43-5.4,25.36-9.14c10.25-4.86,19.95-10.88,29.89-16.41
			c0.36-0.19,0.66-0.54,1.04-0.64c1.08-0.27,2.19-0.46,3.29-0.68C656.978,348.885,657.398,350.205,657.068,351.285z"/>
	</g>
	<g>
		<path class="st1" d="M564.408,503.295c-29.72-0.1-55.3,25.91-55.27,56.21c0.02,30.5,25.17,56.07,55.2,56.12
			c30.88,0.05,55.98-25.22,56.09-56.46C620.538,529.085,594.768,503.385,564.408,503.295z M561.938,600.255
			c-21.16-0.2-38.26-17.78-38.16-39.24c0.09-21.08,17.26-38.71,37.7-38.71c21.52,0,39.34,17.93,39.14,39.4
			C600.428,582.645,582.548,600.455,561.938,600.255z"/>
		<path class="st1" d="M297.278,503.255c-30.34,0.26-55.52,25.87-55.46,56.42c0.07,30.58,25.65,56.09,56.1,55.94
			c30.34-0.15,55.48-25.81,55.26-56.43C352.968,529.095,326.888,503.005,297.278,503.255z M300.188,600.245
			c-20.86,0.2-38.31-17.24-38.57-38.52c-0.23-20.64,17.32-38.37,38.21-38.58c21.18-0.22,38.63,16.88,38.88,38.09
			C338.958,582.085,321.238,600.035,300.188,600.245z"/>
		<path class="st1" d="M494.658,700.825c-12.29,19.25-28.44,33.87-50.38,41.41c-17.49,6.01-33.28,2.14-47.85-8.37
			c-10.76-7.75-19.06-17.84-25.32-29.36c-3.08-5.66-1.63-12.12,1.15-17.93c2.18-4.56,5.78-7.9,10.08-10.33
			c1.46-0.82,3.52-0.86,5.28-0.79c13.73,0.48,27.47,1.09,42.74,1.72c14.06-0.67,29.62-1.23,45.16-2.25
			c4.05-0.27,6.77,1.42,9.51,3.68c5.83,4.81,9.25,11.02,10.31,18.47C495.508,698.285,495.298,699.825,494.658,700.825z"/>
		<path class="st1" d="M738.068,797.945c-5.9,3.43-11.95,5.27-18.2,6.44c-8.72,1.62-17.41,1.31-26.04-0.78
			c-0.68-0.17-1.4-0.3-2.1-0.3c-0.69,0-1.37,0.17-2.38,0.31c-2.98-14.57-11.65-27.34-12.86-42.42c-0.38-4.85-0.47-9.74-0.56-14.62
			c-0.02-0.8,0.56-1.73,1.1-2.42c10.99-13.97,15.68-29.86,14.58-47.54c-0.01-0.27,0.15-0.56,0.38-1.39
			c9.54,13.06,22.23,19.68,38.54,21.21c-8.45,4.44-16.52,7.13-25.17,7.99c-1.62,0.15-3.25,0.22-4.87,0.41
			c-2.66,0.31-3.35,1.76-1.49,3.75c5.46,5.88,10.96,11.74,16.68,17.36c3.9,3.82,8.21,7.21,12.72,11.13
			c-1.02,0.16-1.63,0.28-2.26,0.34c-7.46,0.8-14.97,1.27-22.36,2.5c-5.46,0.91-6.39,4.41-2.88,8.79
			c9.35,11.71,20.82,20.81,34.13,27.63C735.918,796.785,736.798,797.265,738.068,797.945z"/>
		<path class="st1" d="M184.978,746.725c-0.53,0.53-0.62,1.74-0.54,2.61c1.32,14.48-1.85,28.07-7.74,41.21
			c-1.55,3.5-2.49,7.27-3.8,11.17c-16.18,0.41-32.07-2.02-47.95-4.62c-0.04-0.34-0.09-0.69-0.13-1.03c0.8-0.48,1.59-1,2.42-1.43
			c12.68-6.41,24.35-14.36,34.98-23.77c1.12-0.98,1.94-2.96,1.87-4.44c-0.09-2-1.7-3.46-3.9-3.6c-8.81-0.6-17.63-1.12-26.45-1.65
			c-0.89-0.05-1.79,0-3.21,0c3.75-2.61,7.19-4.83,10.44-7.3c10.07-7.61,17.24-17.44,21.75-29.2c1.36-3.55,0.74-4.48-3.02-4.31
			c-11.15,0.49-21.81-1.87-32.44-5.58c16.85-2.3,31.72-8.68,44.2-21.34c0,3.58-0.15,6.54,0.02,9.49
			c0.81,14.29,6.28,27.02,13.3,39.21C185.668,743.685,186.688,744.995,184.978,746.725z"/>
	</g>
	<g>
		<path class="st2" d="M506.428,651.165c-1.48,5.85-2.06,11.66-6.49,15.76c-1.47,1.34-3.64,2.48-5.59,2.68
			c-37.17,3.78-74.4,4.3-111.66,1.52c-5.17-0.4-10.89,0.61-15.34-2.94c-3.54-2.82-7.09-5.92-9.62-9.58
			c-1.39-2.01-0.71-5.46-0.97-8.44c9.02-1.98,17.82-3.09,26.63-2.32c8.16,0.71,16.38,1.89,24.34,3.81
			c15.24,3.68,30.34,3.52,45.74,1.08C470.798,649.985,488.318,649.865,506.428,651.165z"/>
		<path class="st2" d="M570.268,559.185c-0.07,5.16-5.19,9.84-10.81,9.87c-5.55,0.04-10.7-4.75-10.72-9.97
			c-0.03-5.3,5-10.1,10.57-10.08C564.908,549.025,570.338,554.075,570.268,559.185z"/>
		<path class="st2" d="M313.538,558.995c-0.22,5.39-4.93,10.15-9.91,10.05c-5.49-0.12-10.1-5.05-9.91-10.62
			c0.2-5.82,4.88-10.41,10.32-10.14C309.338,548.545,313.768,553.555,313.538,558.995z"/>
	</g>
	<g>
		<path class="st3" d="M561.708,526.315c-18.75,0.26-34.25,16.28-34.09,35.23c0.16,19.01,16.38,35.16,34.97,34.81
			c18.96-0.34,34.39-16.63,34.06-35.96C596.338,541.835,580.158,526.045,561.708,526.315z M559.388,572.915
			c-7.89,0.09-14.41-6.28-14.53-14.19c-0.11-6.98,6.72-13.48,14.19-13.52c8.23-0.04,15,6.28,15.03,14.03
			C574.118,566.645,567.478,572.825,559.388,572.915z"/>
		<path class="st3" d="M299.808,527.065c-18.87,0.07-34.27,15.84-34.2,34.98c0.07,18.48,15.73,34.3,33.99,34.33
			c19.23,0.02,35.43-16.12,35.26-35.15C334.698,542.325,318.958,526.985,299.808,527.065z M303.688,572.885
			c-7.46,0.08-13.84-6.36-13.92-14.04c-0.08-7.69,6.19-14.36,13.59-14.45c7.6-0.1,13.9,6.33,13.98,14.27
			C317.418,566.515,311.388,572.795,303.688,572.885z"/>
		<path class="st3" d="M246.638,745.405c-6.73-2.8-12.33-6.22-17.16-10.64c-4.17-3.82-7.72-8.31-11.74-12.3
			c-1.25-1.24-3.3-2.72-4.69-2.46c-1.56,0.28-3.23,2.16-4.1,3.76c-3.67,6.67-7.05,13.51-10.54,20.28c-0.18,0.36-0.41,0.71-0.9,1.56
			c-1.17-1.72-2.03-2.89-2.79-4.13c-5.77-9.41-10.83-19.16-13.16-30.04c-3.55-16.56,0.35-31.28,11.44-44.05
			c1.76-2.05,2.88-4.07,1.21-6.54c-1.72-2.54-4.13-2.09-6.56-1.1c-14.49,5.86-29.58,8.83-45.18,9.4c-1.38,0.06-2.76,0.01-5.11,0.01
			c13.4-14.5,23.86-29.81,30.89-47.6c0.35,2.68,1.08,5.37,1,8.04c-0.25,7.61-0.69,15.22-1.32,22.8c-0.32,3.79,0.06,4.36,3.81,3.82
			c10.59-1.55,20.54-4.91,29.81-10.28c0.31-0.17,0.72-0.2,1.48-0.39c-1.2,3.65-2.41,6.95-3.34,10.31
			c-3.95,14.23-3.85,28.58-0.86,42.94c0.24,1.14,1.43,2.09,2.18,3.12c0.92-0.88,2.09-1.62,2.69-2.68c2.52-4.41,4.82-8.95,7.29-13.39
			c0.66-1.19,1.6-2.24,2.79-3.88c0.8,8.67,2.31,16.49,6.99,23.1c3.32,4.69,7.36,8.88,11.24,13.15c0.75,0.81,2.23,0.96,3.37,1.42
			c0.41-1.09,1.1-2.16,1.19-3.28c0.62-7.71,1.1-15.43,1.64-23.14c0.03-0.47,0.13-0.92,0.23-1.64c3.95,3.3,7.65,6.4,11.38,9.51
			c-3.92,6.87-6.33,14.03-7.02,21.72C242.128,730.425,243.618,737.745,246.638,745.405z"/>
		<path class="st3" d="M281.638,829.635c-7.47-0.68-14.24-3.17-20.66-6.73c-9.65-5.34-17.32-12.72-22.9-22.24
			c-0.26-0.44-0.58-0.85-0.85-1.28c-2.84-4.45-6.45-4.31-8.89,0.46c-8.22,16.06-9.77,32.93-5.86,50.9c-1-0.5-1.79-0.79-2.46-1.26
			c-12.13-8.58-17.6-23.64-13.82-38.01c0.21-0.79,0.38-1.58,0.65-2.35c0.86-2.47,0.75-4.69-1.78-6.07
			c-2.47-1.35-4.57-0.44-6.22,1.54c-4.95,5.93-8.58,12.61-10.47,20.12c-0.95,3.81-1.34,7.76-2.08,12.17
			c-2.86-3.37-4.54-7.04-5.32-11.06c-1.75-9.11-0.47-18.08,2.19-26.8c1.82-5.99,4.36-11.76,6.84-18.32
			c1.27,4.83,2.28,9.06,3.54,13.21c0.36,1.2,1.43,2.17,2.18,3.24c0.88-0.96,2.13-1.76,2.57-2.89c4.48-11.43,11-21.52,19.63-30.24
			c0.49-0.5,1.03-0.95,2.15-1.95c-0.11,1.81-0.2,3.03-0.25,4.24c-0.48,11.48-1.01,22.96-1.33,34.44c-0.04,1.18,1.24,2.39,1.91,3.59
			c0.72-1.07,1.8-2.04,2.11-3.21c2.15-8.09,4.75-15.95,10.08-23.15c1.03,1.75,1.98,3.25,2.82,4.8c3.23,5.89,6.34,11.84,9.66,17.68
			c0.64,1.14,2.01,1.87,3.05,2.79c0.63-1.14,1.55-2.2,1.87-3.43c2.94-11.1,5.77-22.24,8.65-33.37c0.23-0.86,0.65-1.68,0.98-2.51
			c0.26,0.01,0.53,0.03,0.79,0.04c0,5.68,0.17,11.37-0.03,17.05c-0.59,16.51,4.79,30.76,15.86,42.93c0.89,0.97,1.86,1.87,2.81,2.8
			C279.958,827.645,280.888,828.515,281.638,829.635z"/>
		<path class="st3" d="M674.538,842.365c-0.2-1.43-0.43-2.4-0.49-3.39c-0.8-14.33-4.48-27.86-11.34-40.49
			c-1.47-2.71-3.67-3.75-5.88-2.82c-2.39,1.01-3.18,3.19-2.26,6.37c4.47,15.38,1.7,28.97-10,40.33c-0.82,0.8-1.76,1.48-3.35,2.79
			c3.85-13.34,3.18-25.62-1.18-37.72c-0.93-2.57-2.14-5.05-3.34-7.53c-0.95-1.98-2.15-3.69-4.76-3.62s-3.71,1.87-4.6,3.86
			c-3.5,7.86-8.59,14.48-15.31,19.84c-9.88,7.87-21.31,11.09-34.12,11.17c22.66-14.16,31.54-35.05,30.17-61.76
			c4.11,4.21,5.88,8.51,6.15,13.46c0.32,5.96-2.01,10.9-6.05,15.15c-1.02,1.08-2.68,2.3-1.15,3.76c0.69,0.65,2.69,0.49,3.8,0.01
			c8.25-3.55,15.9-7.55,22.86-22.77c1.34,4.86,2.63,9.72,4.05,14.55c0.38,1.26,1.17,2.39,1.77,3.57c1.11-0.86,2.6-1.49,3.27-2.61
			c4.6-7.73,6.62-16.11,5.8-25.11c-0.12-1.28-0.17-2.56-0.25-3.84c0.21-0.13,0.43-0.26,0.64-0.38c2.95,3.79,6.04,7.48,8.79,11.4
			c2.75,3.9,5.07,8.08,7.75,12.03c0.7,1.03,2.03,1.64,3.08,2.43c0.65-1.06,1.47-2.05,1.9-3.2c0.65-1.75,1.03-3.62,2.13-5.55
			c1.57,4.03,3.46,7.96,4.63,12.09c2.1,7.42,4.26,14.88,5.48,22.47C684.098,825.315,680.628,834.995,674.538,842.365z"/>
		<path class="st3" d="M726.198,669.315c-1.92,0-2.97,0.03-4.02-0.01c-16.99-0.51-32.91-4.75-47.69-13.29
			c-1.52-0.88-3.75-1.35-5.41-0.96c-3.22,0.75-3.74,4.43-1.13,7.42c5.14,5.9,9.15,12.44,11.69,19.85
			c4.35,12.65,4.38,25.36,0.25,38.06c-2.71,8.32-7.03,15.73-13.5,22.52c-1.74-7.07-4.35-13.21-8.71-18.49
			c-1.3-1.56-2.68-3.06-4.11-4.49c-2.91-2.93-5.76-2.75-8.13,0.66c-4.35,6.26-9.52,11.68-16.03,15.68
			c-3.52,2.17-7.28,3.97-11.64,6.32c0.32-2.27,0.57-3.7,0.72-5.14c1.21-11.09-0.31-21.74-5.44-31.72c-0.68-1.35-0.65-1.94,0.58-3
			c3.44-2.96,6.66-6.19,10.61-9.92c0.82,3.44,1.83,6.44,2.2,9.52c0.65,5.39-0.6,10.49-2.95,15.39c-0.57,1.2-0.45,2.74-0.65,4.12
			c1.47-0.18,3.14,0.04,4.37-0.6c13.01-6.78,20.8-17.24,22.17-32.1c0.09-1.1,0.27-2.19,0.4-3.29l0.79-0.34
			c2.1,3.98,4.36,7.89,6.25,11.98c1.23,2.65,1.81,5.61,2.95,8.32c0.42,0.97,1.62,1.63,2.46,2.43c0.57-0.93,1.55-1.81,1.66-2.79
			c2.14-19.93,0.62-39.61-4.27-59.04c-0.12-0.46-0.15-0.94-0.24-1.54c5.38,2.65,10.39,5.49,15.7,7.63
			c5.34,2.15,10.95,3.66,16.49,5.3c1.04,0.3,2.79,0.29,3.33-0.33c0.54-0.63,0.29-2.33-0.13-3.35c-4.58-11.11-5.51-22.44-2.28-34.05
			c0.34-1.23,0.84-2.41,1.55-4.4C701.258,635.905,711.948,653.135,726.198,669.315z"/>
		<path class="st3" d="M789.828,197.775c1.48,3.45,4.8,2.81,7.72,2.74c14.04-0.32,27.74-2.57,41.01-7.28
			c0.52-0.18,1.07-0.33,1.61-0.49c0.23,0.25,0.47,0.51,0.7,0.77c-4.79,5.59-9.32,11.45-14.43,16.74
			c-15.55,16.06-34.52,26.63-55.63,33.51c-2.28,0.75-3.44,2.29-3.22,4.13c0.18,1.49,1.5,3.48,2.83,4.09
			c15.08,6.88,30.92,11.24,47.26,13.9c3.1,0.5,6.21,0.96,10.13,1.55c-2.77,1.85-5,3.45-7.33,4.86
			c-18.73,11.33-37.6,22.39-57.59,31.37c-19.08,8.58-39.23,12.65-60.1,13.24c-0.78,0.02-1.56-0.15-3.16-0.31
			c3.05-2.12,5.48-3.81,7.9-5.53c17.06-12.11,32.76-25.79,47.01-41.09c1.05-1.14,1.52-2.83,2.25-4.26
			c-1.69-0.19-3.45-0.81-5.07-0.53c-19.55,3.36-39.09,3.48-58.64,0.09c-0.5-0.08-1-0.21-1.49-0.35c-0.37-0.1-0.72-0.25-1.59-0.57
			c3.71-2.71,7.2-5.11,10.48-7.77c0.91-0.74,1.2-2.23,1.78-3.37c-1.2-0.2-2.47-0.76-3.58-0.54c-9.4,1.85-18.87,2.83-28.67,2.22
			c2.9-1.89,5.8-3.79,8.7-5.68c16.07-10.44,29.58-23.57,40.83-39.04c0.72-0.99,0.72-2.51,1.06-3.78c-1.25-0.1-2.56-0.48-3.75-0.26
			c-12.1,2.27-24.1,5.13-36.26,6.86c-17.08,2.41-34.28,2.23-51.91,0.22c0.79-0.85,1.23-1.47,1.81-1.94
			c16.88-13.96,30.01-30.88,39.76-50.44c0.38-0.76,0.41-2.48,0.06-2.66c-0.96-0.47-2.28-0.67-3.33-0.42
			c-6.23,1.44-12.38,3.35-18.65,4.54c-16.34,3.11-32.68,2.85-49.08-0.8c60.59-10.98,105.25-42.83,131.1-100.4
			c0.4,1.47,0.65,2.17,0.78,2.88c4.21,23.96,1.88,47.24-7.22,69.81c-0.27,0.66-0.52,1.33-0.79,2c-1.31,3.34,0.98,7.48,5.56,6.43
			c6.34-1.45,12.77-2.61,19.05-4.28c33.06-8.76,63.68-22.85,91.75-42.41c0.88-0.62,1.76-1.23,3.4-2.39c-0.53,3.6-0.84,6.47-1.4,9.29
			c-6.84,34.35-22.94,63.62-48.15,87.92C791.278,192.315,788.328,194.255,789.828,197.775z"/>
		<path class="st3" d="M267.488,162.405c-6.54,1.03-13.05,2.49-19.63,3.02c-18.16,1.46-35.69-1.58-52.59-8.36
			c-0.99-0.4-2.72-0.48-3.28,0.09c-0.57,0.58-0.42,2.27-0.06,3.28c7.23,20.57,19.62,37.34,37.19,50.27c0.56,0.42,1.1,0.86,2.45,1.9
			c-4.61,0.52-8.43,1.06-12.27,1.36c-26.01,2.02-51.39-1.13-76.17-9.32c-1.23-0.41-2.78,0.13-4.18,0.23
			c0.43,1.26,0.57,2.74,1.32,3.76c13.32,18.14,29.58,33.14,48.54,45.25c-0.01,0.28-0.01,0.57-0.01,0.86c-3.31,0-6.67,0.33-9.93-0.06
			c-6.44-0.79-12.83-2-19.26-2.92c-0.96-0.15-2.01,0.28-3.02,0.44c0.33,1.05,0.35,2.41,1.04,3.09c4.25,4.23,8.66,8.3,13.02,12.43
			c0.26,0.24,0.47,0.54,0.93,1.07c-7.23,0-14.13,0.43-20.97-0.09c-13.38-1.01-26.73-2.55-40.1-3.88c-0.5-0.05-1.05-0.21-1.51-0.09
			c-0.91,0.23-2.21,0.39-2.55,1.02c-0.32,0.6,0.11,2,0.67,2.61c5.3,5.77,10.47,11.67,16.08,17.12
			c12.16,11.79,25.51,22.09,40.04,30.81c0.49,0.29,0.87,0.73,1.65,1.39c-8.25,1.23-16.01,0.82-23.77-0.04
			c-16.79-1.87-32.49-7.33-47.54-14.76c-19.35-9.57-38.1-20.17-55.34-33.27c-0.63-0.47-1.21-1-1.97-1.64
			c6.57-1.07,12.86-2.01,19.13-3.13c11.57-2.09,22.62-5.84,33.46-10.33c2.23-0.92,4.04-2.06,4.08-4.72
			c0.04-2.74-2.05-3.79-4.11-4.74c-5.9-2.75-11.95-5.19-17.7-8.2c-18.88-9.89-34.28-23.89-47.25-40.69c-0.23-0.3-0.36-0.69-0.8-1.56
			c3.61,0.79,6.77,1.72,9.98,2.15c12.08,1.63,24.19,3.09,36.28,4.65c2.64,0.33,4.65-0.44,5.71-2.99c1-2.42-0.33-4.09-2-5.58
			c-10.23-9.12-19.26-19.33-26.97-30.63c-13.1-19.22-21.92-40.25-26.56-63.85c2.77,2.23,4.99,4.03,7.2,5.82
			c19.06,15.34,40.87,22.5,65.29,22.61c5.37,0.03,10.74,2.11,16.06,3.4c7.41,1.8,14.77,3.8,22.18,5.63c5,1.24,7.42-1.17,6.22-6.28
			c-4.51-19.15-6.48-38.53-5.51-58.18c0.14-2.81,0.47-5.61,0.78-9.25c2.41,3.68,4.37,6.65,6.32,9.64
			c13.12,20.14,28.62,38.23,46.02,54.79c6.52,6.2,13.54,11.16,22.17,14.04c19.39,6.47,38.66,13.27,57.99,19.93
			c1.05,0.36,2.11,0.69,3.16,1.04C267.428,161.825,267.458,162.115,267.488,162.405z"/>
	</g>
	<g>
		<path class="st4" d="M126.411,125.329c-0.87-0.06-1.64,0.01-2.34-0.16c-8.96-2.29-17.8-5.25-26.88-6.72
			c-6.24-1.02-6.48-5.86-9.51-10.17c12.43,2.94,24.11,3.11,35.98,1.12C124.591,114.789,125.471,119.869,126.411,125.329z"/>
		<path class="st4" d="M679.828,486.725c-0.84,5.63-1.51,11.31-2.55,16.9c-3.18,17.3-6.31,34.62-12.22,51.28
			c-5.25,14.77-12.24,28.61-21.8,41.09c-0.45,0.6-0.95,1.17-1.43,1.75l-0.35-0.26c1.44-2.29,2.87-4.59,4.31-6.88
			c8.19-12.99,13.03-27.28,16.69-42.06c4.09-16.51,7.5-33.14,9.2-50.08c0.09-0.97,0.44-2.01,0.99-2.81
			C674.778,492.575,677.018,489.575,679.828,486.725z"/>
		<path class="st4" d="M115.098,451.605c-5.08,11.26-11.86,20.97-20.53,30.38c-0.49-3.14-0.86-5.57-1.26-7.99
			c-0.89-5.5-1.91-6.35-7.54-5.76c-18.34,1.93-35.88-1.05-52.73-8.41c-0.36-0.15-0.7-0.31-1.88-0.84c2.25-2.03,4.31-3.65,6.08-5.53
			c5.56-5.93,11.04-11.94,16.48-17.98c1.06-1.18,1.63-1.86,3.43-0.76c16.65,10.23,34.88,15.38,54.32,16.45
			c0.71,0.05,1.42,0.06,2.13,0.11C113.898,451.295,114.198,451.405,115.098,451.605z"/>
		<path class="st4" d="M177.868,673.015c-1.37,3.67-2.88,7.11-3.95,10.68c-1.35,4.52-5.06,7.03-8.21,9.84
			c-13.49,12.09-29.49,17.58-47.55,17.33c-1.07-0.02-2.15,0.94-3.22,1.44c0.77,0.94,1.34,2.29,2.33,2.74
			c12.08,5.45,24.66,8.87,37.97,9.29c1,0.03,2.01,0.09,3.28,0.15c-3.63,9.26-8.96,17.17-16.38,23.35
			c-4.88,4.06-10.55,7.14-15.81,10.73c-1.22,0.83-2.25,1.95-3.14,3.24c-13.02,2.47-25.47,6.89-37.12,13.6
			c-0.25-0.15-0.49-0.3-0.74-0.45c0.73-2.87,1.31-5.79,2.21-8.6c4.24-13.17,11.54-24.35,22.04-33.4c1.86-1.6,3.53-3.37,2.54-6
			c-0.97-2.54-3.34-2.94-5.79-3.09c-23.96-1.49-44.19,6.16-60.13,24.4c-0.4,0.46-0.82,0.9-1.27,1.32c-0.13,0.12-0.36,0.14-0.74,0.27
			c0.94-13.95,3.17-27.42,10.53-39.6c3.74-6.18,9.12-10.35,15.46-13.39c14.3-6.86,28.67-13.58,43.02-20.36
			c0.73-0.35,1.48-0.68,2.21-1.04c2.36-1.15,3.76-2.84,2.86-5.61c-0.82-2.5-2.96-3.34-5.98-2.74c-5.68,1.13-11.34,2.65-17.08,3.13
			c-24.86,2.08-46.6-5.15-64.7-22.6c-0.26-0.25-0.38-0.65-0.74-1.29c1.25,0,2.22-0.11,3.17,0.02c36.43,4.89,66.34-19.21,73.92-53.18
			c2.55-11.39,1.86-22.64-1.11-33.83c-1.17-4.38-2.42-5.18-6.89-5.22c-9.27-0.07-18.54-0.26-27.8-0.43c-0.45-0.01-0.9-0.2-2.09-0.49
			c1.69-1.46,2.99-2.45,4.15-3.59c9.65-9.51,16.14-20.84,19.2-34.05c0.47-2.06,1.19-2.55,3.23-2.43c8.33,0.49,16.68,0.77,25.03,1.13
			c0.58,0.02,1.16,0.11,1.91,0.18c-2.36,4.36-4.84,8.4-6.83,12.67c-8.44,18.07-8.29,36.45-1.17,54.83
			c7.71,19.88,19.72,36.61,37.02,49.34c0.48,0.36,0.95,0.75,1.53,1.2c-5.7,10.42-12.24,19.92-20.19,28.42
			c-2.65,2.82-5.57,5.4-7.99,8.39c-1.07,1.33-1.82,3.51-1.59,5.14c0.32,2.18,2.46,2.88,4.69,3.06c15.67,1.2,31.11-0.02,46.32-4
			c0.99-0.25,1.99-0.46,2.99-0.66C177.438,672.825,177.638,672.945,177.868,673.015z"/>
		<path class="st4" d="M234.588,688.725c-0.52,8.11-1.16,16.22-1.85,25.44c-2.75-3.27-5.19-5.75-7.14-8.57
			c-5.81-8.39-8.29-17.78-7.65-27.98c0.02-0.41,0.19-0.89,0.05-1.21c-0.39-0.84-0.77-2.05-1.45-2.29c-0.63-0.22-1.98,0.36-2.42,1.01
			c-3.6,5.14-7.06,10.39-10.56,15.61c-0.45,0.66-0.84,1.37-1.74,2.86c-2.83-17.77-0.88-34.04,6.47-49.72
			c3.39,7.44,6.07,14.95,10.08,21.67c4.39,7.37,10.03,14,15.09,20.97C233.958,687.185,234.638,688.015,234.588,688.725z"/>
		<path class="st4" d="M256.328,760.965c-3.03,10.56-5.82,21.18-8.7,31.78c-0.21,0.75-0.5,1.48-0.85,2.52
			c-3.82-6.88-7.46-13.45-11.13-20c-2.22-3.94-3.15-4.09-5.62-0.43c-2.71,4.01-5.07,8.25-8.11,12.41c0.7-7.8,1.36-15.61,2.1-23.41
			c0.2-2.02,0.73-4.01,0.87-6.03c0.06-0.89-0.3-2.47-0.8-2.62c-0.87-0.26-2.37,0-2.96,0.64c-5.65,6.09-11.45,12.07-16.58,18.58
			c-3.29,4.17-5.53,9.17-8.12,13.61c-4.86-10.15-4.44-20.95-2.39-31.8c4.56,2.1,5.78,1.91,8.51-2.46c4.2-6.7,8.16-13.56,12.24-20.4
			c3.16,2.9,6.42,6.17,9.97,9.1c8.84,7.27,18.86,12.38,29.89,15.39C256.648,758.395,256.908,758.945,256.328,760.965z"/>
		<path class="st4" d="M258.698,746.785c-6.35-7.42-7.52-16.1-6.87-25.22c0.34-0.08,0.69-0.16,1.04-0.25L258.698,746.785z"/>
		<path class="st4" d="M667.608,783.855c-3.41-4.89-6.26-9.41-9.55-13.58c-3.77-4.76-7.89-9.26-12.01-13.72
			c-0.79-0.85-2.34-1-3.54-1.47c-0.07,1.28-0.54,2.69-0.16,3.81c3.29,9.51,3.49,18.94-0.28,28.35c-0.16,0.38-0.29,0.77-0.49,1.12
			c-0.08,0.15-0.33,0.21-0.23,0.15c-2.25-4.89-4.45-9.84-6.86-14.68c-0.48-0.95-1.84-1.46-2.79-2.18c-0.64,1.03-1.62,2-1.87,3.12
			c-1.88,8.45-6.37,15.03-13.96,20.19c0.23-1.12,0.28-1.77,0.49-2.36c3.8-10.53,1.25-20.3-7.24-27.83
			c-0.72-0.63-1.51-1.51-1.68-2.38c-2.39-12.36-2.49-24.62,2.3-36.68c0,3.45,0.35,6.95-0.1,10.34c-0.46,3.5-1.89,6.86-2.49,10.35
			c-0.29,1.73-0.28,4.2,0.73,5.27c0.99,1.06,3.54,1.33,5.19,0.97c14.41-3.13,26.31-10.48,35.7-21.88c0.37-0.45,0.88-0.77,1.49-1.29
			c5.3,6.36,7.91,13.54,8.07,21.65c0.07,3.51,1.98,5.9,4.64,5.58c1.34-0.16,2.61-0.93,3.69-1.34c1.09,6.33,2.55,12.56,3.08,18.87
			C669.988,777.185,668.458,780.285,667.608,783.855z"/>
		<path class="st4" d="M831.788,460.375c-3.16,1.09-6.79,2.52-10.51,3.61c-17.36,5.07-34.96,6.36-52.85,3.27
			c-4.89-0.85-7.3,2.37-5.52,7.04c0.89,2.34,1.82,4.66,2.73,6.99c-0.28,0.14-0.56,0.27-0.85,0.41
			c-8.13-9.77-13.66-20.89-17.12-33.54c22.08,0.24,42.9-3.75,61.56-14.16C816.778,442.825,824.188,451.495,831.788,460.375z"/>
		<path class="st4" d="M747.428,669.315c-0.67,2.61,0.58,4.39,2.99,5.23c2.49,0.87,5.07,1.47,7.6,2.24
			c5.22,1.61,10.7,2.68,15.61,4.97c13.36,6.23,23.04,16.42,29.98,29.38c6.85,12.82,11.22,26.33,12.24,41.24
			c-0.51-0.31-0.86-0.42-1.05-0.65c-16-19.64-36.97-27.79-61.9-26.87c-2.53,0.09-4.75,0.7-5.52,3.37c-0.73,2.55,0.91,4.2,2.76,5.63
			c12.14,9.38,19.76,21.7,23.81,36.37c0.42,1.53,0.64,3.11,1.03,5.1c-3.47-2.38-6.48-4.59-9.64-6.58
			c-8.1-5.12-17.01-8.17-26.33-10.19c-1.26-0.27-2.59-0.71-3.62-1.45c-11.04-7.91-20.92-17.14-30.15-27.07
			c-0.25-0.27-0.34-0.69-0.61-1.26c4.02-0.86,7.87-1.59,11.7-2.51c7.79-1.89,14.97-5.18,21.51-9.82c0.77-0.55,1.06-1.76,1.57-2.66
			c-1.07-0.39-2.14-1.13-3.21-1.12c-9.77,0.1-18.97-1.83-27.42-6.99c-6.94-4.23-12.56-9.8-16.36-16.9c-3-5.59-5.23-11.59-7.96-17.76
			c5.37,1.54,10.2,3.15,15.14,4.31c11.69,2.77,23.54,3.45,35.5,2.19c2.19-0.24,4.52-0.77,4.72-3.01c0.16-1.82-0.74-4.14-1.93-5.64
			c-5.56-7-11.54-13.67-17.04-20.73c-2.86-3.66-4.89-7.98-7.58-11.79c-1.39-1.97-0.69-3.05,0.63-4.41
			c4.31-4.43,9.05-8.55,12.79-13.43c15.19-19.74,25.74-41.48,26.48-66.93c0.41-14.37-4.49-27.11-13.26-38.42
			c-0.37-0.47-0.71-0.96-1.31-1.77h32.7c4.3,15.89,12.31,29.92,24.88,42.3c-4.16,0.23-7.34,0.45-10.52,0.57
			c-7.42,0.29-14.86,0.53-22.28,0.81c-3.78,0.14-4.98,1.15-5.92,4.81c-10.54,40.9,17.39,79.27,55.78,85.96
			c6.75,1.18,13.73,1.06,20.98,1.56c-6.41,6.75-13.79,11.97-22.11,15.96c-13.14,6.3-27.01,8.28-41.35,6.58
			c-6.12-0.72-12.1-2.63-18.19-3.8C750.128,665.665,748.088,666.705,747.428,669.315z"/>
		<path class="st4" d="M829.718,352.615c-1.51,0.74-2.67,1.43-3.91,1.9c-15.03,5.65-30.32,6.39-45.86,2.36
			c-5.77-1.5-8.39,1-6.53,6.65c2.82,8.57,6.04,17.01,9.12,25.6c-3.61,0.08-6.16-1.48-8.42-4.81
			c-13.64-20.07-27.54-39.96-41.33-59.92c-0.33-0.47-0.47-1.07-0.8-1.85c19.81-3.59,37.82-11.34,55.54-21.14
			C795.208,323.755,809.278,340.515,829.718,352.615z"/>
		<path class="st4" d="M822.628,252.045c-3.6,2.77-7.39,5.37-12.97,3.54c-7.53-2.48-15.25-4.34-22.89-6.48
			c-0.44-0.13-0.83-0.41-1.58-0.79c6.59-3.24,12.82-6.31,18.68-9.2C810.118,243.425,816.348,247.715,822.628,252.045z"/>
		<path class="st4" d="M772.258,109.265c-2.38,3.33-4.95,6.31-6.83,9.69c-2.87,5.19-7.42,7.27-12.87,8.43
			c-4.97,1.06-9.85,2.51-14.77,3.77c-0.94,0.24-1.92,0.33-3.41,0.58c0.67-2.27,1.25-4.06,1.71-5.88c1.24-4.83,2.35-9.69,3.7-14.48
			c0.23-0.87,1.38-2.1,2.12-2.11c9.74-0.2,19.47-0.2,29.21-0.25C771.308,109.015,771.508,109.095,772.258,109.265z"/>
		<path class="st4" d="M76.888,250.035c-7.15,1.97-13.53,3.79-19.96,5.46c-2.84,0.74-5.8,1.04-8.65,1.77c-3.55,0.91-6.4,0.53-8-3.57
			c7.2-2.94,13.3-7.52,17.94-13.74C64.308,243.235,70.178,246.405,76.888,250.035z"/>
		<path class="st4" d="M131.468,325.215c-4.79,6.49-9.4,12.54-13.81,18.73c-10.44,14.67-20.83,29.38-31.12,44.16
			c-1.77,2.54-4,1.78-6.5,1.89c1.78-5.13,3.55-10.07,5.2-15.04c1.29-3.85,2.49-7.75,3.65-11.65c1.51-5.09-0.38-7.21-5.74-6.9
			c-8.21,0.48-16.47,1.37-24.66,0.99c-8.05-0.38-16.04-2.13-24.12-3.81c20.77-11.04,34.64-27.21,40.54-50.33
			C92.838,312.945,110.998,321.545,131.468,325.215z"/>
		<path class="st4" d="M424.558,236.855c-6.69-26.03-18.18-49.82-34.3-71.34c-1.02-1.35-2.59-2.56-4.16-3.19
			c-6.61-2.63-13.4-4.81-19.97-7.53c-37.31-15.5-68.56-39.14-94.19-70.31c-2.47-3.02-4.88-6.09-7.72-9.64
			c-0.97,13.48-0.22,26.13,2.08,38.68c4.01,21.78,12.1,41.96,24.07,60.59c1.92,2.98,1.75,5.57-0.37,7.05
			c-2.41,1.7-4.67,1.19-6.83-2.1c-3.1-4.74-5.92-9.67-9.06-14.85c-25.68,8-51.44,7.03-77.32-2.45c0.34,1.16,0.49,1.82,0.73,2.43
			c7.84,19.38,20.65,34.63,38.01,46.19c1.37,0.91,2.3,2.5,3.43,3.77c-1.59,0.7-3.11,1.78-4.76,2.02
			c-24.42,3.54-48.72,3.06-72.82-2.53c-4.85-1.12-9.68-2.36-15.14-3.69c0.98,1.31,1.56,2.13,2.18,2.91
			c13.31,16.5,29.39,29.79,47.34,40.94c0.85,0.52,1.38,1.54,2.06,2.33c-0.94,0.61-1.86,1.71-2.83,1.76
			c-6.39,0.28-12.8,0.45-19.19,0.41c-3.17-0.02-6.34-0.58-9.14-0.87c3.3,3.55,6.72,7.13,10,10.84c0.77,0.87,1.03,2.18,1.53,3.3
			c-1.05,0.4-2.08,0.85-3.15,1.18c-0.47,0.15-1.01,0.05-1.52,0.06c-20.09,0.49-40.06-0.78-60.51-3.58c1.01,1.17,1.67,2.04,2.42,2.81
			c3.78,3.86,7.49,7.78,11.37,11.51c11.57,11.1,24.33,20.63,37.92,29.11c4.43,2.77,8.67,5.3,14.11,3.29
			c0.47-0.17,1.02-0.24,1.51-0.18c2.32,0.26,3.73,1.7,4.07,3.89c0.32,2.11-0.63,3.77-2.73,4.56c-0.67,0.25-1.36,0.46-2.05,0.58
			c-11.58,2.13-23.2,3.04-34.96,2c-1.32-0.12-3.3,0.14-3.97,1.01c-7.2,9.35-14.35,18.76-21.21,28.36
			c-9.4,13.17-18.49,26.55-27.86,39.73c-0.92,1.29-2.85,2.44-4.41,2.56c-12.88,1.07-25.79,1.86-38.69,2.77
			c-4.58,0.33-9.15,0.8-14.17,1.24c11.41,14.61,25.08,25.18,41.66,31.93c14.44,5.88,29.51,8.31,45.05,8.15
			c4.42-0.04,6.43,2.79,4.8,6.74c-6.94,16.77-16.78,31.59-30.04,44.05c-3.73,3.51-7.73,6.73-11.84,10.27
			c0.73,0.09,1.12,0.17,1.51,0.19c13.83,0.64,27.67,1.18,41.49,1.98c2.71,0.16,4.82-0.4,7.03-1.87c5.74-3.82,12.08-5.27,18.91-3.75
			c2.23,0.51,4.39,1.32,6.96,2.11c0-1.59,0.06-2.98-0.01-4.36c-0.29-6.1-0.7-12.2-0.91-18.31c-0.12-3.45,1.56-5.28,4.46-5.3
			c2.71-0.01,4.25,1.71,4.44,5.09c0.25,4.67,0.42,9.36,0.67,14.04c1.42,25.83,2.85,51.65,4.27,77.49c0.7,12.72,1.44,25.42-1.6,38.01
			c-0.48,1.99-0.73,4.28-0.28,6.25c2.05,9,3.04,18.06,2.25,27.28c-0.28,3.19-0.71,6.36-1.1,9.82c12.37-2.06,23.38-6.51,33.44-13.29
			c0.61-0.41,0.89-1.95,0.68-2.81c-4.5-17.74-9.88-35.31-13.5-53.23c-6.91-34.1-12.82-68.4-19.16-102.61
			c-0.5-2.73-1.07-5.43,1.56-7.55c-0.39-0.64-0.66-1.18-1.02-1.66c-1.5-2-3.02-3.98-4.53-5.97c-0.01-0.02-0.02-0.02-0.03-0.03
			l-3.84-4.94c-0.98-1.25-0.76-3.05,0.49-4.03c1.25-0.97,3.06-0.75,4.04,0.5l2.01,2.58c0.28-23.84,4.64-46.43,12.9-68.65
			c-1.21,0.17-1.8,0.22-2.38,0.34c-5.52,1.22-7.52-0.54-6.85-6.12c1.35-11.17,4.71-21.64,10.94-31.09c2.33-3.53,4.72-7.02,7.08-10.5
			c-0.18-0.24-0.29-0.51-0.43-0.54c-2.38-0.48-4.75-1.08-7.15-1.33c-2.33-0.25-3.83-1.34-4.42-3.52c-0.63-2.34,0.73-3.86,2.48-5.1
			c12.65-8.96,25.75-17.15,39.68-23.95c7.03-3.43,14.19-6.58,21.74-10.07c-3.8-2.57-7.46-4.78-10.76-7.45
			c-1.18-0.96-2.16-3.13-1.96-4.57c0.18-1.3,1.92-2.98,3.3-3.4c21.98-6.68,44.42-10.99,67.37-12.49c3.8-0.25,7.6-0.52,12.12-0.83
			c-1.85-1.61-3.15-2.7-4.4-3.84c-1.59-1.43-2.73-3.06-1.91-5.36c0.78-2.19,2.47-3.07,4.69-3.27c14.25-1.27,28.49-1.45,42.65,0.89
			c6.56,1.09,13.08,2.4,20.05,3.69c-2.35-4.07-4.48-7.87-6.7-11.61c-1.11-1.86-2.04-3.97-0.32-5.59c1.22-1.15,3.35-2.09,4.97-1.96
			c16.52,1.3,31.88,6.26,45.92,15.13c2.9,1.82,5.67,3.85,8.61,5.86c0.15-0.5,0.34-0.79,0.29-1.04
			C428.048,254.195,426.758,245.405,424.558,236.855z M306.038,262.145c-0.48,0.67-1.23,1.02-1.99,1.02c-0.49,0-0.99-0.15-1.42-0.46
			c-0.62-0.45-1.3-0.91-2.01-1.37c-0.2-0.08-0.39-0.16-0.54-0.26c-1.26-0.83-2.53-1.61-3.81-2.34c-0.03-0.02-0.06-0.04-0.1-0.06
			c-5.42-2.91-12.47-5.63-20.97-6.65c-11.6-1.4-21.27,0.96-27.35,3.18c-1.27,0.46-2.67-0.19-3.13-1.46
			c-0.47-1.27,0.19-2.67,1.45-3.14c6.69-2.44,13.79-3.75,20.9-3.88c0.69-0.02,1.36-0.02,2.04,0c2.23,0.03,4.45,0.17,6.67,0.44
			c13.47,1.62,23.59,7.18,29.7,11.57C306.578,259.525,306.828,261.045,306.038,262.145z M366.838,241.125
			c-0.43,0.86-1.29,1.35-2.19,1.35c-0.37,0-0.74-0.08-1.09-0.26c-12.69-6.37-25.96-11.8-39.45-16.14
			c-10.98-3.53-22.3-6.4-33.64-8.53c-1.33-0.25-2.21-1.53-1.95-2.86c0.25-1.32,1.53-2.2,2.85-1.95c11.55,2.17,23.06,5.1,34.24,8.69
			c13.73,4.41,27.23,9.94,40.14,16.42C366.958,238.455,367.438,239.925,366.838,241.125z"/>
		<path class="st4" d="M743.548,438.915c9.04-0.24,18.16-0.17,27.09-1.35c17.04-2.26,32.7-8.39,46.02-19.53
			c4.61-3.86,8.71-8.31,13.52-12.95c-1.83-0.36-2.61-0.55-3.41-0.67c-17.31-2.52-34.63-4.99-51.93-7.64
			c-1.51-0.23-3.19-1.34-4.18-2.55c-2.51-3.06-4.7-6.39-6.95-9.64c-13.14-19.01-26.34-37.96-39.28-57.1
			c-1.77-2.61-3.3-3.2-6.23-2.81c-13.7,1.83-27.43,1.48-41.14,0.01c-3.12-0.34-4.91-2.46-4.53-5.02c0.37-2.55,2.56-4.01,5.64-3.79
			c3.96,0.29,7.92,0.68,11.88,0.78c1.3,0.03,2.81-0.42,3.91-1.13c17.49-11.3,33.65-24.29,48.64-38.74c2.24-2.16,4.7-4.07,7.06-6.09
			c-0.28-0.33-0.56-0.66-0.84-0.98c-4.23,0.46-8.44,1.03-12.67,1.38c-16.96,1.4-33.79,0.31-50.42-3.31
			c-1.01-0.22-2.22-1.13-2.6-2.03c-0.22-0.52,0.9-1.85,1.68-2.5c2.03-1.68,4.19-3.19,6.29-4.76c-1.12-0.41-1.92-0.25-2.72-0.23
			c-8.43,0.18-16.86,0.38-25.29,0.43c-0.96,0-1.92-0.96-2.89-1.48c0.73-0.94,1.25-2.27,2.2-2.77c15.76-8.19,29.63-18.86,41.79-31.76
			c3.34-3.56,6.39-7.41,10.01-11.64c-4.42,0.93-7.98,1.68-11.54,2.45c-25.85,5.55-51.89,6.31-78.08,3.16
			c-1.08-0.13-2.07-1.01-3.1-1.54c0.57-0.96,0.93-2.2,1.75-2.85c13.41-10.62,25.06-22.87,34.44-37.2c2.53-3.87,4.78-7.91,7.53-12.5
			c-1.34,0.24-1.82,0.28-2.27,0.41c-16.73,4.83-33.79,6.61-51.07,4.49c-7.71-0.94-15.27-3.05-22.9-4.63
			c-1.7-0.35-2.89-0.26-3.99,1.61c-2.78,4.73-5.9,9.26-8.99,13.8c-1.27,1.86-3.17,2.58-5.36,1.7c-2.01-0.82-3.05-2.49-2.64-4.63
			c0.25-1.24,0.99-2.45,1.75-3.51c12-16.81,19.99-35.35,24.18-55.57c2.46-11.91,2.98-23.92,2.44-36.06
			c-0.41,0.06-0.66,0.03-0.77,0.14c-0.63,0.66-1.25,1.33-1.83,2.04c-6.8,8.31-14.57,15.59-23.21,21.96
			c-14.98,11.06-30.08,21.97-44.86,33.29c-15.02,11.51-30.82,21.25-49.63,25.24c-0.94,0.21-1.93,1.09-2.52,1.93
			c-13.59,19.1-24.15,39.79-32.16,61.81c-1.15,3.18-3.46,4.51-6.02,3.58c-2.64-0.96-3.54-3.24-2.36-6.49
			c5.52-15.36,12.29-30.14,20.57-44.21c2.4-4.08,4.89-8.1,7.52-12.45l-29.18,19.6l0.93-4.02l0.11-0.49c0.57-2.5,1.51-5.77,3.04-9.43
			c2.95-7.09,8.1-15.65,17.03-22.89c15.74-12.76,33.29-13.25,40.11-12.86c1.01,0.06,1.78,0.92,1.73,1.94
			c-0.06,1.01-0.91,1.79-1.93,1.72c-0.47-0.02-1-0.05-1.58-0.06c-7.24-0.17-22.36,1.04-36.02,12.11
			c-10.19,8.26-15.13,18.36-17.5,25.59l26.51-17.8l0.52-0.35c0.08-0.06,0.17-0.11,0.26-0.14c1.35-0.91,2.52-2,3.48-3.54
			c0.58-0.92,2.18-1.41,3.41-1.69c12.21-2.77,23.89-6.94,34.16-14.2c12.13-8.58,23.95-17.58,35.92-26.38
			c6.15-4.51,12.25-9.1,18.53-13.44c13.82-9.55,25.12-21.56,35.08-34.98c0.94-1.27,3.15-2.25,4.76-2.25c2.52,0,3.28,2.28,3.58,4.55
			c3.08,23.82,1.13,47.15-6.86,69.87c-1.77,5.03-3.86,9.95-5.81,14.95c28.85,1.97,93.99-31.83,105.26-54.65
			c-0.55-0.06-1.03-0.14-1.51-0.14c-7.75,0-15.16-1.58-22.16-4.96c-5.85-2.83-11.56-6.01-17.56-8.46c-8.52-3.47-17.54-4.41-26.7-3.8
			c-2.52,0.16-4.56-0.7-5.22-3.2c-0.64-2.44,0.43-4.36,2.79-5.47c0.91-0.43,1.79-0.97,2.65-1.51c11.95-7.58,19.45-18.01,20.74-32.41
			c0.06-0.72,0.01-1.46,0.01-2.71c-1.12,0.85-1.75,1.32-2.37,1.79c-11.29,8.73-23.64,12.74-38,9.26
			c-6.21-1.51-12.58-2.58-18.95-3.13c-17.7-1.51-34.88,2.17-51.86,6.49c-9.53,2.42-18.74,6.12-28.1,9.24
			c-2.52,0.84-4.85,0.76-6.22-1.92c-1.4-2.74,0.04-4.51,2.16-6.21c3.73-2.98,7.58-5.88,10.85-9.32
			c7.55-7.93,11.85-17.54,13.85-28.93c-1.44,0.76-2.4,1.24-3.34,1.75c-14.08,7.69-29.03,12.82-44.91,15.06
			c-18.31,2.59-33.79,10.58-46.6,23.85c-3.59,3.72-5.89,3.67-9.32-0.26c-8.8-10.09-19.46-17.44-32.53-20.48
			c-10.49-2.45-21.17-4.2-31.84-5.67c-9.76-1.35-18.94-3.82-26.88-9.89c-0.26-0.19-0.68-0.17-1.61-0.4
			c0.73,2.77,1.22,5.14,1.95,7.43c3.02,9.43,8.85,16.86,16.69,22.77c1.66,1.25,2.83,2.58,2.22,4.86c-0.89,3.3-3.08,4.23-6.91,2.82
			c-11.69-4.3-23.68-7.3-36.09-8.76c-18.9-2.22-37.83-1.82-56.74-0.45c-12.64,0.91-24.5-1.25-35.66-7.25
			c-1.12-0.6-2.28-1.14-3.42-1.7c-0.32,0.16-0.64,0.33-0.97,0.49c1.52,5.43,2.72,10.98,4.65,16.26c3.15,8.62,8.49,15.92,14.98,22.38
			c1.61,1.61,2.21,3.53,1.06,5.53c-1.25,2.19-3.31,2.84-5.75,2.11c-0.59-0.18-1.17-0.38-1.76-0.54c-9.91-2.73-19.08-1.78-27.29,5.03
			c-3.58,2.97-7.18,6.22-11.34,8.1c-5.53,2.51-11.62,3.81-17.46,5.63c0.05,0.11,0.23,0.38,0.45,0.59
			c6.57,6.66,13.08,13.37,19.75,19.93c2.36,2.33,4.78,5.17,7.73,6.26c22.04,8.14,44.21,15.9,66.36,23.74
			c0.56,0.2,1.25,0.02,2.1,0.02c-0.23-0.69-0.33-1.07-0.48-1.43c-7.05-17.06-11.8-34.75-12.55-53.21
			c-0.46-11.25,0.47-22.56,0.77-33.85c0.08-2.55,1-4.7,3.63-5.38c2.66-0.68,4.34,0.94,5.65,3.1c0.69,1.12,1.52,2.16,2.28,3.24
			c11,15.49,23.46,29.68,37.75,42.22c24.42,21.42,52.1,37.16,83.07,46.98c3.59,1.14,6.16,2.89,8.4,5.91
			c19.37,26.05,32.33,54.93,38.84,86.72c0.86,4.21,1.57,8.46,2.39,12.89c0.82-0.45,1.26-0.69,1.71-0.93
			c14.85-7.76,30.5-12.91,47.26-14.46c2.16-0.2,4.1-0.14,5.29,2.02c1.15,2.09,0.38,3.9-0.87,5.63c-1.7,2.33-3.38,4.67-5.26,7.28
			c0.97,0.19,1.45,0.37,1.92,0.36c15.35-0.53,30.7-1.21,46.05-1.52c5.38-0.11,10.8,0.43,16.13,1.18c1.52,0.2,3.45,1.92,3.98,3.38
			c0.42,1.14-0.9,3.04-1.71,4.46c-0.42,0.74-1.38,1.17-2.35,1.94c0.74,0.24,0.92,0.34,1.11,0.35c0.61,0.03,1.23,0.03,1.84,0.04
			c25.88,0.82,50.5,6.96,74.05,17.62c2.24,1,3.93,2.34,3.73,4.95c-0.19,2.64-2.25,3.68-4.48,4.37c-2.17,0.68-4.33,1.34-7.23,2.23
			c3.06,1.53,5.42,2.65,7.73,3.86c19.41,10.15,37.06,22.74,52.86,37.94c1.94,1.88,2.7,3.81,1.51,6.2c-1.12,2.26-3.27,2.48-5.51,2.18
			c-1.4-0.19-2.81-0.4-4.46-0.65c2.8,4.52,5.47,8.46,7.77,12.62c4.97,8.98,8.29,18.57,9.67,28.77c0.62,4.59-2.08,6.9-6.37,5.61
			c-0.68-0.21-1.38-0.36-2.82-0.74c10.88,21.52,12.23,43.83,10.53,67.1c1.48-1.02,2.38-1.9,3.47-2.34c1.15-0.46,2.46-0.51,3.7-0.74
			c-0.23,1.27-0.09,2.79-0.75,3.78c-3.27,4.88-6.74,9.62-9.44,13.41c0.73,2.98,1.78,5.03,1.63,6.98
			c-1.54,19.64-5.51,38.88-10.18,57.96c-7.87,32.12-23.08,60.06-47.76,82.45c-4.78,4.34-9.84,8.36-15.22,12.91
			c1.57,0,2.75,0.06,3.9-0.02c18.08-1.26,33.97-7.76,47.52-19.85c0.76-0.66,1.6-1.29,2.5-1.73c2.75-1.34,6.03,0.21,6,3.24
			c-0.02,1.72-1.15,4-2.53,5.04c-7.04,5.27-14.33,10.22-21.49,15.25c-4.21,19.41-12.98,37-25.4,52.73c2.99,3.76,3.94,8.06,4,12.41
			c0.06,4.35-0.64,8.71-1,12.96c11.52-6.7,18.02-20.68,16.03-34.88c-0.2-1.51-0.86-3.41,1.09-3.83c0.96-0.2,2.64,0.94,3.35,1.93
			c3.74,5.28,7.29,10.71,10.94,16.14c0.03-0.14,0.17-0.51,0.18-0.88c0.42-17.61-1.51-34.94-6.46-51.89c-0.34-1.17,0.2-2.6,0.32-3.9
			c1.2,0.31,2.5,0.42,3.56,0.99c5.64,3.04,11.08,6.47,16.86,9.21c4.6,2.19,9.58,3.59,14.43,5.35c0.22-0.79,0.37-1.01,0.32-1.16
			c-4.78-13.89-4.36-27.57,1.48-41.1c0.5-1.16,0.47-2.78,0.13-4.03c-3.48-12.77-5.4-25.83-4.78-38.98
			c0.87-18.39,2.46-36.76,4.27-55.08c1.07-10.71,3.1-21.34,4.82-31.98c0.67-4.15,2.76-5.96,5.61-5.33c2.97,0.66,4.04,3.07,3.23,7.08
			c-0.73,3.7-1.45,7.39-2.07,11.1c-0.43,2.52-0.68,5.07-1.07,8.05c10.48-4.26,20.05-3.61,28.12,1.69c3.1-0.68,5.28-1.53,7.47-1.57
			c8.55-0.15,17.11-0.04,25.67-0.02h8.27c-3.53-3.96-7.36-8.15-11.08-12.44c-11.13-12.87-18.61-27.58-22.07-44.29
			C736.988,440.995,738.848,439.045,743.548,438.915z M439.448,111.465c8.49-7.06,17.93-12.77,28.07-16.99
			c12.58-5.48,25.92-8.36,39.99-8.44c0.18,0,0.37,0.01,0.56,0.04c0.47-0.01,0.93-0.02,1.4-0.02l3.8-0.02l-26.96,44.88
			c-0.4,0.67-1.11,1.04-1.84,1.04c-0.37,0-0.75-0.1-1.1-0.31c-1.01-0.6-1.34-1.92-0.73-2.93l23.01-38.31
			c-12.31,0.48-24.29,3.06-35.67,7.68c-6.88,2.8-13.43,6.31-19.57,10.48c-2.05,1.45-4.06,2.96-6.04,4.56
			c-0.15,0.13-0.28,0.39-0.44,0.41c-0.09,0-0.17,0.01-0.26,0.01c-0.49,0.4-0.99,0.8-1.48,1.21c-0.91,0.76-2.26,0.64-3.01-0.27
			C438.418,113.575,438.548,112.225,439.448,111.465z M413.418,101.395c-18.37-16.78-40.34-17.67-49.81-17.12l39.2,49.38
			c0.74,0.92,0.58,2.27-0.34,3c-0.93,0.74-2.27,0.58-3.01-0.34l-41.66-52.48c-0.48-0.61-0.6-1.42-0.31-2.13
			c0.29-0.72,0.94-1.22,1.7-1.32c5.48-0.73,33.97-3.29,57.11,17.85c24.01,21.92,23.24,51.56,22.84,57.28
			c-0.08,1.12-1.02,1.99-2.13,1.99c-0.05,0-0.1,0-0.15-0.01c-1.18-0.08-2.07-1.1-1.99-2.28
			C435.248,149.835,435.968,121.985,413.418,101.395z M495.518,237.025c-0.29,0.12-0.6,0.18-0.9,0.18c-0.97,0-1.89-0.59-2.27-1.55
			c-0.5-1.26,0.12-2.68,1.37-3.17l73.02-28.91c1.26-0.49,2.68,0.12,3.18,1.38c0.49,1.25-0.12,2.67-1.38,3.17L495.518,237.025z
			 M612.838,255.005l-53.54,4.46c-0.07,0.01-0.14,0.01-0.21,0.01c-1.26,0-2.33-0.97-2.43-2.24c-0.12-1.35,0.88-2.53,2.23-2.64
			l16.32-1.36c2.34-0.25,4.69-0.5,7.04-0.73c6.67-0.65,13.37-1.14,20.06-1.7v0.08c1.47-0.07,2.94-0.21,4.41-0.27l5.71-0.48
			c1.35-0.11,2.53,0.89,2.64,2.23C615.178,253.715,614.178,254.895,612.838,255.005z"/>
	</g>
</g>
</svg>
